<svg width="100" height="100" viewBox="0 0 100 100" fill="none" xmlns="http://www.w3.org/2000/svg">
<path d="M45.6999 65.44C48.2099 68.18 47.5899 70.86 44.1099 71.88C39.4499 73.24 34.6899 73.47 29.9299 72.45C28.1899 72.08 26.8699 71.04 26.9599 69.06C27.0299 67.51 27.5299 66.09 29.4799 65.97C32.0799 66.27 34.4199 65.69 36.4999 64.04C37.0399 63.62 37.8199 63.49 38.4099 63.84C40.6799 65.16 43.2199 65.11 45.6899 65.44H45.6999Z" fill="url(#paint0_linear_171_530)"/>
<path d="M72.1699 67.23C73.0799 70.55 72.2899 72.1 68.9399 72.67C64.0999 73.5 59.2999 73.1 54.6399 71.45C52.8199 70.8 52.0899 69.43 52.4799 67.58C52.7199 66.45 52.9499 65.13 54.6699 65.47C56.8499 65.07 59.0599 64.82 61.0899 63.79C62.0199 63.32 62.9699 63.66 63.7699 64.38C65.4299 65.87 67.3399 66.42 69.5599 65.9C70.7499 65.62 71.8199 65.78 72.1699 67.23Z" fill="url(#paint1_linear_171_530)"/>
<path d="M47.7199 45.2299C46.5999 38.0099 43.3899 33.1399 34.5099 36.9599C34.3699 37.0199 34.2299 37.0699 34.0799 37.0899C33.3199 37.2099 32.5699 37.2199 31.9399 36.6899C29.2899 34.4699 26.5599 35.3599 23.9899 36.6899C22.3399 37.5499 20.8499 37.7299 19.0799 37.2499C16.9299 36.6599 14.6399 36.7099 12.8599 38.1099C11.2699 39.3599 9.70991 39.9599 7.72991 39.7799C5.92991 39.6199 4.79991 40.5099 4.23991 42.2599C3.81991 43.5999 3.80991 44.9099 4.05991 46.2399C4.83991 50.3399 5.76991 54.4099 6.88991 58.4399C8.24991 63.3099 9.72991 64.2399 14.6699 63.1699C15.5899 62.6799 15.4699 61.8799 15.3499 61.0399C14.8199 57.2799 14.2999 53.5099 13.8199 49.7399C13.7299 49.0699 13.3199 48.0299 14.4199 47.9299C15.2899 47.8499 15.2199 48.8799 15.2799 49.4999C15.6599 53.4299 16.6599 57.2899 16.4899 61.2699C16.4299 62.5699 17.0399 63.3199 18.2799 63.6299C20.6299 64.9299 22.8499 64.3399 25.0299 63.1899C25.8899 60.8799 24.8499 58.6499 24.6899 56.3899C24.5199 53.9399 24.0699 51.5099 23.7499 49.0699C23.6699 48.4899 23.4299 47.6799 24.1999 47.5599C25.1299 47.4099 25.0599 48.2999 25.1599 48.9399C25.9499 53.6999 26.0799 58.5599 27.2399 63.2699L28.7799 64.4399C30.1999 65.1199 31.6399 65.6299 33.2399 65.0399C36.0299 64.0099 36.5699 63.0199 36.2799 60.6399C35.8099 56.7799 35.5899 52.8899 35.3199 48.9999C35.2699 48.3299 34.8199 47.2399 35.8399 47.1099C36.9099 46.9799 36.6699 48.1199 36.7299 48.7999C37.0599 52.6799 37.4599 56.5499 37.6199 60.4399C37.6899 62.0999 38.2299 63.0099 39.7599 63.6399C41.8499 64.5099 43.8799 64.8599 46.0199 63.9999C47.1899 62.9899 47.8099 61.7999 48.0399 60.1899C48.7699 55.1699 48.4799 50.1899 47.7099 45.2299H47.7199Z" fill="url(#paint2_linear_171_530)"/>
<path d="M96.0899 44.3199C95.8399 41.4699 94.6799 40.2899 91.8199 40.3099C90.3499 40.3099 89.0199 40.1399 87.8799 39.0699C85.9599 37.2599 83.5799 36.9999 81.1799 37.6099C79.2899 38.0899 77.7299 37.8899 76.0699 36.8599C74.0999 35.6399 71.5999 34.8299 69.6699 36.0299C67.3499 37.4599 65.5399 36.9499 63.3699 36.1699C58.7499 34.5099 55.5199 35.9699 53.5499 40.4699C53.2799 41.0799 53.1099 41.7399 52.9099 42.3799C51.6699 46.2599 51.4999 58.0299 51.5299 58.8999C51.5999 60.9699 52.0899 62.7999 53.9599 63.9899C56.4999 65.0299 58.7599 64.0399 61.0099 62.9999C61.7399 62.6599 61.8299 62.0599 61.8999 61.3599C62.3099 57.2099 62.7499 53.0599 63.1799 48.8999C63.2499 48.1899 63.0799 47.0399 63.9999 47.0899C65.2099 47.1699 64.6699 48.3299 64.5999 49.0699C64.2599 52.9299 63.8999 56.7899 63.5299 60.6499C63.2199 63.9299 66.2299 66.2299 69.4199 65.1199C69.8999 64.9499 70.3599 64.6999 70.8199 64.4899C71.2699 64.1599 71.7199 63.8299 72.1699 63.4999C72.3399 63.2399 72.5199 62.9699 72.6899 62.7099C73.3799 58.2299 74.0699 53.7499 74.7699 49.2699C74.8699 48.6499 74.7299 47.6699 75.6799 47.8099C76.6399 47.9499 76.2399 48.8799 76.1499 49.4899C75.4899 53.9899 74.7999 58.4799 74.1099 62.9799C75.7599 64.4799 77.5799 65.1399 79.8599 64.4899C81.8399 63.9199 82.7399 62.7999 82.9799 60.7299C83.3999 57.0399 84.0699 53.3699 84.6599 49.6999C84.7499 49.1499 84.7499 48.2799 85.5199 48.3699C86.4499 48.4799 86.2599 49.3699 86.1199 49.9999C85.2299 53.8999 85.2999 57.9799 83.9999 61.8099C83.6399 62.8599 84.1899 63.4799 85.2399 63.6899C89.8299 64.6899 91.4499 63.8199 92.7499 59.3799C93.7699 55.8699 94.6599 52.3099 95.5099 48.7499C95.8499 47.3099 96.2199 45.8499 96.0799 44.3199H96.0899Z" fill="url(#paint3_linear_171_530)"/>
<defs>
<linearGradient id="paint0_linear_171_530" x1="22.1099" y1="81.97" x2="99.0399" y2="13.54" gradientUnits="userSpaceOnUse">
<stop offset="0.21" stop-color="#AFE239"/>
<stop offset="1" stop-color="#00FEF2"/>
</linearGradient>
<linearGradient id="paint1_linear_171_530" x1="33.3099" y1="94.57" x2="110.25" y2="26.14" gradientUnits="userSpaceOnUse">
<stop offset="0.21" stop-color="#AFE239"/>
<stop offset="1" stop-color="#00FEF2"/>
</linearGradient>
<linearGradient id="paint2_linear_171_530" x1="8.90991" y1="67.1299" x2="85.8499" y2="-1.29007" gradientUnits="userSpaceOnUse">
<stop offset="0.21" stop-color="#AFE239"/>
<stop offset="1" stop-color="#00FEF2"/>
</linearGradient>
<linearGradient id="paint3_linear_171_530" x1="28.9099" y1="89.6199" x2="105.85" y2="21.1999" gradientUnits="userSpaceOnUse">
<stop offset="0.21" stop-color="#AFE239"/>
<stop offset="1" stop-color="#00FEF2"/>
</linearGradient>
</defs>
</svg>
