<svg width="280" height="280" viewBox="0 0 280 280" fill="none" xmlns="http://www.w3.org/2000/svg">
<path d="M155.66 5.41196L143.895 3.7627L136.199 58.6559L147.964 60.3052L155.66 5.41196Z" fill="white" stroke="#262626" stroke-width="1.1" stroke-linecap="round" stroke-linejoin="round"/>
<path d="M192.29 46.77H92.15V50.59H192.29V46.77Z" fill="white" stroke="#262626" stroke-width="1.1" stroke-linecap="round" stroke-linejoin="round"/>
<path d="M215.73 62.8201L212.4 102.78L201.8 229.77L198.31 271.65C198.15 273.56 196.55 275.03 194.63 275.03H89.8C87.88 275.03 86.28 273.56 86.12 271.65L82.63 229.77L72.03 102.78L68.7 62.8201H215.73Z" fill="#2D2D2D" stroke="white" stroke-width="1.1" stroke-linecap="round" stroke-linejoin="round"/>
<path d="M217.47 50.5601H66.04C64.67 50.5601 63.47 51.4701 63.09 52.7901L60.22 62.8201H223.29L220.42 52.7901C220.04 51.4701 218.84 50.5601 217.47 50.5601Z" fill="white" stroke="#262626" stroke-width="1.1" stroke-linecap="round" stroke-linejoin="round"/>
<path d="M134.28 50.5601H89.66L87.32 62.8201H133.84L134.28 50.5601Z" fill="white" stroke="#262626" stroke-width="1.1" stroke-linecap="round" stroke-linejoin="round"/>
<path d="M212.4 102.89L201.8 229.88H82.63L72.02 102.89H212.4Z" fill="#2D2D2D" stroke="white" stroke-width="1.1" stroke-linecap="round" stroke-linejoin="round"/>
<path d="M171.56 151.76C162.07 164.42 137.81 170.74 127.26 154.92C119.85 162.33 106.67 163.95 97.72 158.3V216.88H186.51V159.1C180.94 159.27 175.69 157.26 171.56 151.76Z" fill="#966D42"/>
<path d="M180.72 116.63H103.51V216.88H180.72V116.63Z" fill="#525252" stroke="white" stroke-width="1.1" stroke-linecap="round" stroke-linejoin="round"/>
<path d="M72.69 117.49H88.02V124.31C88.02 127.55 85.39 130.19 82.14 130.19H78.56C75.32 130.19 72.68 127.56 72.68 124.31V117.49H72.69Z" fill="white" stroke="#262626" stroke-width="1.1" stroke-linecap="round" stroke-linejoin="round"/>
<path d="M88.03 117.49H103.36V124.31C103.36 127.55 100.73 130.19 97.48 130.19H93.9C90.66 130.19 88.02 127.56 88.02 124.31V117.49H88.03Z" fill="#AFE239" stroke="#262626" stroke-miterlimit="10"/>
<path d="M103.36 117.49H118.69V124.31C118.69 127.55 116.06 130.19 112.81 130.19H109.23C105.99 130.19 103.35 127.56 103.35 124.31V117.49H103.36Z" fill="white" stroke="#262626" stroke-width="1.1" stroke-linecap="round" stroke-linejoin="round"/>
<path d="M118.7 117.49H134.03V124.31C134.03 127.55 131.4 130.19 128.15 130.19H124.57C121.33 130.19 118.69 127.56 118.69 124.31V117.49H118.7Z" fill="#AFE239" stroke="#262626" stroke-miterlimit="10"/>
<path d="M134.03 117.49H149.36V124.31C149.36 127.55 146.73 130.19 143.48 130.19H139.9C136.66 130.19 134.02 127.56 134.02 124.31V117.49H134.03Z" fill="white" stroke="#262626" stroke-width="1.1" stroke-linecap="round" stroke-linejoin="round"/>
<path d="M149.37 117.49H164.7V124.31C164.7 127.55 162.07 130.19 158.82 130.19H155.24C152 130.19 149.36 127.56 149.36 124.31V117.49H149.37Z" fill="#AFE239" stroke="#262626" stroke-miterlimit="10"/>
<path d="M164.7 117.49H180.03V124.31C180.03 127.55 177.4 130.19 174.15 130.19H170.57C167.33 130.19 164.69 127.56 164.69 124.31V117.49H164.7Z" fill="white" stroke="#262626" stroke-width="1.1" stroke-linecap="round" stroke-linejoin="round"/>
<path d="M195.37 117.49H210.7V124.31C210.7 127.55 208.07 130.19 204.82 130.19H201.24C198 130.19 195.36 127.56 195.36 124.31V117.49H195.37Z" fill="white" stroke="#262626" stroke-width="1.1" stroke-linecap="round" stroke-linejoin="round"/>
<path d="M180.04 117.49H195.37V124.31C195.37 127.55 192.74 130.19 189.49 130.19H185.91C182.67 130.19 180.03 127.56 180.03 124.31V117.49H180.04Z" fill="#AFE239" stroke="#262626" stroke-miterlimit="10"/>
<path d="M96.5 102.95H83.58L72.69 117.49H88.03L96.5 102.95Z" fill="white" stroke="#262626" stroke-width="1.1" stroke-linecap="round" stroke-linejoin="round"/>
<path d="M109.41 102.95H96.5L88.03 117.49H103.36L109.41 102.95Z" fill="#AFE239" stroke="#262626" stroke-miterlimit="10"/>
<path d="M122.33 102.95H109.41L103.36 117.49H118.7L122.33 102.95Z" fill="white" stroke="#262626" stroke-width="1.1" stroke-linecap="round" stroke-linejoin="round"/>
<path d="M135.24 102.95H122.33L118.7 117.49H134.03L135.24 102.95Z" fill="#AFE239" stroke="#262626" stroke-miterlimit="10"/>
<path d="M148.16 102.95H135.24L134.03 117.49H149.37L148.16 102.95Z" fill="white" stroke="#262626" stroke-width="1.1" stroke-linecap="round" stroke-linejoin="round"/>
<path d="M161.07 102.95H148.16L149.37 117.49H164.7L161.07 102.95Z" fill="#AFE239" stroke="#262626" stroke-miterlimit="10"/>
<path d="M173.99 102.95H161.07L164.7 117.49H180.04L173.99 102.95Z" fill="white" stroke="#262626" stroke-width="1.1" stroke-linecap="round" stroke-linejoin="round"/>
<path d="M186.9 102.95H173.99L180.04 117.49H195.37L186.9 102.95Z" fill="#AFE239" stroke="#262626" stroke-miterlimit="10"/>
<path d="M199.81 102.95H186.9L195.37 117.49H210.71L199.81 102.95Z" fill="white" stroke="#262626" stroke-width="1.1" stroke-linecap="round" stroke-linejoin="round"/>
<path d="M156.835 194.139L155.845 194L155.198 198.615L156.188 198.754L156.835 194.139Z" fill="#3A5432"/>
<path d="M159.91 197.62H151.49V197.94H159.91V197.62Z" fill="#F6EDD8"/>
<path d="M161.88 198.97L161.6 202.33L160.71 213.01L160.39 216.82H151.01L150.69 213.01L149.8 202.33L149.52 198.97H161.88Z" fill="#8C633F"/>
<path d="M154.75 202.33H151.42L151.22 198.97H154.71L154.75 202.33Z" fill="#976D48"/>
<path d="M154.95 216.82H152.3L152.07 213.01H154.9L154.95 216.82Z" fill="#976D48"/>
<path d="M162.22 197.94H149.1L148.8 198.97H162.52L162.22 197.94Z" fill="#E7D9B3"/>
<path d="M155.2 197.94H151.28L151.08 198.97H154.99L155.2 197.94Z" fill="#EDE2C5"/>
<path d="M161.6 202.34L160.71 213.02H150.69L149.8 202.34H161.6Z" fill="#CCA777"/>
<path d="M154.9 213.01H152.07L151.42 202.33H154.75L154.9 213.01Z" fill="#D2B181"/>
<path d="M45.07 275.03H234.93" stroke="#1A2E35" stroke-width="1.1" stroke-linecap="round" stroke-linejoin="round"/>
<path d="M183.72 225.02H187.26V234.86C187.26 242.82 186.25 250.76 184.27 258.47L180.9 275.03H177.04L180.57 258.07C182.58 250.41 183.62 242.53 183.66 234.62L183.72 225.02Z" fill="white" stroke="#1A2E35" stroke-width="1.1" stroke-linecap="round" stroke-linejoin="round"/>
<path d="M198.57 225.02H202.11V234.86C202.11 242.82 201.1 250.76 199.12 258.47L195.75 275.03H191.89L195.42 258.07C197.43 250.41 198.47 242.53 198.51 234.62L198.57 225.02Z" fill="#1A2E35" stroke="#1A2E35" stroke-width="1.1" stroke-linecap="round" stroke-linejoin="round"/>
<path d="M223.89 225.02H220.35V234.86C220.35 242.82 221.36 250.76 223.34 258.47L226.71 275.03H230.57L227.04 258.07C225.03 250.41 223.99 242.53 223.95 234.62L223.89 225.02Z" fill="white" stroke="#1A2E35" stroke-width="1.1" stroke-linecap="round" stroke-linejoin="round"/>
<path d="M208.11 225.02H204.57V234.86C204.57 242.82 205.58 250.76 207.56 258.47L210.93 275.03H214.79L211.26 258.07C209.25 250.41 208.21 242.53 208.17 234.62L208.11 225.02Z" fill="white" stroke="#1A2E35" stroke-width="1.1" stroke-linecap="round" stroke-linejoin="round"/>
<path d="M208.82 225.02H205.28L204.56 205.23H208.11L208.82 225.02Z" fill="white" stroke="#1A2E35" stroke-width="1.1" stroke-linecap="round" stroke-linejoin="round"/>
<path d="M215.1 225.02H218.65L219.36 205.23H215.81L215.1 225.02Z" fill="white" stroke="#1A2E35" stroke-width="1.1" stroke-linecap="round" stroke-linejoin="round"/>
<path d="M230.57 225.02H176.68V233.17H230.57V225.02Z" fill="white" stroke="#1A2E35" stroke-width="1.1" stroke-linecap="round" stroke-linejoin="round"/>
<path d="M233.05 183.69C231.08 198.49 227.99 215.82 227.88 225.02H224.52C224.95 218.45 226.26 206.08 227.64 196.78C228.31 192.27 229 187.6 229.58 183.22C230.58 175.7 228.88 168.59 225.04 164.21C223.52 162.48 220.96 160.4 217.4 160.4C207.91 160.4 200.97 169.67 199.55 184.01C197.57 203.95 200.76 224.73 200.79 225.02H197.22C197.07 221.14 194.16 203.71 196.05 183.69C197.75 165.72 207.34 156.9 217.39 156.9C227.44 156.9 235.02 168.88 233.05 183.69Z" fill="white" stroke="#1A2E35" stroke-width="1.1" stroke-linecap="round" stroke-linejoin="round"/>
<path d="M216 164.99C207.77 164.99 199.16 174.48 199.16 188.6C199.16 202.72 205.46 208.69 212.55 208.69C220.01 208.69 227.59 202.74 228.82 188.66C229.94 175.85 225.01 164.99 216 164.99Z" fill="white" stroke="#1A2E35" stroke-width="1.1" stroke-linecap="round" stroke-linejoin="round"/>
<path d="M211.46 206.21C218.07 206.21 224.79 200.93 225.88 188.45C226.87 177.09 222.5 167.46 214.52 167.46" stroke="#1A2E35" stroke-width="1.1" stroke-linecap="round" stroke-linejoin="round"/>
<path d="M208.5 251.47L213.2 256.94L193.44 273.91L194.96 263.1L208.5 251.47Z" fill="#AC4EFE"/>
<path d="M187.61 257.35L194.96 263.1L208.5 251.47L202.12 244.99L187.61 257.35Z" fill="#FFD9C3" stroke="#1A2E35" stroke-width="1.1" stroke-linecap="round" stroke-linejoin="round"/>
<path d="M200.83 260.22L196.56 263.79" stroke="#1A2E35" stroke-width="1.1" stroke-linecap="round" stroke-linejoin="round"/>
<path d="M201.45 261.81L197.19 265.38" stroke="#1A2E35" stroke-width="1.1" stroke-linecap="round" stroke-linejoin="round"/>
<path d="M175.51 196.96L173.85 199.05C168.23 199.13 159.75 199.01 156.96 200.13C152.7 201.84 146.59 207.69 148.54 216.54C150.85 227.02 181.08 254.16 181.74 255.2C183.89 258.56 186.12 259.45 186.12 259.45C189.41 255.2 194.23 254.45 197.33 253.17C200.43 251.89 203.47 246.1 204.97 245.9C206.47 245.7 206.87 246.6 206.87 246.6C206.87 246.6 197.61 230.94 192.22 225.16C188.3 220.96 179.45 217.75 179.45 217.75C179.45 217.75 199.15 223.29 204.47 215.15C208.92 208.35 204.67 196.99 204.67 196.99L175.51 196.97V196.96Z" fill="white" stroke="#1A2E35" stroke-width="1.1" stroke-linecap="round" stroke-linejoin="round"/>
<path d="M205.5 248.32C205.5 248.32 207.14 247.38 207.28 246.78C207.42 246.18 205.99 245.92 203.71 246.66L205.5 248.32Z" fill="#1A2E35"/>
<path d="M188.41 257.69L189.4 258.81C189.4 258.81 186.52 260.52 185.95 259.98C185.38 259.44 186.55 258.08 188.41 257.69Z" fill="#1A2E35"/>
<path d="M201.76 267.4L201.81 274.61L175.76 274.79L183.91 267.52L201.76 267.4Z" fill="#AC4EFE"/>
<path d="M182.01 258.38L183.91 267.52L201.76 267.4L201.08 258.33L182.01 258.38Z" fill="#FFD9C3" stroke="#1A2E35" stroke-width="1.1" stroke-linecap="round" stroke-linejoin="round"/>
<path d="M190.25 269.12L184.68 269.09" stroke="#1A2E35" stroke-width="1.1" stroke-linecap="round" stroke-linejoin="round"/>
<path d="M189.7 270.73L184.13 270.7" stroke="#1A2E35" stroke-width="1.1" stroke-linecap="round" stroke-linejoin="round"/>
<path d="M186.26 196.96H188.8L188.49 199.65C188.49 199.65 187.26 199.58 185.44 199.59L186.27 196.96H186.26Z" fill="white"/>
<path d="M181.36 262.09C181.42 262.11 181.48 262.12 181.55 262.14C181.51 262.16 181.46 262.19 181.42 262.22C181.42 262.22 181.4 262.18 181.36 262.1V262.09Z" fill="white"/>
<path d="M184.37 199.6C184.74 199.6 185.09 199.59 185.43 199.59L185.4 199.65C185.4 199.65 185.02 199.63 184.37 199.61V199.6Z" fill="white"/>
<path d="M186.26 196.96H215.53C219.58 211.09 216.22 220.61 210.44 223.59C204.2 226.81 195.26 224.85 194.15 225.88C194.15 225.88 195.09 227.16 197.16 232.21C200.87 241.25 199.56 247.35 204.56 258.74C205.57 261.04 203.29 261.66 203.29 261.66C203.29 259.61 199.66 259.13 189.22 262.02C182.47 263.89 180.74 260.79 178.33 262.21C178.35 262.25 164.93 229.53 164.93 213.31C164.93 207.86 168.76 203.93 170.18 202.65C174.38 198.9 185.4 199.64 185.4 199.64L186.26 196.95V196.96Z" fill="white" stroke="#1A2E35" stroke-width="1.1" stroke-linecap="round" stroke-linejoin="round"/>
<path d="M201.51 262.69C201.51 262.69 203.23 262.57 203.61 262.08C203.99 261.59 203.37 260.81 201.08 260.37L201.51 262.69Z" fill="#1A2E35"/>
<path d="M182.68 262.36L183.13 263.79C183.13 263.79 178.3 263.49 178 262.76C177.7 262.03 180.83 261.96 182.68 262.36Z" fill="#1A2E35"/>
<path d="M194.14 225.87C192.5 222.24 187.6 219.27 187.6 219.27" stroke="#1A2E35" stroke-width="1.1" stroke-linecap="round" stroke-linejoin="round"/>
<path d="M162.75 195.38C160.83 196.29 156.5 195.94 156.43 195.93C153.6 195.79 150.2 197.67 149.87 195.44C149.64 193.88 147.84 193.23 147.72 191.18C147.62 189.52 148.17 188.34 148.17 186.61C148.17 184.57 149.96 184.81 155.56 183.07C156.1 182.9 158.33 182.98 161.24 183.13L162.75 195.38Z" fill="#FFD9C3" stroke="#1A2E35" stroke-width="1.1" stroke-linecap="round" stroke-linejoin="round"/>
<path d="M159.02 183.15C159.02 183.15 156.04 181.86 155.06 181.37C154.15 180.91 152.84 180.06 152.29 179.75C151 179.04 149.67 180.35 151.34 182.67C152.21 183.88 152.33 183.68 153.65 185.22C153.65 185.22 153.38 188.13 155.64 190" fill="#FFD9C3"/>
<path d="M159.02 183.15C159.02 183.15 156.04 181.86 155.06 181.37C154.15 180.91 152.84 180.06 152.29 179.75C151 179.04 149.67 180.35 151.34 182.67C152.21 183.88 152.33 183.68 153.65 185.22C153.65 185.22 153.38 188.13 155.64 190" stroke="#1A2E35" stroke-width="1.1" stroke-linecap="round" stroke-linejoin="round"/>
<path d="M188.21 155.74C188.21 155.74 184.29 155.24 179.82 158.83C174.87 162.81 174.67 175.48 173.7 176.73C173.7 176.73 160.67 180.7 160.13 180.53C159.59 180.36 158.6 182.41 160.1 187.17C162.75 195.55 162.03 196.27 160.04 196.76C160.04 196.76 161.68 198.05 164.03 197.69C168.43 197.01 181.96 194.22 185.71 192.26C188.81 190.63 190.33 172.3 190.33 172.3" fill="#AC4EFE"/>
<path d="M151.86 195.4C152.66 196.22 153.97 196.7 155.31 196.26C155.49 196.2 155.67 196.12 155.86 196.03C156.48 197.16 157.36 198.03 158.65 198.3C159.44 198.46 160.54 198.42 161.73 198.42C162.92 198.42 164.02 198.46 164.81 198.3C166.96 197.86 167.95 195.74 168.57 193.57C169.37 190.77 169.86 186.78 169.86 186.78H153.58C153.58 186.78 153.68 187.58 153.86 188.72C153.52 188.69 153.11 188.65 152.69 188.67C151.99 188.7 151.28 188.89 150.89 189.47C149.76 191.19 150.68 194.21 151.84 195.41L151.86 195.4ZM152.03 190.11C152.07 190.03 152.3 189.89 153.26 189.94C153.44 189.95 153.64 189.97 153.87 189.99C153.96 189.99 154.03 190.01 154.1 190.02C154.31 191.17 154.58 192.46 154.89 193.56C155.02 194.01 155.16 194.45 155.32 194.88C154.03 195.62 153.05 194.73 152.85 194.52C151.92 193.57 151.33 191.17 152.03 190.11Z" fill="#AFE239" stroke="#262626" stroke-miterlimit="10"/>
<path d="M148.65 192.03C148.65 192.03 146.65 194.43 147.66 196.23C149.08 198.76 153.55 197.97 153.41 196.28C153.29 194.84 149.5 194.37 149.5 194.37" fill="#FFD9C3"/>
<path d="M148.65 192.03C148.65 192.03 146.65 194.43 147.66 196.23C149.08 198.76 153.55 197.97 153.41 196.28C153.29 194.84 149.5 194.37 149.5 194.37" stroke="#1A2E35" stroke-width="1.1" stroke-linecap="round" stroke-linejoin="round"/>
<path d="M148.83 188.85C148.83 188.85 146.4 191.01 147.16 193.03C148.24 195.85 152.96 195.73 153.08 193.97C153.18 192.47 149.35 191.4 149.35 191.4" fill="#FFD9C3"/>
<path d="M148.83 188.85C148.83 188.85 146.4 191.01 147.16 193.03C148.24 195.85 152.96 195.73 153.08 193.97C153.18 192.47 149.35 191.4 149.35 191.4" stroke="#1A2E35" stroke-width="1.1" stroke-linecap="round" stroke-linejoin="round"/>
<path d="M149.65 184.78C147.55 185.58 145.5 187.42 146.27 189.44C147.35 192.26 152.97 192.37 153.24 190.89C153.61 188.85 149.35 187.69 149.35 187.69" fill="#FFD9C3"/>
<path d="M149.65 184.78C147.55 185.58 145.5 187.42 146.27 189.44C147.35 192.26 152.97 192.37 153.24 190.89C153.61 188.85 149.35 187.69 149.35 187.69" stroke="#1A2E35" stroke-width="1.1" stroke-linecap="round" stroke-linejoin="round"/>
<path d="M181.03 169.94C180.64 175.94 177.38 189.39 176.79 194.23C176.2 199.07 178.07 198.96 178.07 198.96C179.06 197.99 189.5 200.21 196.12 200.41C208.43 200.78 218.78 196.97 218.78 196.97C220.62 198.14 215.83 183.55 215.58 181.61C214.17 170.93 212.57 161.28 206.77 157.52C202.03 154.44 199.33 155.73 194.05 155.83C189.74 155.91 188.2 155.74 185.78 157.69C181.5 161.15 181.22 167.07 181.03 169.95V169.94Z" fill="white" stroke="#1A2E35" stroke-width="1.1" stroke-linecap="round" stroke-linejoin="round"/>
<path d="M188.04 156C188.04 156 185.77 162.75 184.68 169.97C183.58 177.19 180.45 199.75 180.45 199.75L172.88 200.8C173.02 198.8 175.61 190.9 176.47 186.49C177.08 183.37 177.86 175.67 179.56 168.93C180.8 164.02 182.05 158.99 184.6 156.9C184.97 156.6 186.61 156.28 188.04 156Z" fill="#AC4EFE"/>
<path d="M188.22 155.82C188.22 155.82 185.77 162.75 184.67 169.97C183.57 177.19 180.44 199.75 180.44 199.75L172.87 200.8C173.01 198.8 175.6 190.9 176.46 186.49C177.07 183.37 178.1 176.19 179.55 169.37" stroke="#1A2E35" stroke-width="1.1" stroke-linecap="round" stroke-linejoin="round"/>
<path d="M222.98 208.95C222.37 207.19 220.02 207.73 220.02 207.73L220.56 209.97C220.56 209.97 223.28 209.81 222.98 208.95Z" fill="#1A2E35"/>
<path d="M198.51 155.31C198.51 155.31 197.03 168.55 196.93 177.01C196.8 187.51 200.4 211.43 200.4 211.43C200.4 211.43 205.64 213.12 219.5 208.32C224.25 206.67 222.42 209.06 222.42 209.06C222.42 209.06 225.62 207.06 225.07 203.56C224.52 200.06 218.92 185.72 218.57 184.06C218.21 182.4 214.44 163.77 209.9 158.81C206.83 155.46 198.52 155.32 198.52 155.32L198.51 155.31Z" fill="#AC4EFE"/>
<path d="M222.42 209.04C222.49 208.95 223.42 207.67 221.9 207.73C222.61 206.79 223.25 205.43 222.98 203.7C222.42 200.17 216.78 185.73 216.43 184.05C216.07 182.38 212.27 163.61 207.7 158.61C205.77 156.5 201.77 155.65 199.05 155.32C200.93 155.42 207.3 155.95 209.9 158.79C214.44 163.75 218.21 182.38 218.57 184.04C218.92 185.7 224.52 200.04 225.07 203.54C225.61 206.96 222.57 208.95 222.42 209.03V209.04Z" fill="white"/>
<path d="M198.51 155.31C198.51 155.31 197.03 168.55 196.93 177.01C196.8 187.51 200.4 211.43 200.4 211.43C200.4 211.43 205.64 213.12 219.5 208.32C224.25 206.67 222.42 209.06 222.42 209.06C222.42 209.06 225.62 207.06 225.07 203.56C224.52 200.06 218.92 185.72 218.57 184.06C218.21 182.4 214.44 163.77 209.9 158.81C206.83 155.46 198.52 155.32 198.52 155.32L198.51 155.31Z" stroke="#1A2E35" stroke-width="1.1" stroke-linecap="round" stroke-linejoin="round"/>
<path d="M208.61 193.75C208.61 193.75 211.01 199 218.78 198.45" stroke="#1A2E35" stroke-width="1.1" stroke-linecap="round" stroke-linejoin="round"/>
<path d="M190.14 156.53C190.14 156.53 188.27 159.69 190.03 159.96C192.79 160.38 196.29 155.84 196.29 155.84L190.15 156.53H190.14Z" fill="#1A2E35"/>
<path d="M185.03 147.63C184.27 152.27 186.83 156.54 190.73 157.18C194.64 157.82 198.41 154.58 199.17 149.94C199.93 145.3 197.37 141.03 193.47 140.39C189.56 139.75 185.79 142.99 185.03 147.63Z" fill="#FFD9C3"/>
<path d="M185.03 147.63C184.27 152.27 186.83 156.54 190.73 157.18C194.64 157.82 198.41 154.58 199.17 149.94C199.93 145.3 197.37 141.03 193.47 140.39C189.56 139.75 185.79 142.99 185.03 147.63Z" stroke="#1A2E35" stroke-width="1.59" stroke-linecap="round" stroke-linejoin="round"/>
<path d="M198.91 150.42C198.91 150.42 195.83 149.6 195.24 146.5C195.24 146.5 190.34 146.37 190.4 142.48C190.4 142.48 187.94 144.12 186.65 142.89C186.65 142.89 190.5 137.33 195.94 140.96C201.38 144.59 198.92 150.42 198.92 150.42H198.91Z" fill="#1A2E35"/>
<path d="M184.61 141.09C184.93 142.53 186.36 143.44 187.8 143.12C189.24 142.8 190.15 141.37 189.83 139.93C189.51 138.49 188.08 137.58 186.64 137.9C185.2 138.22 184.29 139.65 184.61 141.09Z" fill="#1A2E35"/>
<path d="M190.94 138.73C191.44 139.48 192.67 138.48 193.8 138.58C194.92 138.68 195.99 139.35 196.37 138.78C196.64 138.37 196 136.67 193.48 136.74C191.61 136.79 190.64 138.3 190.94 138.74V138.73Z" fill="#1A2E35"/>
<path d="M189.8 180.65C188.95 180.41 185.81 178.76 182.36 178.06C170.67 175.68 167.43 181.5 169.61 181.95C169.61 181.95 168.62 182.32 168.65 183.78C168.65 184.11 169.27 185.68 171.77 184.71C171.77 184.71 169.62 186.05 170.88 187.18C171.87 188.07 173.61 186.98 177.21 187.81C178.35 189.21 181.12 191.16 183.98 192.02C185.03 192.34 187.74 192.87 187.45 192.78C188.02 192.94 192.49 184.76 189.8 180.64V180.65Z" fill="#FFD9C3" stroke="#1A2E35" stroke-width="1.1" stroke-linecap="round" stroke-linejoin="round"/>
<path d="M171.78 184.71C173.26 184.07 176.17 183.69 176.17 183.69" stroke="#1A2E35" stroke-width="1.1" stroke-linecap="round" stroke-linejoin="round"/>
<path d="M169.62 181.95C171.07 181.13 174.97 180.42 174.97 180.42" stroke="#1A2E35" stroke-width="1.1" stroke-linecap="round" stroke-linejoin="round"/>
<path d="M200.83 155.47C210.78 156.56 215.36 160.97 215.73 166.74C216.35 176.39 215 193.42 211 196.91C210.46 197.38 206.92 199.7 202.73 198.75C198.93 197.89 190.08 196.33 186.25 195.12C184.28 194.5 183.34 193.28 183.34 193.28C183.34 193.28 185.7 192.99 186.31 186.94C186.97 180.38 188.59 178.84 188.59 178.84C188.59 178.84 199.18 181.17 202.85 182.42" fill="#AC4EFE"/>
<path d="M211 196.92C210.57 197.3 208.25 198.83 205.21 198.97C207.3 198.48 208.78 197.47 209.12 197.18C213.12 193.68 214.46 176.66 213.85 167.01C213.57 162.7 211.1 158.62 205.71 156.38C212.3 158.21 215.43 162.02 215.73 166.75C216.35 176.4 215 193.43 211 196.92Z" fill="white"/>
<path d="M200.83 155.47C210.78 156.56 215.36 160.97 215.73 166.74C216.35 176.39 215 193.42 211 196.91C210.46 197.38 206.92 199.7 202.73 198.75C198.93 197.89 190.08 196.33 186.25 195.12C184.28 194.5 183.34 193.28 183.34 193.28C183.34 193.28 185.7 192.99 186.31 186.94C186.97 180.38 188.59 178.84 188.59 178.84C188.59 178.84 199.18 181.17 202.85 182.42" stroke="#1A2E35" stroke-width="1.1" stroke-linecap="round" stroke-linejoin="round"/>
<path d="M199.17 181.18C199.17 181.18 200.04 175.37 200.38 172.29" stroke="#1A2E35" stroke-width="1.1" stroke-linecap="round" stroke-linejoin="round"/>
<path d="M183.1 193.66C182.19 193.57 183.26 191.36 183.26 191.36L185.04 191.8C185.04 191.8 183.87 193.73 183.11 193.66H183.1Z" fill="#1A2E35"/>
<path d="M97.1 225.02H93.56V234.86C93.56 242.82 94.57 250.76 96.55 258.47L99.92 275.03H103.78L100.25 258.07C98.24 250.41 97.2 242.53 97.16 234.62L97.1 225.02Z" fill="white" stroke="#1A2E35" stroke-width="1.1" stroke-linecap="round" stroke-linejoin="round"/>
<path d="M82.24 225.02H78.7V234.86C78.7 242.82 79.71 250.76 81.69 258.47L85.06 275.03H88.92L85.39 258.07C83.38 250.41 82.34 242.53 82.3 234.62L82.24 225.02Z" fill="#1A2E35" stroke="#1A2E35" stroke-width="1.1" stroke-linecap="round" stroke-linejoin="round"/>
<path d="M56.92 225.02H60.46V234.86C60.46 242.82 59.45 250.76 57.47 258.47L54.1 275.03H50.24L53.77 258.07C55.78 250.41 56.82 242.53 56.86 234.62L56.92 225.02Z" fill="white" stroke="#1A2E35" stroke-width="1.1" stroke-linecap="round" stroke-linejoin="round"/>
<path d="M72.71 225.02H76.25V234.86C76.25 242.82 75.24 250.76 73.26 258.47L69.89 275.03H66.03L69.56 258.07C71.57 250.41 72.61 242.53 72.65 234.62L72.71 225.02Z" fill="white" stroke="#1A2E35" stroke-width="1.1" stroke-linecap="round" stroke-linejoin="round"/>
<path d="M72 225.02H75.54L76.25 205.23H72.71L72 225.02Z" fill="white" stroke="#1A2E35" stroke-width="1.1" stroke-linecap="round" stroke-linejoin="round"/>
<path d="M65.71 225.02H62.17L61.46 205.23H65L65.71 225.02Z" fill="white" stroke="#1A2E35" stroke-width="1.1" stroke-linecap="round" stroke-linejoin="round"/>
<path d="M104.14 225.02H50.25V233.17H104.14V225.02Z" fill="white" stroke="#1A2E35" stroke-width="1.1" stroke-linecap="round" stroke-linejoin="round"/>
<path d="M47.77 183.69C49.74 198.49 52.83 215.82 52.94 225.02H56.3C55.87 218.45 54.56 206.08 53.18 196.78C52.51 192.27 51.82 187.6 51.24 183.22C50.24 175.7 51.94 168.59 55.78 164.21C57.3 162.48 59.86 160.4 63.42 160.4C72.91 160.4 79.85 169.67 81.27 184.01C83.25 203.95 80.06 224.73 80.03 225.02H83.6C83.75 221.14 86.66 203.71 84.77 183.69C83.07 165.72 73.48 156.9 63.43 156.9C53.38 156.9 45.8 168.88 47.77 183.69Z" fill="white" stroke="#1A2E35" stroke-width="1.1" stroke-linecap="round" stroke-linejoin="round"/>
<path d="M64.81 164.99C73.04 164.99 81.65 174.48 81.65 188.6C81.65 202.72 75.35 208.69 68.26 208.69C60.8 208.69 53.22 202.74 51.99 188.66C50.87 175.85 55.8 164.99 64.81 164.99Z" fill="white" stroke="#1A2E35" stroke-width="1.1" stroke-linecap="round" stroke-linejoin="round"/>
<path d="M69.36 206.21C62.75 206.21 56.03 200.93 54.94 188.45C53.95 177.09 58.32 167.46 66.3 167.46" stroke="#1A2E35" stroke-width="1.1" stroke-linecap="round" stroke-linejoin="round"/>
<path d="M90.72 267.79V275.03H94.91L95.62 272.84L98.65 275.03H116.88L108.64 267.79H90.72Z" fill="#AC4EFE"/>
<path d="M109.51 258.49L108.64 267.79C108.64 267.79 111.46 271.41 109.24 272.35C106.9 273.34 90.71 267.79 90.71 267.79L89.75 258.8L109.51 258.49Z" fill="#C6856A" stroke="#1A2E35" stroke-width="1.1" stroke-linecap="round" stroke-linejoin="round"/>
<path d="M75.76 225.54C53.09 225.74 60.04 199.75 61.76 198.62H81.05C81.05 198.62 82.84 202.1 84.9 202.61C103.03 207.12 107.32 211.17 108.84 214.05C113.66 223.2 112.19 261.17 112.19 261.17C108.18 263.52 103.8 263.91 95.29 262.18C87.24 260.55 88.69 264.4 88.69 264.4C88.69 264.4 87.12 264.18 86.84 261.87C85.95 254.52 84.73 239.68 85.01 233.89C85.17 230.6 86.6 225.59 86.6 225.59C87.42 223.53 82.75 225.48 75.78 225.54H75.76Z" fill="#AC4EFE"/>
<path d="M90.49 265.08L90.39 262.2C90.39 262.2 88.16 263.32 87.97 264.05C87.79 264.78 89.19 265.25 90.49 265.08Z" fill="#1A2E35"/>
<path d="M122.2 253.94L122.67 261.17L126.85 260.9L127.42 258.66L130.59 260.66L148.78 259.48L140.09 252.78L122.2 253.94Z" fill="#AC4EFE"/>
<path d="M136.04 244.34L140.09 252.79C140.09 252.79 143.14 256.22 140.98 257.3C138.71 258.44 122.2 253.95 122.2 253.95L116.64 245.6L136.04 244.35V244.34Z" fill="#C6856A" stroke="#1A2E35" stroke-width="1.1" stroke-linecap="round" stroke-linejoin="round"/>
<path d="M88.65 198.62H60.01C56.11 212.23 59.82 221.2 65.35 224.18C69.27 226.28 77.51 226.39 83.82 223.92C90.55 221.28 93.03 213.81 100.52 213.81C114.14 213.81 108.43 230.3 113.09 249.85C113.97 253.54 119.43 252.87 119.43 252.87C119.43 252.87 113.99 251.13 130.18 249.12C139.25 248 139.99 242.9 139.99 242.9C139.99 242.9 127.99 203.43 112.71 198.62C103.78 195.81 89.47 200 89.47 200L88.64 198.62H88.65Z" fill="#AC4EFE"/>
<path d="M88.65 198.62H60.01C56.11 212.23 59.82 221.2 65.35 224.18C69.27 226.28 77.51 226.39 83.82 223.92C90.55 221.28 93.03 213.81 100.52 213.81C114.14 213.81 108.43 230.3 113.09 249.85C113.97 253.54 119.43 252.87 119.43 252.87C119.43 252.87 113.99 251.13 130.18 249.12C139.25 248 139.99 242.9 139.99 242.9C139.99 242.9 127.99 203.43 112.71 198.62C103.78 195.81 89.47 200 89.47 200L88.64 198.62H88.65Z" stroke="#1A2E35" stroke-width="1.1" stroke-linecap="round" stroke-linejoin="round"/>
<path d="M120.22 250.97L121.55 252.82C121.55 252.82 120.08 253.56 118.88 253.3C117.68 253.04 118.62 251.98 120.21 250.97H120.22Z" fill="#1A2E35"/>
<path d="M86.63 142.27C77.09 143.8 74.53 164.65 86.01 174.12C97.49 183.59 115.89 172.16 112.81 162.49C110.8 156.17 104.31 158.71 99.88 153C95.44 147.29 93.7 141.13 86.63 142.27Z" fill="#1A2E35"/>
<path d="M119.82 185.26C123.06 182.41 125.21 180.98 125.5 180.81C127.57 179.56 132.77 177.19 132.76 174.92C132.76 173.89 132.05 173.26 132.05 173.26C132.05 173.26 133.14 172.07 132.61 171.04C132.15 170.14 130.51 170.44 130.51 170.44C130.51 170.44 131.75 169.29 131.12 168.23C130.07 166.46 120.12 169.02 119.9 169.09C117.74 169.78 111.79 174.45 111.79 174.45L119.83 185.27L119.82 185.26Z" fill="#C6856A" stroke="#1A2E35" stroke-width="1.1" stroke-linecap="round" stroke-linejoin="round"/>
<path d="M116.76 170.82C116.76 170.82 119 168.65 119.62 167.72C120.2 166.86 120.92 165.47 121.26 164.92C122.04 163.66 123.86 164.15 123.55 167.02C123.39 168.51 123.18 168.39 122.79 170.41C122.79 170.41 124.47 172.83 123.4 175.59" fill="#C6856A"/>
<path d="M116.76 170.82C116.76 170.82 119 168.65 119.62 167.72C120.2 166.86 120.92 165.47 121.26 164.92C122.04 163.66 123.86 164.15 123.55 167.02C123.39 168.51 123.18 168.39 122.79 170.41C122.79 170.41 124.47 172.83 123.4 175.59" stroke="#1A2E35" stroke-width="1.1" stroke-linecap="round" stroke-linejoin="round"/>
<path d="M131.92 173.38C130.9 174.65 127.46 176.01 127.46 176.01L131.92 173.38Z" fill="#A25A3B"/>
<path d="M131.92 173.38C130.9 174.65 127.46 176.01 127.46 176.01" stroke="#1A2E35" stroke-width="1.1" stroke-linecap="round" stroke-linejoin="round"/>
<path d="M130.76 170.29C128.97 171.37 126.03 172.4 126.03 172.4L130.76 170.29Z" fill="#A25A3B"/>
<path d="M130.76 170.29C128.97 171.37 126.03 172.4 126.03 172.4" stroke="#1A2E35" stroke-width="1.1" stroke-linecap="round" stroke-linejoin="round"/>
<path d="M93.28 158.95C99.67 160.1 104.97 162.71 108.83 176.16L114.97 170.91C119.52 173.61 120.96 179.85 123.3 182.03C124.63 183.27 125.62 181.55 125.62 181.55C125.62 181.55 126.51 183.33 124.99 184.39C124.1 185.01 113.28 195.15 106.95 194.16C98.3 192.81 93.81 178.13 92.62 174.34C91.43 170.54 91.31 158.6 93.29 158.96L93.28 158.95Z" fill="white" stroke="#1A2E35" stroke-width="1.1" stroke-linecap="round" stroke-linejoin="round"/>
<path d="M108.84 176.16C105.58 178.59 104.27 180.05 104.27 180.05" stroke="#1A2E35" stroke-width="1.1" stroke-linecap="round" stroke-linejoin="round"/>
<path d="M95.94 159.56C92.48 158.7 91.76 158.85 88.26 158.51C82.87 157.98 79.37 157.17 74.38 160.12C67.51 164.19 66.95 174.4 64.88 184.68C64.88 184.68 57.37 196.19 58.48 200C58.48 200 64.54 206.89 84.26 201.72C96.47 198.52 101.68 199.62 103.03 198.69L100.89 183.15C100.89 183.15 102.18 182.21 102.18 180.31C102.18 178.08 99.44 170.84 99.44 170.84" fill="white"/>
<path d="M95.94 159.56C92.48 158.7 91.76 158.85 88.26 158.51C82.87 157.98 79.37 157.17 74.38 160.12C67.51 164.19 66.95 174.4 64.88 184.68C64.88 184.68 57.37 196.19 58.48 200C58.48 200 64.54 206.89 84.26 201.72C96.47 198.52 101.68 199.62 103.03 198.69L100.89 183.15C100.89 183.15 102.18 182.21 102.18 180.31C102.18 178.08 99.44 170.84 99.44 170.84" stroke="#1A2E35" stroke-width="1.1" stroke-linecap="round" stroke-linejoin="round"/>
<path d="M95.88 182.8C95.88 182.8 90.32 182.03 85.26 183.37" stroke="#1A2E35" stroke-width="1.1" stroke-linecap="round" stroke-linejoin="round"/>
<path d="M90.43 184.05C90.43 184.05 92.92 184.14 94.61 184.84" stroke="#1A2E35" stroke-width="1.1" stroke-linecap="round" stroke-linejoin="round"/>
<path d="M79.74 171.66C78.74 179.95 77.54 194.48 74.75 196.63C69.75 200.48 63.02 196.75 62.08 192.23C61.28 188.37 64.8 169.57 68.35 163.85C70.21 160.84 75.13 158.09 81.11 157.99" fill="white"/>
<path d="M79.74 171.66C78.74 179.95 77.54 194.48 74.75 196.63C69.75 200.48 63.02 196.75 62.08 192.23C61.28 188.37 64.8 169.57 68.35 163.85C70.21 160.84 75.13 158.09 81.11 157.99" stroke="#1A2E35" stroke-width="1.1" stroke-linecap="round" stroke-linejoin="round"/>
<path d="M110.3 195.4C111.1 196.22 112.41 196.7 113.75 196.26C113.93 196.2 114.11 196.12 114.3 196.03C114.92 197.16 115.8 198.03 117.09 198.3C117.88 198.46 118.98 198.42 120.17 198.42C121.36 198.42 122.46 198.46 123.25 198.3C125.4 197.86 126.39 195.74 127.01 193.57C127.81 190.77 128.3 186.78 128.3 186.78H112.02C112.02 186.78 112.12 187.58 112.3 188.72C111.96 188.69 111.55 188.65 111.13 188.67C110.43 188.7 109.72 188.89 109.33 189.47C108.2 191.19 109.12 194.21 110.28 195.41L110.3 195.4ZM110.47 190.11C110.51 190.03 110.74 189.89 111.7 189.94C111.88 189.95 112.08 189.97 112.31 189.99C112.4 189.99 112.47 190.01 112.54 190.02C112.75 191.17 113.02 192.46 113.33 193.56C113.46 194.01 113.6 194.45 113.76 194.88C112.47 195.62 111.49 194.73 111.29 194.52C110.36 193.57 109.77 191.17 110.47 190.11Z" fill="#AFE239" stroke="#262626" stroke-miterlimit="10"/>
<path d="M94.32 187.35C106.78 182.99 115.64 190.93 112.93 191.35C112.93 191.35 114.55 192.43 114.18 193.37C113.2 195.88 108.88 191.77 105.76 192.53C105.76 192.53 112.2 195.7 111.26 197.22C110.35 198.68 108.13 197.26 104.11 196.31C102.65 197.79 97.63 200 94.93 198.38H88.73L90 187.31L94.33 187.36L94.32 187.35Z" fill="#C6856A" stroke="#1A2E35" stroke-width="1.1" stroke-linecap="round" stroke-linejoin="round"/>
<path d="M112.83 191.25C111.26 190.15 106.86 188.9 106.86 188.9" stroke="#1A2E35" stroke-width="1.1" stroke-linecap="round" stroke-linejoin="round"/>
<path d="M62.08 192.23C61.76 198.62 68.85 201.41 74.13 201.55C82.11 201.75 93.94 202.47 95.18 200.14C95.65 199.26 94.84 200.97 93.7 199.59C90.86 196.17 95.34 190.14 93.31 186.05C93.31 186.05 87.98 184.62 75.63 184.75" fill="white"/>
<path d="M62.08 192.23C61.76 198.62 68.85 201.41 74.13 201.55C82.11 201.75 93.94 202.47 95.18 200.14C95.65 199.26 94.84 200.97 93.7 199.59C90.86 196.17 95.34 190.14 93.31 186.05C93.31 186.05 87.98 184.62 75.63 184.75" stroke="#1A2E35" stroke-width="1.1" stroke-linecap="round" stroke-linejoin="round"/>
<path d="M95.65 199.98C96.17 199.5 94.96 197.93 94.96 197.93L92.84 198.28C92.84 198.28 94.46 201.07 95.65 199.98Z" fill="#1A2E35"/>
<path d="M79.7 158.42C79.7 158.42 84.69 169.27 90.63 170.61C96.57 171.95 95.31 159.39 95.31 159.39C95.31 159.39 85.53 157.89 79.7 158.43V158.42Z" fill="#C6856A" stroke="#1A2E35" stroke-width="1.1" stroke-linecap="round" stroke-linejoin="round"/>
<path d="M90.39 158.76C90.39 158.76 91.85 162.03 90.12 162.09C87.4 162.19 84.51 157.4 84.51 157.4L90.39 158.76Z" fill="#1A2E35"/>
<path d="M82.88 153.1C81.74 148.66 83.84 144.28 87.58 143.32C91.32 142.36 95.28 145.17 96.42 149.61C97.56 154.05 95.46 158.43 91.72 159.39C87.98 160.35 84.02 157.54 82.88 153.1Z" fill="#C6856A" stroke="#1A2E35" stroke-width="1.51" stroke-linecap="round" stroke-linejoin="round"/>
<path d="M91.72 159.39C90.68 159.66 89.61 159.63 88.6 159.36C89.11 159.37 89.62 159.31 90.13 159.18C93.67 158.26 95.67 154.11 94.58 149.91C93.49 145.7 89.74 143.03 86.2 143.95C86.11 143.97 86.02 144 85.93 144.03C86.43 143.72 86.98 143.48 87.57 143.33C91.31 142.37 95.26 145.18 96.41 149.62C97.55 154.06 95.45 158.43 91.71 159.4L91.72 159.39Z" fill="white"/>
<path d="M82.88 153.1C81.74 148.66 83.84 144.28 87.58 143.32C91.32 142.36 95.28 145.17 96.42 149.61C97.56 154.05 95.46 158.43 91.72 159.39C87.98 160.35 84.02 157.54 82.88 153.1Z" stroke="#1A2E35" stroke-width="1.51" stroke-linecap="round" stroke-linejoin="round"/>
<path d="M83.09 153.8C83.09 153.8 94.24 152.05 93.56 144.96C93.56 144.96 90.51 141.08 85.93 144.02C81.35 146.96 83.08 153.8 83.08 153.8H83.09Z" fill="#1A2E35"/>
<path d="M96.05 150.61C96.05 150.61 99.94 144.2 93.59 144.48L96.05 150.61Z" fill="#1A2E35"/>
<path d="M175.11 198.53H95.88V203.08H175.11V198.53Z" fill="white" stroke="#1A2E35" stroke-width="1.1" stroke-linecap="round" stroke-linejoin="round"/>
<path d="M137.87 203.08H133.11V275.03H137.87V203.08Z" fill="white" stroke="#1A2E35" stroke-width="1.1" stroke-linecap="round" stroke-linejoin="round"/>
<path d="M133.11 256.24V263.02C133.11 263.02 127.13 263.44 125.63 268.2C125.09 269.93 124.12 271.5 122.74 272.66L119.91 275.03H115.39L118.78 271.42C119.96 270.16 120.76 268.6 121.13 266.92C121.96 263.15 124.64 256.24 133.1 256.24H133.11Z" fill="white" stroke="#1A2E35" stroke-width="1.1" stroke-linecap="round" stroke-linejoin="round"/>
<path d="M137.87 256.24V263.02C137.87 263.02 143.85 263.44 145.35 268.2C145.89 269.93 146.86 271.5 148.24 272.66L151.07 275.03H155.59L152.2 271.42C151.02 270.16 150.22 268.6 149.85 266.92C149.02 263.15 146.34 256.24 137.88 256.24H137.87Z" fill="white" stroke="#1A2E35" stroke-width="1.1" stroke-linecap="round" stroke-linejoin="round"/>
<path d="M138.93 251.08H132.04V254.49H138.93V251.08Z" fill="white" stroke="#1A2E35" stroke-width="1.1" stroke-linecap="round" stroke-linejoin="round"/>
<path d="M138.93 208.69H132.04V212.1H138.93V208.69Z" fill="white" stroke="#1A2E35" stroke-width="1.1" stroke-linecap="round" stroke-linejoin="round"/>
<path opacity="0.33" d="M232.79 91.5401L58.04 107.71L54.27 67.0201C112.2 55.2001 170.13 43.3801 228.06 31.5601C229.63 51.5501 231.21 71.5501 232.78 91.5401H232.79Z" fill="white" stroke="#262626" stroke-width="1.72" stroke-linecap="round" stroke-linejoin="round"/>
<path d="M229.12 88.2L54.37 104.37C54.1 91.75 53.84 79.12 53.57 66.5C111.73 55.01 169.9 43.53 228.06 32.04C228.41 50.76 228.77 69.48 229.12 88.2Z" fill="#2D2D2D" stroke="white" stroke-width="1.72" stroke-linecap="round" stroke-linejoin="round"/>
<path d="M187.08 64.0501L95.68 72.5101C95.29 63.2001 94.9 53.8801 94.51 44.5701C124.81 37.2501 155.11 29.9401 185.41 22.6201C185.97 36.4301 186.52 50.2401 187.08 64.0501Z" fill="#2D2D2D" stroke="white" stroke-width="1.72" stroke-linecap="round" stroke-linejoin="round"/>
<path d="M118.39 46.6602L119.14 55.0802L119.87 63.1802L120.02 64.8802C120.05 65.0902 120.02 65.2902 119.89 65.4602C119.78 65.6202 119.6 65.7702 119.34 65.9102C119.08 66.0502 118.68 66.1402 118.15 66.1902C117.27 66.2702 116.37 66.2802 115.46 66.2302C114.68 66.1802 113.81 66.0702 112.87 65.9102C111.93 65.7502 111.03 65.4702 110.17 65.0802L116.02 64.5602L115.43 58.2602L115.39 58.2902H115.37C114.75 58.9702 114.11 59.5002 113.48 59.8802C112.84 60.2602 112.26 60.5502 111.73 60.7502C111.11 60.9702 110.51 61.1302 109.92 61.2102C109.19 61.2302 108.55 61.1502 107.99 60.9802C107.43 60.8102 106.94 60.5702 106.52 60.2802C106.1 59.9902 105.73 59.6402 105.43 59.2502C105.13 58.8602 104.87 58.4502 104.67 58.0302C104.19 57.0702 103.88 55.9602 103.76 54.7102C103.69 53.8902 103.71 53.1702 103.82 52.5402C103.93 51.9102 104.1 51.3602 104.32 50.8702C104.54 50.3902 104.81 49.9702 105.14 49.6302C105.46 49.2902 105.79 49.0002 106.14 48.7502C106.93 48.1902 107.86 47.8302 108.95 47.6802C109.77 47.6202 110.47 47.6402 111.06 47.7402C111.65 47.8402 112.14 47.9602 112.53 48.1102C112.99 48.2802 113.38 48.5002 113.71 48.7602C113.81 48.8302 113.91 48.9002 114 48.9802C114.18 49.1302 114.4 49.3602 114.65 49.6502L114.42 47.0402L118.41 46.6802L118.39 46.6602ZM115.05 54.3002C114.96 53.8502 114.81 53.4402 114.57 53.0702C114.34 52.7002 114.05 52.3902 113.71 52.1402C113.37 51.8902 112.98 51.7002 112.56 51.5702C112.14 51.4402 111.7 51.4002 111.24 51.4402C110.76 51.4802 110.31 51.6102 109.89 51.8302C109.47 52.0502 109.12 52.3302 108.83 52.6802C108.54 53.0302 108.32 53.4202 108.18 53.8702C108.04 54.3202 107.99 54.7802 108.03 55.2702C108.07 55.7502 108.21 56.2002 108.43 56.6202C108.65 57.0302 108.93 57.3902 109.28 57.6802C109.63 57.9702 110.02 58.1902 110.47 58.3402C110.92 58.4902 111.38 58.5402 111.87 58.5002C112.32 58.4602 112.74 58.3402 113.13 58.1302C113.52 57.9302 113.85 57.6702 114.15 57.3602C114.44 57.0502 114.67 56.7002 114.84 56.2902C115.01 55.8902 115.1 55.4602 115.1 55.0002L115.04 54.3002H115.05Z" fill="#AFE239"/>
<path d="M138.06 58.53L133.16 58.97L132.19 56.04C131.57 56.93 130.91 57.62 130.21 58.1C129.51 58.58 128.86 58.93 128.24 59.16C127.53 59.42 126.82 59.57 126.11 59.6C125.43 59.66 124.83 59.65 124.3 59.57C123.77 59.49 123.32 59.36 122.93 59.18C122.54 59 122.21 58.78 121.93 58.53C121.66 58.27 121.43 58.01 121.25 57.73C120.81 57.08 120.55 56.33 120.48 55.47C120.43 54.87 120.46 54.3201 120.57 53.8301C120.69 53.3401 120.85 52.91 121.07 52.53C121.29 52.15 121.55 51.82 121.85 51.53C122.15 51.24 122.47 50.99 122.8 50.78C123.56 50.3 124.45 49.96 125.45 49.76C126.22 49.71 126.9 49.71 127.48 49.78C128.06 49.85 128.53 49.9401 128.91 50.0601C129.35 50.1901 129.73 50.3601 130.05 50.5801L128.5 46.26L121.51 46.89C123.05 46.08 124.33 45.45 125.35 45C126.37 44.55 127.19 44.2101 127.81 43.9901C128.53 43.7401 129.1 43.59 129.51 43.52C129.89 43.49 130.24 43.5 130.55 43.55C130.87 43.61 131.15 43.69 131.41 43.82C131.66 43.94 131.89 44.09 132.09 44.25C132.29 44.42 132.46 44.59 132.62 44.77C132.98 45.2 133.26 45.69 133.46 46.25L138.06 58.53ZM128.63 57.13C129.02 57.09 129.38 56.99 129.71 56.82C130.04 56.65 130.32 56.42 130.55 56.14C130.78 55.86 130.96 55.54 131.08 55.19C131.2 54.84 131.24 54.46 131.21 54.07C131.17 53.68 131.07 53.3201 130.88 52.9901C130.7 52.6601 130.47 52.38 130.19 52.1501C129.91 51.9201 129.59 51.74 129.24 51.62C128.89 51.5 128.51 51.4601 128.12 51.4901C127.73 51.5301 127.37 51.63 127.04 51.82C126.71 52 126.43 52.23 126.2 52.51C125.97 52.79 125.79 53.11 125.67 53.46C125.55 53.81 125.51 54.1901 125.54 54.5801C125.58 54.9701 125.68 55.33 125.87 55.66C126.05 55.99 126.28 56.27 126.56 56.5C126.84 56.73 127.16 56.91 127.51 57.02C127.86 57.13 128.24 57.17 128.63 57.14V57.13Z" fill="#AFE239"/>
<path d="M155.17 41.4501C155.79 41.4101 156.27 41.5301 156.61 41.8001C156.95 42.0701 157.19 42.4001 157.35 42.7601C157.54 43.1801 157.65 43.6801 157.69 44.2401L158.85 56.6701L154.97 57.0201L153.96 45.7901C153.94 45.2601 153.84 44.8701 153.66 44.6301C153.48 44.3901 153.29 44.2201 153.1 44.1301C152.86 44.0301 152.61 44.0001 152.34 44.0401C152.02 44.0701 151.78 44.1601 151.62 44.3101C151.46 44.4601 151.35 44.6201 151.29 44.8001V44.8201L152.13 56.1801L152.23 57.2701L148.08 57.6401H148.06L147.03 46.4201C147.01 45.8901 146.93 45.5001 146.78 45.2501C146.63 45.0101 146.46 44.8401 146.29 44.7501C146.1 44.6501 145.88 44.6101 145.64 44.6501C145.29 44.7001 145.04 44.8001 144.89 44.9601C144.74 45.1201 144.63 45.2901 144.57 45.4801C144.5 45.7001 144.47 45.9401 144.5 46.2001L145.55 57.8801L141.24 58.2701L140.13 45.1101L137.11 45.3801C137.89 44.7601 138.55 44.2801 139.1 43.9301C139.64 43.5801 140.08 43.3301 140.41 43.1601C140.79 42.9601 141.1 42.8501 141.34 42.8301C141.88 42.7501 142.35 42.7801 142.73 42.9201C143.11 43.0601 143.43 43.2301 143.68 43.4201C143.98 43.6501 144.21 43.9301 144.39 44.2501C144.94 43.7401 145.46 43.3501 145.94 43.0701C146.43 42.7901 146.85 42.5701 147.22 42.4201C147.65 42.2601 148.05 42.1601 148.43 42.1101C148.78 42.0801 149.08 42.1101 149.35 42.1901C149.62 42.2701 149.85 42.3901 150.07 42.5401C150.28 42.6901 150.47 42.8601 150.64 43.0601C150.81 43.2601 150.97 43.4601 151.1 43.6601C151.8 43.1501 152.41 42.7601 152.93 42.4701C153.44 42.1801 153.87 41.9601 154.21 41.8101C154.59 41.6401 154.92 41.5301 155.19 41.4901L155.17 41.4501Z" fill="#AFE239"/>
<path d="M171.11 54.0401C171.89 54.0601 172.59 53.9801 173.2 53.7901C173.82 53.6101 174.37 53.3501 174.87 53.0301C175.37 52.7101 175.81 52.3401 176.2 51.9301C176.59 51.5101 176.94 51.0901 177.25 50.6501C177.42 50.8301 177.5 51.0201 177.51 51.2101C177.51 51.4001 177.47 51.5801 177.38 51.7601C177.29 51.9401 177.17 52.1001 177.02 52.2601C176.88 52.4201 176.75 52.5501 176.65 52.6501C175.84 53.5001 174.89 54.1801 173.78 54.6901C172.67 55.2001 171.52 55.5301 170.32 55.6901C169.12 55.8401 167.93 55.8101 166.74 55.6001C165.56 55.3901 164.48 54.9901 163.52 54.4001C162.56 53.8201 161.76 53.0401 161.13 52.0701C160.49 51.1001 160.12 49.9301 160.02 48.5701C159.93 47.4301 160.05 46.4101 160.38 45.4901C160.71 44.5701 161.19 43.7601 161.82 43.0501C162.45 42.3501 163.19 41.7601 164.05 41.2801C164.91 40.8101 165.82 40.4501 166.8 40.2001C167.78 39.9501 168.77 39.8301 169.8 39.8301C170.82 39.8301 171.81 39.9501 172.76 40.1901C173.71 40.4301 174.59 40.8101 175.41 41.3101C176.22 41.8201 176.91 42.4501 177.47 43.2101C177.23 43.4101 176.91 43.7301 176.5 44.1601C176.1 44.5901 175.64 45.1001 175.14 45.6801C174.64 46.2601 174.1 46.8901 173.54 47.5701C172.98 48.2501 172.41 48.9401 171.84 49.6301C171.27 50.3201 170.71 50.9901 170.16 51.6401C169.61 52.2901 169.11 52.8801 168.65 53.4101C169.45 53.8101 170.27 54.0201 171.11 54.0401ZM174.32 41.9101C173.51 41.5301 172.69 41.3101 171.87 41.2501C171.05 41.1901 170.27 41.2801 169.54 41.4901C168.81 41.7101 168.13 42.0501 167.51 42.5101C166.89 42.9701 166.37 43.5301 165.97 44.1801C165.56 44.8301 165.28 45.5801 165.13 46.4001C164.98 47.2301 164.99 48.1201 165.19 49.0801C165.36 49.9301 165.69 50.7001 166.2 51.3701C166.7 52.0401 167.3 52.6001 168 53.0401C168.31 52.4501 168.67 51.7901 169.08 51.0801C169.49 50.3701 169.91 49.6401 170.34 48.9001C170.77 48.1601 171.2 47.4201 171.63 46.6801C172.06 45.9401 172.46 45.2601 172.82 44.6301C173.18 44.0001 173.5 43.4501 173.77 42.9801C174.04 42.5101 174.23 42.1501 174.35 41.9101H174.32Z" fill="#AFE239"/>
<path d="M85.34 81.0701C84.52 80.7201 83.71 80.5201 82.89 80.4701C82.08 80.4301 81.3 80.5201 80.56 80.7401C79.82 80.9601 79.15 81.3101 78.54 81.7801C77.93 82.2501 77.43 82.8201 77.04 83.4801C76.64 84.1401 76.38 84.8901 76.25 85.7201C76.12 86.5501 76.16 87.4401 76.36 88.3801C76.51 89.0801 76.79 89.7301 77.19 90.3201C77.59 90.9101 78.06 91.4201 78.6 91.8401C79.14 92.2601 79.73 92.6001 80.38 92.8401C81.02 93.0901 81.67 93.2001 82.33 93.1901C83.11 93.1901 83.81 93.1101 84.42 92.9101C85.03 92.7101 85.59 92.4601 86.08 92.1401C86.57 91.8201 87.01 91.4501 87.38 91.0301C87.76 90.6101 88.09 90.1701 88.4 89.7301C88.57 89.9101 88.66 90.0901 88.67 90.2801C88.67 90.4701 88.63 90.6501 88.55 90.8301C88.46 91.0101 88.35 91.1701 88.2 91.3301C88.05 91.4901 87.94 91.6201 87.84 91.7301C87.05 92.5901 86.1 93.2901 85.01 93.8101C83.91 94.3301 82.76 94.6801 81.56 94.8501C80.36 95.0201 79.16 95.0201 77.96 94.8301C76.76 94.6401 75.67 94.2701 74.69 93.7001C73.71 93.1301 72.88 92.3701 72.22 91.4201C71.56 90.4701 71.17 89.3101 71.04 87.9501C70.94 86.8301 71.04 85.8101 71.35 84.8801C71.66 83.9501 72.13 83.1401 72.76 82.4301C73.39 81.7201 74.13 81.1201 74.99 80.6201C75.85 80.1201 76.77 79.7501 77.74 79.4901C78.71 79.2301 79.72 79.0901 80.75 79.0701C81.78 79.0501 82.78 79.1501 83.74 79.3801C84.7 79.6101 85.59 79.9701 86.41 80.4601C87.23 80.9401 87.93 81.5601 88.5 82.3101C87.58 83.1001 86.61 83.8301 85.61 84.5101C84.61 85.1901 83.64 85.9201 82.72 86.7101C82.87 86.2701 83.05 85.8101 83.26 85.3401C83.47 84.8701 83.69 84.3901 83.92 83.9101C84.15 83.4301 84.39 82.9501 84.64 82.4701C84.89 81.9901 85.12 81.5301 85.35 81.0801L85.34 81.0701Z" fill="white"/>
<path d="M95.9 81.86C96.63 81.81 97.27 81.86 97.84 81.97C98.4 82.09 98.9 82.27 99.34 82.5C99.78 82.73 100.15 82.99 100.46 83.3C100.77 83.6 101.03 83.91 101.25 84.22C101.74 84.98 102.07 85.85 102.24 86.84C102.27 87.57 102.23 88.22 102.11 88.79C101.99 89.36 101.81 89.86 101.57 90.29C101.33 90.72 101.06 91.09 100.75 91.4C100.44 91.71 100.12 91.96 99.79 92.17C99 92.65 98.1 92.97 97.1 93.12C96.36 93.18 95.7 93.16 95.12 93.06C94.54 92.95 94.04 92.79 93.61 92.57C93.18 92.35 92.81 92.08 92.51 91.77C92.2 91.46 91.94 91.14 91.72 90.81C91.22 90.02 90.9 89.12 90.76 88.09C90.73 87.36 90.78 86.71 90.91 86.14C91.04 85.57 91.22 85.07 91.46 84.64C91.7 84.21 91.97 83.84 92.28 83.53C92.59 83.22 92.91 82.97 93.24 82.76C94.01 82.28 94.91 81.98 95.91 81.85L95.9 81.86ZM98.14 92.29C98.44 92.23 98.65 92.12 98.77 91.97C98.89 91.82 98.97 91.66 98.99 91.49C99.03 91.3 99.02 91.09 98.97 90.85L96.19 83.45C96.08 83.17 95.94 82.98 95.77 82.88C95.6 82.78 95.43 82.72 95.26 82.71C95.06 82.71 94.85 82.74 94.63 82.82C94.38 82.91 94.2 83.02 94.11 83.16C94.01 83.3 93.95 83.45 93.92 83.6C93.88 83.77 93.88 83.95 93.93 84.15L96.73 91.5C96.88 91.79 97.04 91.99 97.2 92.1C97.36 92.21 97.51 92.29 97.65 92.32C97.82 92.36 97.99 92.35 98.15 92.29H98.14Z" fill="white"/>
<path d="M116.15 77.6602C115.51 78.2202 114.83 78.7402 114.13 79.2202C113.43 79.7002 112.75 80.2102 112.11 80.7502C112.32 80.1302 112.6 79.4802 112.95 78.7902C113.3 78.1002 113.64 77.4402 113.95 76.8202C113.17 76.4802 112.34 76.3402 111.47 76.4102C110.6 76.4802 109.8 76.7102 109.07 77.1102C108.34 77.5102 107.74 78.0502 107.25 78.7202C106.77 79.4002 106.52 80.1702 106.5 81.0202L106.88 83.5202L108.78 83.2902L112.28 82.8002L112.53 85.1302L111.99 85.1902L111.54 85.2402L107.22 85.5602L108.18 91.7102L104.42 92.1102L104.33 91.2302L104.25 90.5002L103.28 81.4002C103.2 80.6502 103.28 79.9802 103.55 79.4002C103.81 78.8202 104.12 78.3402 104.47 77.9502C104.88 77.4902 105.36 77.1002 105.9 76.7602C106.67 76.2702 107.55 75.9002 108.52 75.6702C109.49 75.4402 110.46 75.3502 111.42 75.4202C112.38 75.4902 113.28 75.7002 114.12 76.0702C114.96 76.4402 115.64 76.9602 116.16 77.6402L116.15 77.6602Z" fill="white"/>
<path d="M128.2 76.3701C127.56 76.9301 126.88 77.4501 126.18 77.9301C125.48 78.4101 124.8 78.9201 124.16 79.4601C124.37 78.8401 124.65 78.1901 125 77.5001C125.35 76.8101 125.69 76.1601 126 75.5301C125.22 75.1901 124.39 75.0501 123.52 75.1201C122.65 75.1901 121.85 75.4201 121.12 75.8201C120.39 76.2201 119.79 76.7601 119.3 77.4301C118.82 78.1101 118.57 78.8801 118.55 79.7301L118.93 82.2301L120.83 82.0001L124.33 81.5101L124.58 83.8401L124.04 83.9001L123.59 83.9501L119.27 84.2701L120.23 90.4201L116.47 90.8201L116.38 89.9401L116.3 89.2101L115.33 80.1101C115.25 79.3601 115.33 78.6901 115.6 78.1101C115.86 77.5301 116.17 77.0501 116.52 76.6601C116.93 76.2001 117.41 75.8101 117.95 75.4701C118.72 74.9801 119.59 74.6101 120.57 74.3801C121.54 74.1501 122.51 74.0601 123.47 74.1301C124.43 74.2001 125.33 74.4101 126.17 74.7801C127.01 75.1501 127.69 75.6701 128.2 76.3501V76.3701Z" fill="white"/>
<path d="M136.29 87.8001C136.82 87.8001 137.31 87.7401 137.73 87.6001C138.16 87.4601 138.54 87.2801 138.89 87.0501C139.23 86.8201 139.54 86.5601 139.8 86.2701C140.07 85.9701 140.3 85.6701 140.52 85.3601C140.64 85.4801 140.7 85.6101 140.71 85.7501C140.71 85.8901 140.69 86.0201 140.63 86.1401C140.57 86.2601 140.49 86.3801 140.39 86.4901C140.3 86.6001 140.21 86.7001 140.15 86.7801C139.6 87.3701 138.93 87.8601 138.13 88.2301C137.33 88.6101 136.49 88.8601 135.6 88.9801C134.71 89.1001 133.82 89.1001 132.93 88.9801C132.04 88.8601 131.23 88.5901 130.5 88.2001C129.77 87.8001 129.16 87.2801 128.67 86.6201C128.18 85.9601 127.89 85.1601 127.8 84.2001C127.73 83.4101 127.81 82.7001 128.05 82.0401C128.28 81.3901 128.64 80.8101 129.1 80.3101C129.57 79.8101 130.12 79.3901 130.75 79.0401C131.38 78.7001 132.06 78.4301 132.78 78.2401C133.5 78.0501 134.24 77.9401 134.99 77.9201C135.74 77.9001 136.47 77.9701 137.17 78.1301C137.87 78.2901 138.51 78.5401 139.1 78.8701C139.69 79.2001 140.18 79.6301 140.58 80.1501C140.33 80.3601 139.96 80.7501 139.49 81.3201C139.02 81.8901 138.49 82.5301 137.92 83.2401C137.35 83.9501 136.76 84.6801 136.17 85.4201C135.58 86.1601 135.04 86.8101 134.57 87.3701C135.1 87.6301 135.67 87.7701 136.29 87.7801V87.8001ZM138.38 79.3101C137.53 78.9301 136.68 78.7901 135.84 78.9101C135 79.0201 134.27 79.3201 133.65 79.8101C133.03 80.3001 132.56 80.9401 132.25 81.7401C131.94 82.5401 131.89 83.4401 132.1 84.4301C132.24 85.0101 132.48 85.5301 132.84 86.0001C133.19 86.4701 133.61 86.8501 134.09 87.1501C134.3 86.7301 134.55 86.2701 134.82 85.7701C135.09 85.2701 135.38 84.7501 135.67 84.2201C135.96 83.6901 136.26 83.1701 136.55 82.6601C136.84 82.1501 137.1 81.6701 137.35 81.2301C137.59 80.7901 137.81 80.4001 137.99 80.0601C138.17 79.7201 138.3 79.4701 138.38 79.3101Z" fill="white"/>
<path d="M150.8 86.24C151.34 86.24 151.82 86.18 152.25 86.04C152.68 85.9 153.06 85.72 153.41 85.49C153.75 85.26 154.06 85 154.32 84.71C154.59 84.41 154.82 84.11 155.03 83.8C155.15 83.92 155.21 84.05 155.22 84.19C155.22 84.33 155.2 84.46 155.14 84.58C155.08 84.7 155 84.82 154.9 84.93C154.81 85.04 154.72 85.14 154.66 85.22C154.11 85.81 153.44 86.3 152.64 86.67C151.84 87.05 151 87.3 150.11 87.42C149.22 87.54 148.33 87.54 147.44 87.42C146.55 87.3 145.74 87.03 145.01 86.64C144.28 86.24 143.67 85.72 143.18 85.06C142.69 84.4 142.4 83.6 142.31 82.64C142.24 81.85 142.32 81.14 142.56 80.48C142.79 79.83 143.15 79.25 143.61 78.75C144.08 78.25 144.63 77.83 145.26 77.48C145.9 77.14 146.57 76.87 147.29 76.68C148.01 76.49 148.75 76.38 149.5 76.36C150.25 76.34 150.98 76.41 151.68 76.57C152.38 76.73 153.02 76.98 153.61 77.31C154.2 77.64 154.69 78.07 155.09 78.59C154.84 78.8 154.47 79.19 154 79.76C153.53 80.33 153 80.97 152.43 81.68C151.86 82.39 151.27 83.12 150.68 83.86C150.09 84.6 149.55 85.25 149.08 85.81C149.61 86.07 150.18 86.21 150.79 86.22L150.8 86.24ZM152.89 77.75C152.04 77.37 151.19 77.23 150.35 77.35C149.51 77.46 148.78 77.76 148.16 78.25C147.54 78.74 147.07 79.38 146.76 80.18C146.45 80.98 146.4 81.88 146.61 82.87C146.75 83.45 146.99 83.97 147.35 84.44C147.71 84.91 148.12 85.29 148.6 85.59C148.81 85.17 149.06 84.71 149.33 84.21C149.6 83.71 149.89 83.19 150.18 82.66C150.47 82.13 150.77 81.61 151.06 81.1C151.35 80.59 151.61 80.11 151.86 79.67C152.1 79.23 152.32 78.84 152.5 78.5C152.68 78.16 152.81 77.91 152.89 77.75Z" fill="white"/>
<path d="M170.11 76.6002C170.94 76.6602 171.72 76.8302 172.43 77.0802C172.73 77.1802 173.04 77.3202 173.34 77.5002C173.65 77.6702 173.93 77.8802 174.2 78.1202C174.46 78.3602 174.69 78.6402 174.9 78.9502C175.1 79.2602 175.25 79.6302 175.34 80.0502C175.48 80.6302 175.49 81.1602 175.36 81.6502C175.24 82.1402 175.03 82.5502 174.75 82.8802C174.33 83.3702 173.79 83.7802 173.14 84.1202C172.49 84.4602 171.78 84.7102 171.01 84.8902C170.24 85.0602 169.44 85.1702 168.61 85.1902C167.78 85.2102 166.97 85.1802 166.17 85.0602C165.37 84.9502 164.62 84.7702 163.92 84.5302C163.22 84.2902 162.61 83.9902 162.09 83.6102C161.99 83.5302 161.89 83.4302 161.78 83.3102C161.68 83.1902 161.59 83.0602 161.53 82.9202C161.47 82.7802 161.45 82.6202 161.46 82.4502C161.47 82.2702 161.54 82.0902 161.65 81.8902C161.99 82.2402 162.33 82.5402 162.65 82.8002C162.98 83.0602 163.33 83.2802 163.73 83.4502C164.12 83.6202 164.57 83.7502 165.08 83.8402C165.58 83.9302 166.18 83.9802 166.87 83.9802C168.44 83.9802 169.54 83.7502 170.15 83.3002C170.77 82.8402 171.04 82.1302 170.99 81.1602C170.93 80.6302 170.85 80.2102 170.73 79.8902C170.61 79.5702 170.33 79.3302 169.89 79.1702C169.76 79.1202 169.56 79.0702 169.29 79.0002C169.02 78.9402 168.66 78.9302 168.22 78.9802C168.19 78.9802 168.09 78.9802 167.91 78.9902C167.73 78.9902 167.54 78.9902 167.34 78.9902C167.13 78.9902 166.94 78.9902 166.76 78.9902C166.58 78.9902 166.48 78.9902 166.46 78.9902C165.97 78.9902 165.54 78.9102 165.17 78.7702C164.8 78.6402 164.46 78.4702 164.17 78.2702C163.88 78.0702 163.62 77.8502 163.41 77.5802C163.2 77.3202 163.02 77.0602 162.87 76.8002C162.53 76.2002 162.3 75.5002 162.17 74.7202C162.14 73.8202 162.32 73.0202 162.74 72.3002C163.15 71.5802 163.7 70.9802 164.38 70.4902C165.06 70.0002 165.83 69.6202 166.69 69.3602C167.55 69.1002 168.4 68.9802 169.26 69.0002C170.12 69.0202 170.93 69.2002 171.7 69.5202C172.47 69.8402 173.1 70.3402 173.6 71.0002C173 71.5102 172.37 71.9902 171.71 72.4502C171.05 72.9102 170.41 73.3902 169.79 73.9002C169.9 73.6102 170.02 73.3402 170.16 73.0702C170.3 72.8002 170.45 72.5402 170.62 72.2902C170.78 72.0402 170.95 71.7702 171.11 71.5002C171.27 71.2302 171.43 70.9402 171.58 70.6402C170.78 70.2802 169.98 70.1102 169.18 70.1202C168.38 70.1202 167.68 70.3102 167.07 70.6502C166.47 71.0002 166.01 71.5002 165.71 72.1602C165.41 72.8202 165.36 73.6202 165.57 74.5602C165.7 75.1002 165.99 75.5502 166.44 75.9102C166.88 76.2802 167.52 76.4602 168.34 76.4602L168.82 76.4802C168.99 76.4902 169.19 76.5102 169.41 76.5202C169.63 76.5302 169.88 76.5502 170.16 76.5702L170.11 76.6002Z" fill="white"/>
<path d="M184.37 72.4601C184.81 72.4101 185.16 72.5001 185.42 72.7101C185.68 72.9301 185.89 73.1801 186.04 73.4701C186.21 73.8001 186.35 74.1901 186.44 74.6201L187.23 83.2601L183.24 83.6901L182.41 75.9201C182.39 75.5601 182.32 75.2901 182.2 75.1201C182.08 74.9501 181.95 74.8301 181.81 74.7701C181.64 74.7101 181.45 74.6901 181.25 74.7101C181.01 74.7401 180.84 74.8101 180.73 74.9301C180.62 75.0501 180.55 75.1701 180.51 75.3001C180.47 75.4601 180.45 75.6201 180.47 75.7901L181.34 83.9001L177.38 84.3201H177.36L177.26 83.4201L177.18 82.6701L175.83 69.3901L173.25 69.6701C174 69.1601 174.66 68.7601 175.21 68.4601C175.76 68.1601 176.22 67.9401 176.6 67.7701C177.04 67.5901 177.41 67.4701 177.71 67.4201C177.84 67.3801 177.98 67.3401 178.14 67.3301C178.26 67.3301 178.39 67.3501 178.53 67.3801C178.67 67.4101 178.81 67.4801 178.94 67.5901L179.97 73.9901C180.36 73.7501 180.8 73.5301 181.31 73.3401C181.82 73.1501 182.3 72.9901 182.76 72.8601C183.29 72.7101 183.84 72.5801 184.39 72.4601H184.37Z" fill="white"/>
<path d="M193.58 71.4101C194.31 71.3601 194.95 71.41 195.52 71.52C196.08 71.64 196.58 71.8201 197.02 72.0501C197.46 72.2801 197.83 72.54 198.14 72.85C198.45 73.15 198.71 73.46 198.93 73.77C199.42 74.53 199.75 75.4 199.92 76.39C199.95 77.12 199.91 77.77 199.78 78.34C199.65 78.91 199.48 79.41 199.24 79.84C199 80.27 198.73 80.64 198.42 80.95C198.11 81.26 197.79 81.5101 197.46 81.7201C196.67 82.2001 195.77 82.52 194.77 82.67C194.03 82.73 193.37 82.7101 192.79 82.6101C192.21 82.5001 191.71 82.3401 191.28 82.1201C190.85 81.9001 190.48 81.63 190.18 81.32C189.87 81.01 189.61 80.6901 189.39 80.3601C188.89 79.5701 188.58 78.67 188.43 77.64C188.4 76.91 188.45 76.2601 188.58 75.6901C188.71 75.1201 188.89 74.6201 189.13 74.1901C189.37 73.7601 189.64 73.3901 189.95 73.0801C190.26 72.7701 190.58 72.52 190.91 72.31C191.68 71.83 192.57 71.5301 193.58 71.4001V71.4101ZM195.82 81.84C196.12 81.78 196.33 81.67 196.45 81.52C196.57 81.37 196.65 81.2101 196.67 81.0401C196.71 80.8501 196.7 80.6401 196.65 80.4001L193.87 73C193.76 72.72 193.63 72.5301 193.45 72.4301C193.28 72.33 193.11 72.2701 192.94 72.2601C192.74 72.2601 192.53 72.2901 192.31 72.3701C192.06 72.4601 191.89 72.57 191.79 72.71C191.69 72.85 191.63 73.0001 191.6 73.1501C191.56 73.3201 191.56 73.5 191.61 73.7L194.41 81.0501C194.56 81.3401 194.72 81.5401 194.88 81.6501C195.04 81.7601 195.19 81.8401 195.33 81.8701C195.5 81.9101 195.67 81.9 195.83 81.84H195.82Z" fill="white"/>
<path d="M210.35 69.9302C211.5 69.9602 212.55 70.1602 213.51 70.5302C213.91 70.6902 214.31 70.8902 214.71 71.1302C215.11 71.3702 215.48 71.6802 215.82 72.0402C216.16 72.4002 216.44 72.8302 216.67 73.3102C216.9 73.7902 217.05 74.3602 217.11 74.9902C217.11 75.9102 216.93 76.7502 216.56 77.5202C216.4 77.8402 216.19 78.1702 215.93 78.4902C215.67 78.8202 215.35 79.1102 214.97 79.3802C214.59 79.6502 214.13 79.8802 213.59 80.0802C213.05 80.2702 212.43 80.4102 211.72 80.4902C211.12 80.5802 210.5 80.6002 209.85 80.5302C209.28 80.4702 208.64 80.3302 207.93 80.1102C207.22 79.8902 206.49 79.5002 205.75 78.9602L206.91 86.7602L203.15 87.1602L203.06 86.2802H203.04L202.98 85.5602L201.65 72.6702L199.34 72.9202C200.02 72.4302 200.61 72.0502 201.1 71.7702C201.59 71.4902 202 71.2702 202.33 71.1102C202.71 70.9302 203.04 70.8202 203.32 70.7702C203.41 70.7702 203.52 70.7602 203.64 70.7602C203.75 70.7802 203.87 70.8002 204 70.8202C204.13 70.8402 204.28 70.8902 204.44 70.9402C204.51 71.0102 204.57 71.1302 204.64 71.3102C204.69 71.4702 204.74 71.7002 204.81 71.9902C204.87 72.2802 204.92 72.6702 204.96 73.1502C205.06 72.9602 205.16 72.7802 205.26 72.6402C205.36 72.5002 205.45 72.3702 205.53 72.2702C205.62 72.1502 205.71 72.0502 205.79 71.9702C206.06 71.6502 206.41 71.3602 206.84 71.0802C207.21 70.8402 207.69 70.6102 208.27 70.4002C208.85 70.1902 209.56 70.0302 210.38 69.9202L210.35 69.9302ZM208.59 78.4802C209 78.4402 209.37 78.3202 209.72 78.1202C210.07 77.9202 210.36 77.6702 210.6 77.3702C210.84 77.0702 211.02 76.7302 211.14 76.3502C211.26 75.9702 211.3 75.5802 211.25 75.1702C211.21 74.7602 211.09 74.3902 210.89 74.0402C210.69 73.6902 210.44 73.4002 210.14 73.1602C209.84 72.9202 209.5 72.7402 209.12 72.6202C208.74 72.5002 208.35 72.4602 207.94 72.5102C207.53 72.5502 207.16 72.6802 206.81 72.8702C206.47 73.0702 206.17 73.3202 205.93 73.6202C205.69 73.9202 205.51 74.2602 205.39 74.6402C205.27 75.0202 205.23 75.4102 205.28 75.8202L205.31 76.0702C205.38 76.4602 205.52 76.8102 205.72 77.1302C205.92 77.4402 206.17 77.7102 206.47 77.9202C206.77 78.1302 207.1 78.2902 207.46 78.4002C207.82 78.5102 208.2 78.5402 208.59 78.5002V78.4802Z" fill="white"/>
<path d="M60.22 74.9801C61.8548 74.9801 63.18 73.6548 63.18 72.0201C63.18 70.3853 61.8548 69.0601 60.22 69.0601C58.5852 69.0601 57.26 70.3853 57.26 72.0201C57.26 73.6548 58.5852 74.9801 60.22 74.9801Z" fill="#AFE239"/>
<path d="M73.76 72.0201C75.3948 72.0201 76.72 70.6949 76.72 69.0601C76.72 67.4253 75.3948 66.1001 73.76 66.1001C72.1252 66.1001 70.8 67.4253 70.8 69.0601C70.8 70.6949 72.1252 72.0201 73.76 72.0201Z" fill="white"/>
<path d="M88.18 68.71C89.8148 68.71 91.14 67.3848 91.14 65.75C91.14 64.1153 89.8148 62.79 88.18 62.79C86.5452 62.79 85.22 64.1153 85.22 65.75C85.22 67.3848 86.5452 68.71 88.18 68.71Z" fill="#AFE239"/>
<path d="M195.37 47.5599C197.005 47.5599 198.33 46.2347 198.33 44.5999C198.33 42.9651 197.005 41.6399 195.37 41.6399C193.735 41.6399 192.41 42.9651 192.41 44.5999C192.41 46.2347 193.735 47.5599 195.37 47.5599Z" fill="#AFE239"/>
<path d="M207.74 45.2701C209.375 45.2701 210.7 43.9449 210.7 42.3101C210.7 40.6753 209.375 39.3501 207.74 39.3501C206.105 39.3501 204.78 40.6753 204.78 42.3101C204.78 43.9449 206.105 45.2701 207.74 45.2701Z" fill="white"/>
<path d="M220.32 42.3099C221.955 42.3099 223.28 40.9847 223.28 39.3499C223.28 37.7151 221.955 36.3899 220.32 36.3899C218.685 36.3899 217.36 37.7151 217.36 39.3499C217.36 40.9847 218.685 42.3099 220.32 42.3099Z" fill="#AFE239"/>
<path d="M221.97 56.4801C223.605 56.4801 224.93 55.1548 224.93 53.5201C224.93 51.8853 223.605 50.5601 221.97 50.5601C220.335 50.5601 219.01 51.8853 219.01 53.5201C219.01 55.1548 220.335 56.4801 221.97 56.4801Z" fill="white"/>
<path d="M223.29 70.7C224.925 70.7 226.25 69.3748 226.25 67.74C226.25 66.1053 224.925 64.78 223.29 64.78C221.655 64.78 220.33 66.1053 220.33 67.74C220.33 69.3748 221.655 70.7 223.29 70.7Z" fill="#AFE239"/>
<path d="M223.29 84.92C224.925 84.92 226.25 83.5948 226.25 81.96C226.25 80.3252 224.925 79 223.29 79C221.655 79 220.33 80.3252 220.33 81.96C220.33 83.5948 221.655 84.92 223.29 84.92Z" fill="white"/>
<path d="M60.22 87.88C61.8548 87.88 63.18 86.5547 63.18 84.92C63.18 83.2852 61.8548 81.96 60.22 81.96C58.5852 81.96 57.26 83.2852 57.26 84.92C57.26 86.5547 58.5852 87.88 60.22 87.88Z" fill="white"/>
<path d="M61.24 101.57C62.8748 101.57 64.2 100.245 64.2 98.6099C64.2 96.9751 62.8748 95.6499 61.24 95.6499C59.6052 95.6499 58.28 96.9751 58.28 98.6099C58.28 100.245 59.6052 101.57 61.24 101.57Z" fill="#AFE239"/>
<path d="M173.97 134.78L152.98 153.8" stroke="#FEFEFE" stroke-miterlimit="10"/>
<path d="M173.24 140.91L152.26 159.93" stroke="#FEFEFE" stroke-miterlimit="10"/>
<path d="M136.86 140.91L115.87 159.93" stroke="#FEFEFE" stroke-miterlimit="10"/>
<path d="M136.86 145.8L115.87 164.82" stroke="#FEFEFE" stroke-miterlimit="10"/>
<path d="M143.78 175.6L134.28 184.21" stroke="#FEFEFE" stroke-miterlimit="10"/>
<path d="M143.78 171.71L134.28 180.32" stroke="#FEFEFE" stroke-miterlimit="10"/>
<path d="M171.1 148.29L161.6 156.9" stroke="#FEFEFE" stroke-miterlimit="10"/>
</svg>
