<svg width="100" height="100" viewBox="0 0 100 100" fill="none" xmlns="http://www.w3.org/2000/svg">
<path d="M15.2002 37.6699C16.0902 36.8199 17.1002 36.8299 18.0502 36.7899C19.7702 36.7199 21.5002 36.7399 23.2302 36.7699C24.2302 36.7899 25.3602 36.8299 26.0802 36.2099C29.0402 33.6799 32.7002 34.2099 36.0902 33.8699C46.8602 32.7999 57.6402 32.9799 68.4002 34.1999C70.4802 34.4399 72.6802 34.2599 74.4202 35.9799C75.3002 36.8499 76.6902 36.7899 77.9402 36.7699C80.0302 36.7299 82.1402 36.5699 84.2102 36.9799C84.6602 37.0699 85.3802 36.9799 85.4702 37.5499C85.5802 38.2599 84.7902 38.3199 84.3302 38.5199C78.7802 40.9399 73.0102 42.6399 67.0502 43.6399C51.1502 46.3099 35.5002 45.4299 20.2402 39.9899C18.5402 39.3799 16.7502 38.8799 15.2002 37.6799V37.6699Z" fill="url(#paint0_linear_171_524)"/>
<path d="M56.5202 92.67C55.2502 89.79 54.0602 86.92 52.7202 84.11C52.0702 82.74 52.4802 82.12 53.7602 81.62C57.2802 80.25 60.1902 78.06 62.4102 74.99C63.5202 73.46 64.2502 71.73 65.0902 69.76C65.4802 76.16 61.3202 87.13 56.5102 92.67H56.5202Z" fill="url(#paint1_linear_171_524)"/>
<path d="M32.5698 70.1301C33.1698 70.1301 33.0998 70.6401 33.2098 70.9201C35.2098 76.0101 38.8298 79.5101 43.8398 81.5301C45.4498 82.1801 45.6698 82.9101 44.9398 84.4101C43.6398 87.0901 42.5298 89.8601 41.2398 92.8201C36.4298 85.8201 32.8998 78.5901 32.5698 70.1201V70.1301Z" fill="url(#paint2_linear_171_524)"/>
<path d="M70.4298 21.77C69.6698 18.21 68.6898 14.71 66.6598 11.63C63.9698 7.56004 60.3098 6.77004 56.1598 9.32004C55.3798 9.80004 54.6298 10.35 53.8998 10.92C51.4198 12.84 49.4898 12.84 47.0398 10.97C46.0198 10.19 44.9698 9.41004 43.8298 8.81004C40.4998 7.04004 37.3098 7.74004 34.9298 10.68C33.7598 12.13 32.9398 13.78 32.2798 15.52C30.5998 19.98 29.8298 24.65 29.1398 29.35C28.9798 30.49 29.2498 30.59 30.1998 30.43C36.8498 29.25 43.5798 29.05 50.3098 29.02C57.4698 28.99 64.5998 29.36 71.9798 30.57C71.4298 27.45 71.0198 24.6 70.4198 21.78L70.4298 21.77Z" fill="url(#paint3_linear_171_524)"/>
<path d="M64.2498 53.36C59.3298 53.72 54.8798 55.4 51.1598 58.69C48.7998 60.78 46.5398 61.53 43.4898 59.85C40.4898 58.21 37.3198 58.34 34.4998 60.65C33.4598 61.5 33.1298 62.43 33.8398 63.7C35.4098 66.48 36.8198 69.35 38.4798 72.08C40.7398 75.8 43.9898 77.98 49.6498 77.82C50.8098 77.78 53.2298 77.73 54.9798 76.12C60.7598 70.8 65.6598 64.87 67.2098 56.84C67.7498 54.06 67.0898 53.14 64.2398 53.35L64.2498 53.36ZM46.0098 71.59C47.3798 69.62 50.0998 69.6 51.9698 71.55C49.9398 71.24 48.0098 71.12 46.0098 71.59ZM52.0698 68.21C51.0098 68.55 49.9098 68.61 48.7998 68.57C47.7498 68.61 46.7098 68.53 45.7098 68.2C45.4598 68.11 45.1298 67.84 45.0898 67.61C45.0198 67.15 45.4998 66.95 45.8198 66.97C47.8798 67.13 49.9398 67.13 51.9998 66.97C52.2498 66.95 52.6498 67.05 52.6998 67.43C52.7498 67.87 52.4298 68.09 52.0698 68.21ZM41.8098 65.37C44.2398 65.55 46.3998 62.94 48.8998 64.89C51.4098 62.82 53.5598 65.69 56.0898 65.29C54.6998 66.45 43.0998 66.46 41.7998 65.37H41.8098Z" fill="url(#paint4_linear_171_524)"/>
<defs>
<linearGradient id="paint0_linear_171_524" x1="20.9502" y1="68.3699" x2="92.7802" y2="-6.36012" gradientUnits="userSpaceOnUse">
<stop offset="0.21" stop-color="#AFE239"/>
<stop offset="1" stop-color="#00FEF2"/>
</linearGradient>
<linearGradient id="paint1_linear_171_524" x1="47.9902" y1="94.36" x2="119.82" y2="19.64" gradientUnits="userSpaceOnUse">
<stop offset="0.21" stop-color="#AFE239"/>
<stop offset="1" stop-color="#00FEF2"/>
</linearGradient>
<linearGradient id="paint2_linear_171_524" x1="35.7898" y1="82.6401" x2="107.62" y2="7.91012" gradientUnits="userSpaceOnUse">
<stop offset="0.21" stop-color="#AFE239"/>
<stop offset="1" stop-color="#00FEF2"/>
</linearGradient>
<linearGradient id="paint3_linear_171_524" x1="13.9798" y1="61.67" x2="85.8098" y2="-13.05" gradientUnits="userSpaceOnUse">
<stop offset="0.21" stop-color="#AFE239"/>
<stop offset="1" stop-color="#00FEF2"/>
</linearGradient>
<linearGradient id="paint4_linear_171_524" x1="33.3698" y1="80.3" x2="105.2" y2="5.58" gradientUnits="userSpaceOnUse">
<stop offset="0.21" stop-color="#AFE239"/>
<stop offset="1" stop-color="#00FEF2"/>
</linearGradient>
</defs>
</svg>