<svg width="280" height="280" viewBox="0 0 280 280" fill="none" xmlns="http://www.w3.org/2000/svg">
<path d="M151.606 5.64927L139.841 4L132.145 58.8932L143.91 60.5425L151.606 5.64927Z" fill="white" stroke="#262626" stroke-width="1.1" stroke-linecap="round" stroke-linejoin="round"/>
<path d="M188.22 47.0076H88.08V50.8276H188.22V47.0076Z" fill="white" stroke="#262626" stroke-width="1.1" stroke-linecap="round" stroke-linejoin="round"/>
<path d="M211.67 63.0576L208.34 103.018L197.74 230.008L194.25 271.888C194.09 273.798 192.49 275.268 190.57 275.268H85.73C83.81 275.268 82.21 273.798 82.05 271.888L78.56 230.008L67.96 103.018L64.63 63.0576H211.67Z" fill="#2D2D2D" stroke="white" stroke-width="1.1" stroke-linecap="round" stroke-linejoin="round"/>
<path d="M213.4 50.7976H61.9699C60.5999 50.7976 59.3999 51.7076 59.0199 53.0276L56.1499 63.0576H219.22L216.35 53.0276C215.97 51.7076 214.77 50.7976 213.4 50.7976Z" fill="white" stroke="#262626" stroke-width="1.1" stroke-linecap="round" stroke-linejoin="round"/>
<path d="M130.21 50.7976H85.59L83.25 63.0576H129.78L130.21 50.7976Z" fill="white" stroke="#262626" stroke-width="1.1" stroke-linecap="round" stroke-linejoin="round"/>
<path d="M208.33 103.138L197.73 230.118H78.56L67.96 103.138H208.33Z" fill="#2D2D2D" stroke="white" stroke-width="1.1" stroke-linecap="round" stroke-linejoin="round"/>
<path d="M176.65 116.878H99.4399V217.128H176.65V116.878Z" fill="#525252" stroke="white" stroke-width="1.1" stroke-linecap="round" stroke-linejoin="round"/>
<path d="M68.62 117.728H83.95V124.548C83.95 127.788 81.32 130.428 78.07 130.428H74.49C71.25 130.428 68.61 127.798 68.61 124.548V117.728H68.62Z" fill="white" stroke="#262626" stroke-width="1.1" stroke-linecap="round" stroke-linejoin="round"/>
<path d="M83.96 117.728H99.29V124.548C99.29 127.788 96.66 130.428 93.41 130.428H89.83C86.59 130.428 83.95 127.798 83.95 124.548V117.728H83.96Z" fill="#AFE239" stroke="#262626" stroke-miterlimit="10"/>
<path d="M99.2899 117.728H114.62V124.548C114.62 127.788 111.99 130.428 108.74 130.428H105.16C101.92 130.428 99.2799 127.798 99.2799 124.548V117.728H99.2899Z" fill="white" stroke="#262626" stroke-width="1.1" stroke-linecap="round" stroke-linejoin="round"/>
<path d="M114.63 117.728H129.96V124.548C129.96 127.788 127.33 130.428 124.08 130.428H120.5C117.26 130.428 114.62 127.798 114.62 124.548V117.728H114.63Z" fill="#AFE239" stroke="#262626" stroke-miterlimit="10"/>
<path d="M129.96 117.728H145.29V124.548C145.29 127.788 142.66 130.428 139.41 130.428H135.83C132.59 130.428 129.95 127.798 129.95 124.548V117.728H129.96Z" fill="white" stroke="#262626" stroke-width="1.1" stroke-linecap="round" stroke-linejoin="round"/>
<path d="M145.3 117.728H160.63V124.548C160.63 127.788 158 130.428 154.75 130.428H151.17C147.93 130.428 145.29 127.798 145.29 124.548V117.728H145.3Z" fill="#AFE239" stroke="#262626" stroke-miterlimit="10"/>
<path d="M160.63 117.728H175.96V124.548C175.96 127.788 173.33 130.428 170.08 130.428H166.5C163.26 130.428 160.62 127.798 160.62 124.548V117.728H160.63Z" fill="white" stroke="#262626" stroke-width="1.1" stroke-linecap="round" stroke-linejoin="round"/>
<path d="M191.3 117.728H206.63V124.548C206.63 127.788 204 130.428 200.75 130.428H197.17C193.93 130.428 191.29 127.798 191.29 124.548V117.728H191.3Z" fill="white" stroke="#262626" stroke-width="1.1" stroke-linecap="round" stroke-linejoin="round"/>
<path d="M175.97 117.728H191.3V124.548C191.3 127.788 188.67 130.428 185.42 130.428H181.84C178.6 130.428 175.96 127.798 175.96 124.548V117.728H175.97Z" fill="#AFE239" stroke="#262626" stroke-miterlimit="10"/>
<path d="M92.43 103.198H79.51L68.62 117.728H83.96L92.43 103.198Z" fill="white" stroke="#262626" stroke-width="1.1" stroke-linecap="round" stroke-linejoin="round"/>
<path d="M105.34 103.198H92.43L83.96 117.728H99.29L105.34 103.198Z" fill="#AFE239" stroke="#262626" stroke-miterlimit="10"/>
<path d="M118.26 103.198H105.34L99.2899 117.728H114.63L118.26 103.198Z" fill="white" stroke="#262626" stroke-width="1.1" stroke-linecap="round" stroke-linejoin="round"/>
<path d="M131.17 103.198H118.26L114.63 117.728H129.96L131.17 103.198Z" fill="#AFE239" stroke="#262626" stroke-miterlimit="10"/>
<path d="M144.09 103.198H131.17L129.96 117.728H145.3L144.09 103.198Z" fill="white" stroke="#262626" stroke-width="1.1" stroke-linecap="round" stroke-linejoin="round"/>
<path d="M157 103.198H144.09L145.3 117.728H160.63L157 103.198Z" fill="#AFE239" stroke="#262626" stroke-miterlimit="10"/>
<path d="M169.92 103.198H157L160.63 117.728H175.97L169.92 103.198Z" fill="white" stroke="#262626" stroke-width="1.1" stroke-linecap="round" stroke-linejoin="round"/>
<path d="M182.83 103.198H169.92L175.97 117.728H191.3L182.83 103.198Z" fill="#AFE239" stroke="#262626" stroke-miterlimit="10"/>
<path d="M195.75 103.198H182.83L191.3 117.728H206.64L195.75 103.198Z" fill="white" stroke="#262626" stroke-width="1.1" stroke-linecap="round" stroke-linejoin="round"/>
<path d="M41 275.268H230.86" stroke="#1A2E35" stroke-width="1.1" stroke-linecap="round" stroke-linejoin="round"/>
<path d="M167.52 198.488H88.2899V203.038H167.52V198.488Z" fill="white" stroke="#1A2E35" stroke-width="1.1" stroke-linecap="round" stroke-linejoin="round"/>
<path d="M130.28 203.048H125.52V274.998H130.28V203.048Z" fill="white" stroke="#1A2E35" stroke-width="1.1" stroke-linecap="round" stroke-linejoin="round"/>
<path d="M125.52 256.198V262.978C125.52 262.978 119.54 263.398 118.04 268.158C117.5 269.888 116.53 271.457 115.15 272.617L112.32 274.987H107.8L111.19 271.378C112.37 270.118 113.17 268.558 113.54 266.878C114.37 263.108 117.05 256.198 125.51 256.198H125.52Z" fill="white" stroke="#1A2E35" stroke-width="1.1" stroke-linecap="round" stroke-linejoin="round"/>
<path d="M130.29 256.198V262.978C130.29 262.978 136.27 263.398 137.77 268.158C138.31 269.888 139.28 271.457 140.66 272.617L143.49 274.987H148.01L144.62 271.378C143.44 270.118 142.64 268.558 142.27 266.878C141.44 263.108 138.76 256.198 130.3 256.198H130.29Z" fill="white" stroke="#1A2E35" stroke-width="1.1" stroke-linecap="round" stroke-linejoin="round"/>
<path d="M131.35 251.038H124.46V254.448H131.35V251.038Z" fill="white" stroke="#1A2E35" stroke-width="1.1" stroke-linecap="round" stroke-linejoin="round"/>
<path d="M131.35 208.648H124.46V212.058H131.35V208.648Z" fill="white" stroke="#1A2E35" stroke-width="1.1" stroke-linecap="round" stroke-linejoin="round"/>
<path opacity="0.33" d="M228.72 91.7776L53.97 107.948L50.2 67.2576C108.13 55.4376 166.06 43.6176 223.99 31.7976C225.56 51.7876 227.14 71.7876 228.71 91.7776H228.72Z" fill="white" stroke="#262626" stroke-width="1.72" stroke-linecap="round" stroke-linejoin="round"/>
<path d="M225.06 88.4376L50.3 104.608C50.03 91.9876 49.77 79.3576 49.5 66.7376C107.66 55.2476 165.83 43.7676 223.99 32.2776C224.34 50.9976 224.7 69.7176 225.05 88.4376H225.06Z" fill="#2D2D2D" stroke="white" stroke-width="1.72" stroke-linecap="round" stroke-linejoin="round"/>
<path d="M183.01 64.2875L91.6099 72.7475C91.2199 63.4375 90.8299 54.1175 90.4399 44.8075C120.74 37.4875 151.04 30.1775 181.34 22.8575C181.9 36.6675 182.45 50.4775 183.01 64.2875Z" fill="#2D2D2D" stroke="white" stroke-width="1.72" stroke-linecap="round" stroke-linejoin="round"/>
<path d="M114.32 46.9075L115.07 55.3275L115.8 63.4275L115.95 65.1275C115.98 65.3375 115.95 65.5375 115.82 65.7075C115.71 65.8675 115.53 66.0175 115.27 66.1575C115.01 66.2975 114.61 66.3875 114.08 66.4375C113.2 66.5175 112.3 66.5275 111.39 66.4775C110.61 66.4275 109.74 66.3175 108.8 66.1575C107.86 65.9975 106.96 65.7175 106.1 65.3275L111.95 64.8075L111.36 58.5075L111.32 58.5375H111.3C110.68 59.2175 110.04 59.7475 109.41 60.1275C108.77 60.5075 108.19 60.7975 107.66 60.9975C107.04 61.2175 106.44 61.3775 105.85 61.4575C105.12 61.4775 104.48 61.3975 103.92 61.2275C103.36 61.0575 102.87 60.8175 102.45 60.5275C102.03 60.2375 101.66 59.8875 101.36 59.4975C101.06 59.1075 100.8 58.6975 100.6 58.2775C100.12 57.3175 99.81 56.2075 99.69 54.9575C99.62 54.1375 99.64 53.4175 99.75 52.7875C99.86 52.1575 100.03 51.6075 100.25 51.1175C100.47 50.6375 100.74 50.2175 101.07 49.8775C101.39 49.5375 101.72 49.2475 102.07 48.9975C102.86 48.4375 103.79 48.0775 104.88 47.9275C105.7 47.8675 106.4 47.8875 106.99 47.9875C107.58 48.0875 108.07 48.2075 108.46 48.3575C108.92 48.5275 109.31 48.7475 109.64 49.0075C109.74 49.0775 109.84 49.1475 109.93 49.2275C110.11 49.3775 110.33 49.6075 110.58 49.8975L110.35 47.2875L114.34 46.9275L114.32 46.9075ZM110.98 54.5475C110.89 54.0975 110.74 53.6875 110.5 53.3175C110.27 52.9475 109.98 52.6375 109.64 52.3875C109.3 52.1375 108.91 51.9475 108.49 51.8175C108.07 51.6875 107.63 51.6475 107.17 51.6875C106.69 51.7275 106.24 51.8575 105.82 52.0775C105.4 52.2975 105.05 52.5775 104.76 52.9275C104.47 53.2775 104.25 53.6675 104.11 54.1175C103.97 54.5675 103.92 55.0275 103.96 55.5175C104 55.9975 104.14 56.4475 104.36 56.8675C104.58 57.2775 104.86 57.6375 105.21 57.9275C105.56 58.2175 105.95 58.4375 106.4 58.5875C106.85 58.7375 107.31 58.7875 107.8 58.7475C108.25 58.7075 108.67 58.5875 109.06 58.3775C109.45 58.1775 109.78 57.9175 110.08 57.6075C110.37 57.2975 110.6 56.9475 110.77 56.5375C110.94 56.1375 111.03 55.7075 111.03 55.2475L110.97 54.5475H110.98Z" fill="#AFE239"/>
<path d="M133.99 58.7675L129.09 59.2075L128.12 56.2775C127.5 57.1675 126.84 57.8575 126.14 58.3375C125.44 58.8175 124.79 59.1675 124.17 59.3975C123.46 59.6575 122.75 59.8075 122.04 59.8375C121.36 59.8975 120.76 59.8875 120.23 59.8075C119.7 59.7275 119.25 59.5975 118.86 59.4175C118.47 59.2375 118.14 59.0175 117.86 58.7675C117.59 58.5075 117.36 58.2475 117.18 57.9675C116.74 57.3175 116.48 56.5675 116.41 55.7075C116.36 55.1075 116.39 54.5575 116.5 54.0675C116.62 53.5775 116.78 53.1475 117 52.7675C117.22 52.3875 117.48 52.0575 117.78 51.7675C118.08 51.4775 118.4 51.2275 118.73 51.0175C119.49 50.5375 120.38 50.1975 121.38 49.9975C122.15 49.9475 122.83 49.9475 123.41 50.0175C123.99 50.0875 124.46 50.1775 124.84 50.2975C125.28 50.4275 125.66 50.5975 125.98 50.8175L124.43 46.4975L117.44 47.1275C118.98 46.3175 120.26 45.6875 121.28 45.2375C122.3 44.7875 123.12 44.4475 123.74 44.2275C124.46 43.9775 125.03 43.8275 125.44 43.7575C125.82 43.7275 126.17 43.7375 126.48 43.7875C126.8 43.8475 127.08 43.9275 127.34 44.0575C127.59 44.1775 127.82 44.3275 128.02 44.4875C128.22 44.6575 128.39 44.8275 128.55 45.0075C128.91 45.4375 129.19 45.9275 129.39 46.4875L133.99 58.7675ZM124.56 57.3675C124.95 57.3275 125.31 57.2275 125.64 57.0575C125.97 56.8875 126.25 56.6575 126.48 56.3775C126.71 56.0975 126.89 55.7775 127.01 55.4275C127.13 55.0775 127.17 54.6975 127.14 54.3075C127.1 53.9175 127 53.5575 126.81 53.2275C126.63 52.8975 126.4 52.6175 126.12 52.3875C125.84 52.1575 125.52 51.9775 125.17 51.8575C124.82 51.7375 124.44 51.6975 124.05 51.7275C123.66 51.7675 123.3 51.8675 122.97 52.0575C122.64 52.2375 122.36 52.4675 122.13 52.7475C121.9 53.0275 121.72 53.3475 121.6 53.6975C121.48 54.0475 121.44 54.4275 121.47 54.8175C121.51 55.2075 121.61 55.5675 121.8 55.8975C121.98 56.2275 122.21 56.5075 122.49 56.7375C122.77 56.9675 123.09 57.1475 123.44 57.2575C123.79 57.3675 124.17 57.4075 124.56 57.3775V57.3675Z" fill="#AFE239"/>
<path d="M151.1 41.6875C151.72 41.6475 152.2 41.7674 152.54 42.0374C152.88 42.3074 153.12 42.6374 153.28 42.9974C153.47 43.4174 153.58 43.9174 153.62 44.4774L154.78 56.9074L150.9 57.2575L149.89 46.0275C149.87 45.4975 149.77 45.1075 149.59 44.8675C149.41 44.6275 149.22 44.4575 149.03 44.3675C148.79 44.2675 148.54 44.2375 148.27 44.2775C147.95 44.3075 147.71 44.3974 147.55 44.5474C147.39 44.6974 147.28 44.8574 147.22 45.0374V45.0575L148.06 56.4175L148.16 57.5075L144.01 57.8774H143.99L142.96 46.6574C142.94 46.1274 142.86 45.7375 142.71 45.4875C142.56 45.2475 142.39 45.0775 142.22 44.9875C142.03 44.8875 141.81 44.8474 141.57 44.8874C141.22 44.9374 140.97 45.0374 140.82 45.1974C140.67 45.3574 140.56 45.5275 140.5 45.7175C140.43 45.9374 140.4 46.1775 140.43 46.4375L141.48 58.1175L137.17 58.5075L136.06 45.3475L133.04 45.6175C133.82 44.9975 134.48 44.5175 135.03 44.1675C135.57 43.8175 136.01 43.5675 136.34 43.3975C136.72 43.1975 137.03 43.0874 137.27 43.0674C137.81 42.9874 138.28 43.0174 138.66 43.1574C139.04 43.2974 139.36 43.4674 139.61 43.6574C139.91 43.8874 140.14 44.1675 140.32 44.4875C140.87 43.9775 141.39 43.5875 141.87 43.3075C142.36 43.0275 142.78 42.8074 143.15 42.6574C143.58 42.4974 143.98 42.3975 144.36 42.3475C144.71 42.3175 145.01 42.3474 145.28 42.4274C145.55 42.5074 145.78 42.6275 146 42.7775C146.21 42.9275 146.4 43.0974 146.57 43.2974C146.74 43.4974 146.9 43.6975 147.03 43.8975C147.73 43.3875 148.34 42.9975 148.86 42.7075C149.37 42.4175 149.8 42.1974 150.14 42.0474C150.52 41.8774 150.85 41.7674 151.12 41.7274L151.1 41.6875Z" fill="#AFE239"/>
<path d="M167.04 54.2775C167.82 54.2975 168.52 54.2175 169.13 54.0275C169.75 53.8475 170.3 53.5875 170.8 53.2675C171.3 52.9475 171.74 52.5775 172.13 52.1675C172.52 51.7475 172.87 51.3275 173.18 50.8875C173.35 51.0675 173.43 51.2575 173.44 51.4475C173.44 51.6375 173.4 51.8175 173.31 51.9975C173.22 52.1775 173.1 52.3375 172.95 52.4975C172.81 52.6575 172.68 52.7875 172.58 52.8875C171.77 53.7375 170.82 54.4175 169.71 54.9275C168.6 55.4375 167.45 55.7675 166.25 55.9275C165.05 56.0775 163.86 56.0475 162.67 55.8375C161.49 55.6275 160.41 55.2275 159.45 54.6375C158.49 54.0575 157.69 53.2775 157.06 52.3075C156.42 51.3375 156.05 50.1675 155.95 48.8075C155.86 47.6675 155.98 46.6475 156.31 45.7275C156.64 44.8075 157.12 43.9975 157.75 43.2875C158.38 42.5875 159.12 41.9975 159.98 41.5175C160.84 41.0475 161.75 40.6875 162.73 40.4375C163.71 40.1875 164.7 40.0675 165.73 40.0675C166.75 40.0675 167.74 40.1875 168.69 40.4275C169.64 40.6675 170.52 41.0475 171.34 41.5475C172.15 42.0575 172.84 42.6875 173.4 43.4475C173.16 43.6475 172.84 43.9675 172.43 44.3975C172.03 44.8275 171.57 45.3375 171.07 45.9175C170.57 46.4975 170.03 47.1275 169.47 47.8075C168.91 48.4875 168.34 49.1775 167.77 49.8675C167.2 50.5575 166.64 51.2275 166.09 51.8775C165.54 52.5275 165.04 53.1175 164.58 53.6475C165.38 54.0475 166.2 54.2575 167.04 54.2775ZM170.25 42.1475C169.44 41.7675 168.62 41.5475 167.8 41.4875C166.98 41.4275 166.2 41.5175 165.47 41.7275C164.74 41.9475 164.06 42.2875 163.44 42.7475C162.82 43.2075 162.3 43.7675 161.9 44.4175C161.49 45.0675 161.21 45.8175 161.06 46.6375C160.91 47.4675 160.92 48.3575 161.12 49.3175C161.29 50.1675 161.62 50.9375 162.13 51.6075C162.63 52.2775 163.23 52.8375 163.93 53.2775C164.24 52.6875 164.6 52.0275 165.01 51.3175C165.42 50.6075 165.84 49.8775 166.27 49.1375C166.7 48.3975 167.13 47.6575 167.56 46.9175C167.99 46.1775 168.39 45.4975 168.75 44.8675C169.11 44.2375 169.43 43.6875 169.7 43.2175C169.97 42.7475 170.16 42.3875 170.28 42.1475H170.25Z" fill="#AFE239"/>
<path d="M81.28 81.3075C80.46 80.9575 79.65 80.7575 78.83 80.7075C78.02 80.6675 77.24 80.7575 76.5 80.9775C75.76 81.1975 75.09 81.5475 74.48 82.0175C73.87 82.4875 73.37 83.0575 72.98 83.7175C72.58 84.3775 72.32 85.1275 72.19 85.9575C72.06 86.7875 72.1 87.6775 72.3 88.6175C72.45 89.3175 72.73 89.9675 73.13 90.5575C73.53 91.1475 74 91.6575 74.54 92.0775C75.08 92.4975 75.67 92.8375 76.32 93.0775C76.96 93.3275 77.61 93.4376 78.27 93.4276C79.05 93.4276 79.75 93.3475 80.36 93.1475C80.97 92.9475 81.53 92.6975 82.02 92.3775C82.51 92.0575 82.95 91.6875 83.32 91.2675C83.7 90.8475 84.03 90.4075 84.34 89.9675C84.51 90.1475 84.6 90.3275 84.61 90.5175C84.61 90.7075 84.57 90.8875 84.49 91.0675C84.4 91.2476 84.29 91.4075 84.14 91.5675C83.99 91.7275 83.88 91.8575 83.78 91.9675C82.99 92.8275 82.04 93.5275 80.95 94.0475C79.85 94.5675 78.7 94.9175 77.5 95.0875C76.3 95.2575 75.1 95.2575 73.9 95.0675C72.7 94.8776 71.61 94.5075 70.63 93.9375C69.65 93.3675 68.82 92.6075 68.16 91.6575C67.5 90.7075 67.11 89.5475 66.98 88.1875C66.88 87.0675 66.98 86.0475 67.29 85.1175C67.6 84.1875 68.07 83.3775 68.7 82.6675C69.33 81.9575 70.07 81.3576 70.93 80.8576C71.79 80.3576 72.71 79.9875 73.68 79.7275C74.65 79.4675 75.66 79.3275 76.69 79.3075C77.72 79.2875 78.72 79.3875 79.68 79.6175C80.64 79.8475 81.53 80.2075 82.35 80.6975C83.17 81.1775 83.87 81.7975 84.44 82.5475C83.52 83.3375 82.55 84.0676 81.55 84.7476C80.55 85.4276 79.58 86.1575 78.66 86.9475C78.81 86.5075 78.99 86.0475 79.2 85.5775C79.41 85.1075 79.63 84.6275 79.86 84.1475C80.09 83.6675 80.33 83.1875 80.58 82.7075C80.83 82.2275 81.06 81.7676 81.29 81.3176L81.28 81.3075Z" fill="white"/>
<path d="M91.83 82.0976C92.56 82.0476 93.2 82.0976 93.77 82.2076C94.33 82.3276 94.83 82.5076 95.27 82.7376C95.71 82.9676 96.08 83.2276 96.39 83.5376C96.7 83.8376 96.96 84.1476 97.18 84.4576C97.67 85.2176 98 86.0875 98.17 87.0775C98.2 87.8075 98.16 88.4576 98.04 89.0276C97.92 89.5976 97.74 90.0976 97.5 90.5276C97.26 90.9576 96.99 91.3276 96.68 91.6376C96.37 91.9476 96.05 92.1975 95.72 92.4075C94.93 92.8875 94.03 93.2076 93.03 93.3576C92.29 93.4176 91.63 93.3975 91.05 93.2975C90.47 93.1875 89.97 93.0276 89.54 92.8076C89.11 92.5876 88.74 92.3175 88.44 92.0075C88.13 91.6975 87.87 91.3775 87.65 91.0475C87.15 90.2575 86.83 89.3575 86.69 88.3275C86.66 87.5975 86.71 86.9476 86.84 86.3776C86.97 85.8076 87.15 85.3076 87.39 84.8776C87.63 84.4476 87.9 84.0776 88.21 83.7676C88.52 83.4576 88.84 83.2076 89.17 82.9976C89.94 82.5176 90.84 82.2175 91.84 82.0875L91.83 82.0976ZM94.07 92.5276C94.37 92.4676 94.58 92.3576 94.7 92.2076C94.82 92.0576 94.9 91.8975 94.92 91.7275C94.96 91.5375 94.95 91.3275 94.9 91.0876L92.12 83.6875C92.01 83.4075 91.87 83.2175 91.7 83.1175C91.53 83.0175 91.36 82.9576 91.19 82.9476C90.99 82.9476 90.78 82.9776 90.56 83.0576C90.31 83.1476 90.13 83.2575 90.04 83.3975C89.94 83.5375 89.88 83.6875 89.85 83.8375C89.81 84.0075 89.81 84.1876 89.86 84.3876L92.66 91.7376C92.81 92.0276 92.97 92.2276 93.13 92.3376C93.29 92.4475 93.44 92.5276 93.58 92.5576C93.75 92.5976 93.92 92.5876 94.08 92.5276H94.07Z" fill="white"/>
<path d="M112.08 77.8975C111.44 78.4575 110.76 78.9775 110.06 79.4575C109.36 79.9375 108.68 80.4475 108.04 80.9875C108.25 80.3675 108.53 79.7175 108.88 79.0275C109.23 78.3375 109.57 77.6775 109.88 77.0575C109.1 76.7175 108.27 76.5775 107.4 76.6475C106.53 76.7175 105.73 76.9475 105 77.3475C104.27 77.7475 103.67 78.2875 103.18 78.9575C102.7 79.6375 102.45 80.4075 102.43 81.2575L102.81 83.7575L104.71 83.5275L108.21 83.0375L108.46 85.3675L107.92 85.4275L107.47 85.4775L103.15 85.7975L104.11 91.9475L100.35 92.3475L100.26 91.4675L100.18 90.7375L99.21 81.6375C99.13 80.8875 99.21 80.2175 99.48 79.6375C99.74 79.0575 100.05 78.5775 100.4 78.1875C100.81 77.7275 101.29 77.3375 101.83 76.9975C102.6 76.5075 103.48 76.1375 104.45 75.9075C105.42 75.6775 106.39 75.5875 107.35 75.6575C108.31 75.7275 109.21 75.9375 110.05 76.3075C110.89 76.6775 111.57 77.1975 112.09 77.8775L112.08 77.8975Z" fill="white"/>
<path d="M124.13 76.6075C123.49 77.1675 122.81 77.6875 122.11 78.1675C121.41 78.6475 120.73 79.1575 120.09 79.6975C120.3 79.0775 120.58 78.4275 120.93 77.7375C121.28 77.0475 121.62 76.3975 121.93 75.7675C121.15 75.4275 120.32 75.2875 119.45 75.3575C118.58 75.4275 117.78 75.6575 117.05 76.0575C116.32 76.4575 115.72 76.9975 115.23 77.6675C114.75 78.3475 114.5 79.1175 114.48 79.9675L114.86 82.4675L116.76 82.2375L120.26 81.7475L120.51 84.0775L119.97 84.1375L119.52 84.1875L115.2 84.5075L116.16 90.6575L112.4 91.0575L112.31 90.1775L112.23 89.4475L111.26 80.3475C111.18 79.5975 111.26 78.9275 111.53 78.3475C111.79 77.7675 112.1 77.2875 112.45 76.8975C112.86 76.4375 113.34 76.0475 113.88 75.7075C114.65 75.2175 115.52 74.8475 116.5 74.6175C117.47 74.3875 118.44 74.2975 119.4 74.3675C120.36 74.4375 121.26 74.6475 122.1 75.0175C122.94 75.3875 123.62 75.9075 124.13 76.5875V76.6075Z" fill="white"/>
<path d="M132.22 88.0375C132.75 88.0375 133.24 87.9775 133.66 87.8375C134.09 87.6975 134.47 87.5175 134.82 87.2875C135.16 87.0575 135.47 86.7975 135.73 86.5075C136 86.2075 136.23 85.9075 136.45 85.5975C136.57 85.7175 136.63 85.8475 136.64 85.9875C136.64 86.1275 136.62 86.2575 136.56 86.3775C136.5 86.4975 136.42 86.6175 136.32 86.7275C136.23 86.8375 136.14 86.9375 136.08 87.0175C135.53 87.6075 134.86 88.0975 134.06 88.4675C133.26 88.8475 132.42 89.0975 131.53 89.2175C130.64 89.3375 129.75 89.3375 128.86 89.2175C127.97 89.0975 127.16 88.8275 126.43 88.4375C125.7 88.0375 125.09 87.5175 124.6 86.8575C124.11 86.1975 123.82 85.3975 123.73 84.4375C123.66 83.6475 123.74 82.9375 123.98 82.2775C124.21 81.6275 124.57 81.0475 125.03 80.5475C125.5 80.0475 126.05 79.6275 126.68 79.2775C127.31 78.9375 127.99 78.6675 128.71 78.4775C129.43 78.2875 130.17 78.1775 130.92 78.1575C131.67 78.1375 132.4 78.2075 133.1 78.3675C133.8 78.5275 134.44 78.7775 135.03 79.1075C135.62 79.4375 136.11 79.8675 136.51 80.3875C136.26 80.5975 135.89 80.9875 135.42 81.5575C134.95 82.1275 134.42 82.7675 133.85 83.4775C133.28 84.1875 132.69 84.9175 132.1 85.6575C131.51 86.3975 130.97 87.0475 130.5 87.6075C131.03 87.8675 131.6 88.0075 132.22 88.0175V88.0375ZM134.31 79.5475C133.46 79.1675 132.61 79.0275 131.77 79.1475C130.93 79.2575 130.2 79.5575 129.58 80.0475C128.96 80.5375 128.49 81.1775 128.18 81.9775C127.87 82.7775 127.82 83.6775 128.03 84.6675C128.17 85.2475 128.41 85.7675 128.77 86.2375C129.12 86.7075 129.54 87.0875 130.02 87.3875C130.23 86.9675 130.48 86.5075 130.75 86.0075C131.02 85.5075 131.31 84.9875 131.6 84.4575C131.89 83.9275 132.19 83.4075 132.48 82.8975C132.77 82.3875 133.03 81.9075 133.28 81.4675C133.52 81.0275 133.74 80.6375 133.92 80.2975C134.1 79.9575 134.23 79.7075 134.31 79.5475Z" fill="white"/>
<path d="M146.74 86.4875C147.28 86.4875 147.76 86.4275 148.19 86.2875C148.62 86.1475 149 85.9675 149.35 85.7375C149.69 85.5075 150 85.2475 150.26 84.9575C150.53 84.6575 150.76 84.3575 150.97 84.0475C151.09 84.1675 151.15 84.2975 151.16 84.4375C151.16 84.5775 151.14 84.7075 151.08 84.8275C151.02 84.9475 150.94 85.0675 150.84 85.1775C150.75 85.2875 150.66 85.3875 150.6 85.4675C150.05 86.0575 149.38 86.5475 148.58 86.9175C147.78 87.2975 146.94 87.5475 146.05 87.6675C145.16 87.7875 144.27 87.7875 143.38 87.6675C142.49 87.5475 141.68 87.2775 140.95 86.8875C140.22 86.4875 139.61 85.9675 139.12 85.3075C138.63 84.6475 138.34 83.8475 138.25 82.8875C138.18 82.0975 138.26 81.3875 138.5 80.7275C138.73 80.0775 139.09 79.4975 139.55 78.9975C140.02 78.4975 140.57 78.0775 141.2 77.7275C141.84 77.3875 142.51 77.1175 143.23 76.9275C143.95 76.7375 144.69 76.6275 145.44 76.6075C146.19 76.5875 146.92 76.6575 147.62 76.8175C148.32 76.9775 148.96 77.2275 149.55 77.5575C150.14 77.8875 150.63 78.3175 151.03 78.8375C150.78 79.0475 150.41 79.4375 149.94 80.0075C149.47 80.5775 148.94 81.2175 148.37 81.9275C147.8 82.6375 147.21 83.3675 146.62 84.1075C146.03 84.8475 145.49 85.4975 145.02 86.0575C145.55 86.3175 146.12 86.4575 146.73 86.4675L146.74 86.4875ZM148.83 77.9975C147.98 77.6175 147.13 77.4775 146.29 77.5975C145.45 77.7075 144.72 78.0075 144.1 78.4975C143.48 78.9875 143.01 79.6275 142.7 80.4275C142.39 81.2275 142.34 82.1275 142.55 83.1175C142.69 83.6975 142.93 84.2175 143.29 84.6875C143.65 85.1575 144.06 85.5375 144.54 85.8375C144.75 85.4175 145 84.9575 145.27 84.4575C145.54 83.9575 145.83 83.4375 146.12 82.9075C146.41 82.3775 146.71 81.8575 147 81.3475C147.29 80.8375 147.55 80.3575 147.8 79.9175C148.04 79.4775 148.26 79.0875 148.44 78.7475C148.62 78.4075 148.75 78.1575 148.83 77.9975Z" fill="white"/>
<path d="M166.04 76.8375C166.87 76.8975 167.65 77.0675 168.36 77.3175C168.66 77.4175 168.97 77.5575 169.27 77.7375C169.58 77.9075 169.86 78.1175 170.13 78.3575C170.39 78.5975 170.62 78.8775 170.83 79.1875C171.03 79.4975 171.18 79.8675 171.27 80.2875C171.41 80.8675 171.42 81.3975 171.29 81.8875C171.17 82.3775 170.96 82.7875 170.68 83.1175C170.26 83.6075 169.72 84.0175 169.07 84.3575C168.42 84.6975 167.71 84.9475 166.94 85.1275C166.17 85.2975 165.37 85.4075 164.54 85.4275C163.71 85.4475 162.9 85.4175 162.1 85.2975C161.3 85.1875 160.55 85.0075 159.85 84.7675C159.15 84.5275 158.54 84.2275 158.02 83.8475C157.92 83.7675 157.82 83.6675 157.71 83.5475C157.61 83.4275 157.52 83.2975 157.46 83.1575C157.4 83.0175 157.38 82.8575 157.39 82.6875C157.4 82.5075 157.47 82.3275 157.58 82.1275C157.92 82.4775 158.26 82.7775 158.58 83.0375C158.91 83.2975 159.26 83.5175 159.66 83.6875C160.05 83.8575 160.5 83.9875 161.01 84.0775C161.51 84.1675 162.11 84.2175 162.8 84.2175C164.37 84.2175 165.47 83.9875 166.08 83.5375C166.7 83.0775 166.97 82.3675 166.92 81.3975C166.86 80.8675 166.78 80.4475 166.66 80.1275C166.54 79.8075 166.26 79.5675 165.82 79.4075C165.69 79.3575 165.49 79.3075 165.22 79.2375C164.95 79.1775 164.59 79.1675 164.15 79.2175C164.12 79.2175 164.02 79.2175 163.84 79.2275C163.66 79.2275 163.47 79.2275 163.27 79.2275C163.06 79.2275 162.87 79.2275 162.69 79.2275C162.51 79.2275 162.41 79.2275 162.39 79.2275C161.9 79.2275 161.47 79.1475 161.1 79.0075C160.73 78.8775 160.39 78.7075 160.1 78.5075C159.81 78.3075 159.55 78.0875 159.34 77.8175C159.13 77.5575 158.95 77.2975 158.8 77.0375C158.46 76.4375 158.23 75.7375 158.1 74.9575C158.07 74.0575 158.25 73.2575 158.67 72.5375C159.08 71.8175 159.63 71.2175 160.31 70.7275C160.99 70.2375 161.76 69.8575 162.62 69.5975C163.48 69.3375 164.33 69.2175 165.19 69.2375C166.05 69.2575 166.86 69.4375 167.63 69.7575C168.4 70.0775 169.03 70.5775 169.53 71.2375C168.93 71.7475 168.3 72.2275 167.64 72.6875C166.98 73.1475 166.34 73.6275 165.72 74.1375C165.83 73.8475 165.95 73.5775 166.09 73.3075C166.23 73.0375 166.38 72.7775 166.55 72.5275C166.71 72.2775 166.88 72.0075 167.04 71.7375C167.2 71.4675 167.36 71.1775 167.51 70.8775C166.71 70.5175 165.91 70.3475 165.11 70.3575C164.31 70.3575 163.61 70.5475 163 70.8875C162.4 71.2375 161.94 71.7375 161.64 72.3975C161.34 73.0575 161.29 73.8575 161.5 74.7975C161.63 75.3375 161.92 75.7875 162.37 76.1475C162.81 76.5175 163.45 76.6975 164.27 76.6975L164.75 76.7175C164.92 76.7275 165.12 76.7475 165.34 76.7575C165.56 76.7675 165.81 76.7875 166.09 76.8075L166.04 76.8375Z" fill="white"/>
<path d="M180.3 72.6975C180.74 72.6475 181.09 72.7375 181.35 72.9475C181.61 73.1675 181.82 73.4175 181.97 73.7075C182.14 74.0375 182.28 74.4275 182.37 74.8575L183.16 83.4975L179.17 83.9275L178.34 76.1575C178.32 75.7975 178.25 75.5275 178.13 75.3575C178.01 75.1875 177.88 75.0675 177.74 75.0075C177.57 74.9475 177.38 74.9275 177.18 74.9475C176.94 74.9775 176.77 75.0475 176.66 75.1675C176.55 75.2875 176.48 75.4075 176.44 75.5375C176.4 75.6975 176.38 75.8575 176.4 76.0275L177.27 84.1375L173.31 84.5575H173.29L173.19 83.6575L173.11 82.9075L171.76 69.6275L169.18 69.9075C169.93 69.3975 170.59 68.9975 171.14 68.6975C171.69 68.3975 172.15 68.1775 172.53 68.0075C172.97 67.8275 173.34 67.7075 173.64 67.6575C173.77 67.6175 173.91 67.5775 174.07 67.5675C174.19 67.5675 174.32 67.5875 174.46 67.6175C174.6 67.6475 174.74 67.7175 174.87 67.8275L175.9 74.2275C176.29 73.9875 176.73 73.7675 177.24 73.5775C177.75 73.3875 178.23 73.2275 178.69 73.0975C179.22 72.9475 179.77 72.8175 180.32 72.6975H180.3Z" fill="white"/>
<path d="M189.51 71.6475C190.24 71.5975 190.88 71.6475 191.45 71.7575C192.01 71.8775 192.51 72.0575 192.95 72.2875C193.39 72.5175 193.76 72.7775 194.07 73.0875C194.38 73.3875 194.64 73.6975 194.86 74.0075C195.35 74.7675 195.68 75.6375 195.85 76.6275C195.88 77.3575 195.84 78.0075 195.71 78.5775C195.58 79.1475 195.41 79.6475 195.17 80.0775C194.93 80.5075 194.66 80.8775 194.35 81.1875C194.04 81.4975 193.72 81.7475 193.39 81.9575C192.6 82.4375 191.7 82.7575 190.7 82.9075C189.96 82.9675 189.3 82.9475 188.72 82.8475C188.14 82.7375 187.64 82.5775 187.21 82.3575C186.78 82.1375 186.41 81.8675 186.11 81.5575C185.8 81.2475 185.54 80.9275 185.32 80.5975C184.82 79.8075 184.51 78.9075 184.36 77.8775C184.33 77.1475 184.38 76.4975 184.51 75.9275C184.64 75.3575 184.82 74.8575 185.06 74.4275C185.3 73.9975 185.57 73.6275 185.88 73.3175C186.19 73.0075 186.51 72.7575 186.84 72.5475C187.61 72.0675 188.5 71.7675 189.51 71.6375V71.6475ZM191.75 82.0775C192.05 82.0175 192.26 81.9075 192.38 81.7575C192.5 81.6075 192.58 81.4475 192.6 81.2775C192.64 81.0875 192.63 80.8775 192.58 80.6375L189.8 73.2375C189.69 72.9575 189.56 72.7675 189.38 72.6675C189.21 72.5675 189.04 72.5075 188.87 72.4975C188.67 72.4975 188.46 72.5275 188.24 72.6075C187.99 72.6975 187.82 72.8075 187.72 72.9475C187.62 73.0875 187.56 73.2375 187.53 73.3875C187.49 73.5575 187.49 73.7375 187.54 73.9375L190.34 81.2875C190.49 81.5775 190.65 81.7775 190.81 81.8875C190.97 81.9975 191.12 82.0775 191.26 82.1075C191.43 82.1475 191.6 82.1375 191.76 82.0775H191.75Z" fill="white"/>
<path d="M206.28 70.1675C207.43 70.1975 208.48 70.3975 209.44 70.7675C209.84 70.9275 210.24 71.1275 210.64 71.3675C211.04 71.6075 211.41 71.9175 211.75 72.2775C212.09 72.6375 212.37 73.0675 212.6 73.5475C212.83 74.0275 212.98 74.5975 213.04 75.2275C213.04 76.1475 212.86 76.9875 212.49 77.7575C212.33 78.0775 212.12 78.4075 211.86 78.7275C211.6 79.0575 211.28 79.3475 210.9 79.6175C210.52 79.8875 210.06 80.1175 209.52 80.3175C208.98 80.5075 208.36 80.6475 207.65 80.7275C207.05 80.8175 206.43 80.8375 205.78 80.7675C205.21 80.7075 204.57 80.5675 203.86 80.3475C203.15 80.1275 202.42 79.7375 201.68 79.1975L202.84 86.9975L199.08 87.3975L198.99 86.5175H198.97L198.91 85.7975L197.58 72.9075L195.27 73.1575C195.95 72.6675 196.54 72.2875 197.03 72.0075C197.52 71.7275 197.93 71.5075 198.26 71.3475C198.64 71.1675 198.97 71.0575 199.25 71.0075C199.34 71.0075 199.45 70.9975 199.57 70.9975C199.68 71.0175 199.8 71.0375 199.93 71.0575C200.06 71.0775 200.21 71.1275 200.37 71.1775C200.44 71.2475 200.5 71.3675 200.57 71.5475C200.62 71.7075 200.67 71.9375 200.74 72.2275C200.8 72.5175 200.85 72.9075 200.89 73.3875C200.99 73.1975 201.09 73.0175 201.19 72.8775C201.29 72.7375 201.38 72.6075 201.46 72.5075C201.55 72.3875 201.64 72.2875 201.72 72.2075C201.99 71.8875 202.34 71.5975 202.77 71.3175C203.14 71.0775 203.62 70.8475 204.2 70.6375C204.78 70.4275 205.49 70.2675 206.31 70.1575L206.28 70.1675ZM204.52 78.7175C204.93 78.6775 205.3 78.5575 205.65 78.3575C206 78.1575 206.29 77.9075 206.53 77.6075C206.77 77.3075 206.95 76.9675 207.07 76.5875C207.19 76.2075 207.23 75.8175 207.18 75.4075C207.14 74.9975 207.02 74.6275 206.82 74.2775C206.62 73.9275 206.37 73.6375 206.07 73.3975C205.77 73.1575 205.43 72.9775 205.05 72.8575C204.67 72.7375 204.28 72.6975 203.87 72.7475C203.46 72.7875 203.09 72.9175 202.74 73.1075C202.4 73.3075 202.1 73.5575 201.86 73.8575C201.62 74.1575 201.44 74.4975 201.32 74.8775C201.2 75.2575 201.16 75.6475 201.21 76.0575L201.24 76.3075C201.31 76.6975 201.45 77.0475 201.65 77.3675C201.85 77.6775 202.1 77.9475 202.4 78.1575C202.7 78.3675 203.03 78.5275 203.39 78.6375C203.75 78.7475 204.13 78.7775 204.52 78.7375V78.7175Z" fill="white"/>
<path d="M56.1499 75.2176C57.7847 75.2176 59.1099 73.8924 59.1099 72.2576C59.1099 70.6228 57.7847 69.2976 56.1499 69.2976C54.5152 69.2976 53.1899 70.6228 53.1899 72.2576C53.1899 73.8924 54.5152 75.2176 56.1499 75.2176Z" fill="#AFE239"/>
<path d="M69.69 72.2575C71.3247 72.2575 72.65 70.9323 72.65 69.2975C72.65 67.6628 71.3247 66.3375 69.69 66.3375C68.0552 66.3375 66.73 67.6628 66.73 69.2975C66.73 70.9323 68.0552 72.2575 69.69 72.2575Z" fill="white"/>
<path d="M84.1099 68.9476C85.7447 68.9476 87.0699 67.6223 87.0699 65.9876C87.0699 64.3528 85.7447 63.0276 84.1099 63.0276C82.4751 63.0276 81.1499 64.3528 81.1499 65.9876C81.1499 67.6223 82.4751 68.9476 84.1099 68.9476Z" fill="#AFE239"/>
<path d="M191.3 47.7976C192.935 47.7976 194.26 46.4723 194.26 44.8376C194.26 43.2028 192.935 41.8776 191.3 41.8776C189.665 41.8776 188.34 43.2028 188.34 44.8376C188.34 46.4723 189.665 47.7976 191.3 47.7976Z" fill="#AFE239"/>
<path d="M203.68 45.5075C205.315 45.5075 206.64 44.1823 206.64 42.5475C206.64 40.9128 205.315 39.5875 203.68 39.5875C202.045 39.5875 200.72 40.9128 200.72 42.5475C200.72 44.1823 202.045 45.5075 203.68 45.5075Z" fill="white"/>
<path d="M216.26 42.5476C217.895 42.5476 219.22 41.2223 219.22 39.5876C219.22 37.9528 217.895 36.6276 216.26 36.6276C214.625 36.6276 213.3 37.9528 213.3 39.5876C213.3 41.2223 214.625 42.5476 216.26 42.5476Z" fill="#AFE239"/>
<path d="M217.9 56.7176C219.535 56.7176 220.86 55.3924 220.86 53.7576C220.86 52.1228 219.535 50.7976 217.9 50.7976C216.265 50.7976 214.94 52.1228 214.94 53.7576C214.94 55.3924 216.265 56.7176 217.9 56.7176Z" fill="white"/>
<path d="M219.22 70.9376C220.855 70.9376 222.18 69.6123 222.18 67.9776C222.18 66.3428 220.855 65.0176 219.22 65.0176C217.585 65.0176 216.26 66.3428 216.26 67.9776C216.26 69.6123 217.585 70.9376 219.22 70.9376Z" fill="#AFE239"/>
<path d="M219.22 85.1676C220.855 85.1676 222.18 83.8423 222.18 82.2076C222.18 80.5728 220.855 79.2476 219.22 79.2476C217.585 79.2476 216.26 80.5728 216.26 82.2076C216.26 83.8423 217.585 85.1676 219.22 85.1676Z" fill="white"/>
<path d="M56.1499 88.1275C57.7847 88.1275 59.1099 86.8023 59.1099 85.1675C59.1099 83.5328 57.7847 82.2075 56.1499 82.2075C54.5152 82.2075 53.1899 83.5328 53.1899 85.1675C53.1899 86.8023 54.5152 88.1275 56.1499 88.1275Z" fill="white"/>
<path d="M57.17 101.808C58.8047 101.808 60.13 100.482 60.13 98.8476C60.13 97.2128 58.8047 95.8876 57.17 95.8876C55.5352 95.8876 54.21 97.2128 54.21 98.8476C54.21 100.482 55.5352 101.808 57.17 101.808Z" fill="#AFE239"/>
<path d="M169.9 135.018L148.92 154.038" stroke="white" stroke-miterlimit="10"/>
<path d="M169.18 141.158L148.19 160.178" stroke="white" stroke-miterlimit="10"/>
<path d="M132.81 141.158L111.82 160.178" stroke="white" stroke-miterlimit="10"/>
<path d="M132.81 158.128L111.82 177.148" stroke="white" stroke-miterlimit="10"/>
<path d="M139.32 175.128L129.82 183.738" stroke="white" stroke-miterlimit="10"/>
<path d="M139.71 171.948L130.21 180.558" stroke="white" stroke-miterlimit="10"/>
<path d="M167.03 148.528L157.53 157.148" stroke="white" stroke-miterlimit="10"/>
<path d="M153.19 259.538C153.19 259.538 149.25 260.298 144.11 259.388C138.96 258.478 133.51 254.088 133.51 254.088L129.12 254.388V235.318C129.12 235.318 136.69 233.958 139.11 234.108C141.53 234.258 153.19 245.768 153.19 245.768V259.548V259.538Z" fill="white" stroke="#1A2E35" stroke-width="0.65" stroke-miterlimit="10"/>
<path d="M133.42 261.558H119.37L117.01 233.708H135.78L133.42 261.558Z" fill="#AFE239" stroke="#262626" stroke-miterlimit="10"/>
<path d="M135.36 229.028H117.88V230.568H135.36V229.028Z" fill="white" stroke="#1A2E35" stroke-width="0.65" stroke-miterlimit="10"/>
<path d="M136.39 230.278H116.41V235.728H136.39V230.278Z" fill="white" stroke="#1A2E35" stroke-width="0.65" stroke-miterlimit="10"/>
<path d="M145.02 255.148C138.06 254.388 137.3 246.818 137.3 246.818C137.3 246.818 132 250.448 129.73 250.448C127.46 250.448 126.85 248.778 126.4 247.618C125.95 246.458 136.54 239.548 136.54 239.548C136.54 239.548 138.51 237.578 140.17 237.578C141.83 237.578 148.95 247.268 150.31 248.928" fill="white"/>
<path d="M145.02 255.148C138.06 254.388 137.3 246.818 137.3 246.818C137.3 246.818 132 250.448 129.73 250.448C127.46 250.448 126.85 248.778 126.4 247.618C125.95 246.458 136.54 239.548 136.54 239.548C136.54 239.548 138.51 237.578 140.17 237.578C141.83 237.578 148.95 247.268 150.31 248.928" stroke="#1A2E35" stroke-width="0.65" stroke-miterlimit="10"/>
<path d="M232.76 275.288L232.21 213.078L229.44 229.168L230.54 275.288H232.76Z" fill="#1A2E35" stroke="#1A2E35" stroke-width="0.65" stroke-miterlimit="10"/>
<path d="M228.38 275.288L228.74 241.458C228.74 241.458 234.03 230.678 234.43 225.638C234.83 220.588 237.66 208.278 235.04 202.628C232.42 196.978 234.72 177.848 234.72 177.848L232.27 169.128C230.66 164.888 215.11 154.998 209.26 152.978C203.41 150.958 196.54 150.558 191.3 151.158C186.05 151.768 183.23 154.788 182.62 155.798C182.01 156.808 178.78 166.498 174.95 171.748C171.11 176.998 167.89 180.828 165.06 184.868C162.23 188.908 160.42 197.178 158.6 202.028C156.78 206.868 153.76 228.468 152.34 239.978C151.1 250.108 151.89 270.568 152.09 275.308H228.38V275.288Z" fill="#AFAFAF" stroke="#1A2E35" stroke-width="0.65" stroke-miterlimit="10"/>
<path d="M172.97 188.908C174.96 186.928 177.34 184.868 179.78 183.438C186.04 179.808 190.48 176.578 190.48 176.578L189.27 169.518L195.73 172.548C195.73 172.548 197.14 168.108 201.18 160.438C205.22 152.768 205.42 151.148 205.42 151.148" stroke="#1A2E35" stroke-width="0.65" stroke-miterlimit="10"/>
<path d="M167.73 194.898C167.73 194.898 169.39 192.668 171.88 190.038" stroke="#1A2E35" stroke-width="0.65" stroke-miterlimit="10"/>
<path d="M195.87 186.448L186.44 275.218H189.77L198.09 189.218L195.87 186.448Z" fill="#1A2E35" stroke="#1A2E35" stroke-width="0.65" stroke-miterlimit="10"/>
<path d="M158.75 275.288C158.56 267.048 157.98 232.918 160.81 220.178C164.04 205.648 166.87 189.298 171.71 182.428C176.55 175.568 186.45 166.888 191.69 161.838C196.94 156.788 199.56 150.128 199.56 150.128L192.29 130.548C192.29 130.548 185.83 141.448 183.81 142.258C183.81 142.258 185.83 151.338 184.42 156.588C183.01 161.838 173.72 176.768 170.9 180.408C168.07 184.038 159.39 204.028 157.58 217.348C155.98 229.098 155.79 266.608 155.77 275.288H158.75Z" fill="white" stroke="#1A2E35" stroke-width="0.65" stroke-miterlimit="10"/>
<path d="M184.42 145.568L194.62 145.358L191.15 137.758L184.42 145.568Z" fill="#1A2E35" stroke="#1A2E35" stroke-width="0.65" stroke-miterlimit="10"/>
<path d="M158.75 275.288C158.56 267.048 157.98 232.918 160.81 220.178C164.04 205.648 166.87 189.298 171.71 182.428C176.55 175.568 186.45 166.888 191.69 161.838C193.5 160.098 194.99 158.168 196.18 156.388C190.42 160.308 185.84 160.438 183.12 159.928C180.09 166.508 173.25 177.378 170.9 180.398C168.07 184.028 159.39 204.018 157.58 217.338C155.98 229.088 155.79 266.598 155.77 275.278H158.75V275.288Z" fill="#AC4EFE"/>
<path d="M183.95 144.118C183.95 144.118 185.93 151.618 185.71 154.928C185.49 158.238 182.62 167.718 179.09 172.788C175.56 177.858 169.83 185.578 165.2 187.568C160.57 189.548 158.8 189.548 158.8 189.548C158.8 189.548 167.84 185.798 169.61 174.768C171.37 163.738 165.64 137.058 165.42 135.288C165.2 133.528 183.94 144.108 183.94 144.108L183.95 144.118Z" fill="#1A2E35" stroke="#1A2E35" stroke-width="0.65" stroke-miterlimit="10"/>
<path d="M158.59 113.568C158.59 113.568 158.15 122.298 159.03 123.828C159.9 125.358 162.3 126.448 162.3 129.068C162.3 131.688 160.12 136.488 161.21 138.018C162.3 139.548 166.23 139.548 166.23 139.548C166.23 139.548 172.12 146.308 173.65 147.838C175.18 149.368 177.36 151.768 178.45 151.328C179.54 150.888 187.83 142.378 189.8 139.108C191.76 135.838 192.86 124.268 191.98 119.248C191.11 114.228 178.89 105.938 172.12 105.498C165.36 105.058 159.24 106.808 159.24 106.808L158.59 113.568Z" fill="white" stroke="#1A2E35" stroke-width="0.65" stroke-miterlimit="10"/>
<path d="M166.22 123.388L167.61 127.058L172.71 123.908" stroke="#1A2E35" stroke-width="0.65" stroke-miterlimit="10"/>
<path d="M163.76 121.958C163.76 121.958 162.37 116.758 169.99 118.148" stroke="#1A2E35" stroke-width="0.65" stroke-miterlimit="10"/>
<path d="M169.06 140.408C169.06 140.408 172.77 139.318 175.61 134.738" stroke="#1A2E35" stroke-width="0.65" stroke-miterlimit="10"/>
<path d="M170.1 126.208C170.31 126.608 170.02 127.178 169.44 127.488C168.86 127.798 168.22 127.728 168.01 127.328C167.8 126.928 168.09 126.358 168.67 126.048C169.25 125.738 169.89 125.808 170.1 126.208Z" fill="#1A2E35"/>
<path d="M163.39 93.7176C163.39 93.7176 149.21 102.888 150.3 105.938C151.39 108.998 158.59 113.578 158.59 113.578L159.24 108.778C159.24 108.778 166.66 112.488 173.64 115.108L180.62 117.728C180.62 117.728 183.02 120.348 183.89 120.998C184.76 121.648 187.82 121.648 187.82 121.648C187.82 121.648 188.91 144.998 193.06 150.458C197.21 155.918 209.21 160.928 217.28 164.428C225.35 167.918 228.91 168.198 231.09 171.248C233.27 174.308 234.12 184.008 234.12 184.008C234.12 184.008 247.31 170.378 228.63 138.018C215.07 114.538 216.63 111.828 212.05 103.978C207.47 96.1176 196.34 84.5576 185.43 83.6876C174.52 82.8176 163.39 93.7276 163.39 93.7276V93.7176Z" fill="#1A2E35" stroke="#1A2E35" stroke-width="0.65" stroke-miterlimit="10"/>
<path d="M215.46 149.178C216.93 149.968 218.48 150.688 220.12 151.328" stroke="#787878" stroke-width="0.65" stroke-miterlimit="10"/>
<path d="M181.4 92.3276C181.4 92.3276 192.09 100.438 193.94 115.188C195.4 126.848 200.31 138.508 210.68 146.158" stroke="#787878" stroke-width="0.65" stroke-miterlimit="10"/>
<path d="M175.24 103.788C178.27 104.748 181.1 105.898 183.25 107.078" stroke="#787878" stroke-width="0.65" stroke-miterlimit="10"/>
<path d="M155.96 106.708C155.96 106.708 152.27 105.228 156.33 102.278C158.73 100.528 165.16 101.108 171.52 102.728" stroke="#787878" stroke-width="0.65" stroke-miterlimit="10"/>
<path d="M187.83 119.678C187.83 119.678 186.08 105.058 181.94 99.3876" stroke="#787878" stroke-width="0.65" stroke-miterlimit="10"/>
<path d="M112.77 216.948L97.14 204.998C96.58 204.568 96.81 203.668 97.52 203.578L105.74 202.468C106.88 202.308 108.04 202.628 108.95 203.348L124.89 215.948L112.78 216.958L112.77 216.948Z" fill="#1A2E35" stroke="#1A2E35" stroke-width="0.65" stroke-miterlimit="10"/>
<path d="M144.46 217.758C144.46 217.758 140.83 214.528 139.62 212.708C138.41 210.888 135.78 209.878 133.56 210.288C131.34 210.688 126.29 209.478 125.49 210.488C124.68 211.498 124.68 214.118 124.68 214.118C124.68 214.118 112.17 214.928 111.16 214.728C110.15 214.528 109.34 216.138 110.15 217.558C110.96 218.968 116.82 220.538 116.82 220.538C116.82 221.678 117.07 222.798 117.57 223.818C118.43 225.578 119.87 228.288 121.05 229.468C122.87 231.288 126.7 232.088 130.74 232.898C134.78 233.708 141.24 232.698 141.24 232.698L144.47 217.758H144.46Z" fill="white" stroke="#1A2E35" stroke-width="0.65" stroke-miterlimit="10"/>
<path d="M124.68 214.128L134.17 213.518" stroke="#1A2E35" stroke-width="0.65" stroke-miterlimit="10"/>
<path d="M116.82 220.538C116.82 220.538 120.81 220.318 123.47 220.758C126.13 221.198 128.35 221.648 129.9 221.198" stroke="#1A2E35" stroke-width="0.65" stroke-miterlimit="10"/>
<path d="M117.57 223.818C117.57 223.818 121.47 224.528 123.25 225.198C125.02 225.868 127.91 227.638 130.79 226.748" stroke="#1A2E35" stroke-width="0.65" stroke-miterlimit="10"/>
<path d="M120.36 228.298C120.36 228.298 125.24 230.518 129.01 230.298" stroke="#1A2E35" stroke-width="0.65" stroke-miterlimit="10"/>
<path d="M230.05 178.198C230.05 178.198 230.86 187.688 230.86 194.548C230.86 201.408 230.05 215.338 225.41 224.828C220.77 234.318 221.98 240.978 217.34 250.458C212.7 259.938 209.47 260.148 196.15 258.938C182.83 257.728 167.69 252.678 166.88 252.678C166.07 252.678 154.16 250.458 148.51 247.628C142.86 244.798 137.41 240.968 137.41 240.968C137.41 240.968 137.61 238.548 138.62 236.128C139.63 233.708 142.86 216.148 142.86 216.148C142.86 216.148 148.92 219.778 154.57 221.598C160.22 223.418 165.47 224.218 165.47 224.218C165.47 224.218 169.31 221.798 170.52 221.388C171.73 220.988 174.15 223.808 177.58 224.618C181.01 225.428 186.26 226.228 187.07 226.228C187.88 226.228 196.13 225.248 195.55 225.418C194.81 225.638 194.13 224.088 194.34 222.798C194.46 222.078 196.36 217.548 196.96 216.738C197.57 215.928 197.57 212.898 197.57 210.888C197.57 208.878 194.74 187.678 196.16 181.818C197.57 175.968 206.05 163.858 206.05 163.858C206.05 163.858 206.42 162.028 210.89 162.038C215.36 162.038 222.6 166.878 225.63 169.508" fill="#AFAFAF"/>
<path d="M230.05 178.198C230.05 178.198 230.86 187.688 230.86 194.548C230.86 201.408 230.05 215.338 225.41 224.828C220.77 234.318 221.98 240.978 217.34 250.458C212.7 259.938 209.47 260.148 196.15 258.938C182.83 257.728 167.69 252.678 166.88 252.678C166.07 252.678 154.16 250.458 148.51 247.628C142.86 244.798 137.41 240.968 137.41 240.968C137.41 240.968 137.61 238.548 138.62 236.128C139.63 233.708 142.86 216.148 142.86 216.148C142.86 216.148 148.92 219.778 154.57 221.598C160.22 223.418 165.47 224.218 165.47 224.218C165.47 224.218 169.31 221.798 170.52 221.388C171.73 220.988 174.15 223.808 177.58 224.618C181.01 225.428 186.26 226.228 187.07 226.228C187.88 226.228 196.13 225.248 195.55 225.418C194.81 225.638 194.13 224.088 194.34 222.798C194.46 222.078 196.36 217.548 196.96 216.738C197.57 215.928 197.57 212.898 197.57 210.888C197.57 208.878 194.74 187.678 196.16 181.818C197.57 175.968 206.05 163.858 206.05 163.858C206.05 163.858 206.42 162.028 210.89 162.038C215.36 162.038 222.6 166.878 225.63 169.508" stroke="#1A2E35" stroke-width="0.65" stroke-miterlimit="10"/>
<path d="M225.15 189.668C223.65 188.188 221.66 186.548 219.57 185.708C215.23 183.968 211.76 185.278 211.76 185.278" stroke="#1A2E35" stroke-width="0.65" stroke-miterlimit="10"/>
<path d="M227.81 192.658C227.81 192.658 227.21 191.858 226.21 190.778" stroke="#1A2E35" stroke-width="0.65" stroke-miterlimit="10"/>
<path d="M142.53 238.768C142.53 239.418 142 239.948 141.35 239.948C140.7 239.948 140.17 239.418 140.17 238.768C140.17 238.118 140.7 237.588 141.35 237.588C142 237.588 142.53 238.118 142.53 238.768Z" stroke="#1A2E35" stroke-width="0.65" stroke-miterlimit="10"/>
<path d="M203.94 233.278C205.02 234.378 205.93 235.218 206.43 235.528" stroke="#1A2E35" stroke-width="0.65" stroke-miterlimit="10"/>
<path d="M195.94 224.418C195.94 224.418 199.53 228.608 202.59 231.868" stroke="#1A2E35" stroke-width="0.65" stroke-miterlimit="10"/>
<path d="M182.52 235.548C183.28 236.658 184.01 237.638 184.63 238.348" stroke="#1A2E35" stroke-width="0.65" stroke-miterlimit="10"/>
<path d="M176.15 225.028C176.15 225.028 178.74 229.718 181.33 233.768" stroke="#1A2E35" stroke-width="0.65" stroke-miterlimit="10"/>
<path d="M149.52 236.738C148.69 240.638 147.76 244.148 146.89 245.608" stroke="#1A2E35" stroke-width="0.65" stroke-miterlimit="10"/>
<path d="M152.13 221.798C152.13 221.798 151.31 227.508 150.18 233.418" stroke="#1A2E35" stroke-width="0.65" stroke-miterlimit="10"/>
</svg>
