<svg width="153" height="152" viewBox="0 0 153 152" fill="none" xmlns="http://www.w3.org/2000/svg">
<path d="M41.3623 138.487C39.2799 138.305 37.1823 138.221 35.1455 137.697C31.4215 136.747 29.1263 134.49 28.6095 130.591C28.5487 130.127 28.4043 129.671 28.2903 129.215C27.6823 128.197 27.5911 127.042 27.4011 125.909C24.6347 109.341 21.1615 92.9253 17.0651 76.6461C16.5407 74.5714 15.9403 72.5118 15.4615 70.4218C14.5723 66.5838 15.3247 63.027 17.4223 59.7742C18.1519 58.6418 18.1519 57.7753 17.5591 56.6202C16.2595 54.1121 14.8079 51.6877 13.6223 49.1265C13.3411 48.5109 12.9915 47.9181 12.9991 47.2113C12.7939 46.7402 12.6039 46.2613 12.3759 45.8054C11.1219 43.2442 11.1219 43.2593 13.7287 41.9293C14.8839 41.3441 16.0999 40.8654 17.1335 40.0522C19.1475 38.4334 21.5111 37.3997 23.7911 36.2522C28.6551 33.805 33.4203 31.1754 38.3147 28.789C40.5947 27.6794 40.6327 27.4969 40.2223 25.0193C39.9183 23.1877 40.4047 22.4658 42.3351 22.1086C45.6791 21.493 49.0307 20.9078 52.3899 20.391C54.4799 20.0642 56.4787 19.5778 58.2723 18.3846C59.1387 17.807 60.1267 17.427 61.0691 16.9558C63.1515 15.9298 63.1363 15.945 64.8159 17.5106C65.9559 18.5822 67.1947 17.7006 68.3879 17.6094C69.3455 17.541 69.4367 16.743 69.5735 16.0058C69.7483 15.0254 69.8851 14.0374 70.0827 13.0646C70.4247 11.3774 70.9719 10.9898 72.7199 11.2178C78.3743 11.9626 84.0135 12.8138 89.6527 13.6194C90.5495 13.7486 91.4159 13.7866 92.2975 13.5966C94.1899 13.1862 96.1051 12.9506 98.0431 13.1634L98.7651 13.7486C99.2819 14.7214 100.065 15.2686 101.189 15.3446C102.215 15.413 103.173 15.7778 104.153 16.0666C111.434 17.1306 118.707 18.1946 125.988 19.251C126.193 19.2814 126.406 19.2966 126.611 19.327C129.241 19.7146 129.249 19.7982 128.853 22.3898C128.299 25.9998 127.835 29.6173 127.333 33.2349C127.44 37.5441 126.406 41.7242 125.851 45.9574C125.73 46.8694 125.76 47.6293 126.642 48.1233C131.126 50.6314 133.33 54.9177 135.306 59.3485C137.783 64.9193 139.691 70.6726 140.542 76.7298C140.816 78.6982 140.975 80.697 140.284 82.6273C139.357 85.2113 137.487 86.8986 135.002 87.8941C133.755 88.3958 133.398 89.0722 133.71 90.4249C134.455 93.5789 135.055 96.7861 135.237 100.024C135.465 104.105 134.052 107.738 131.445 110.869C130.092 112.495 128.42 113.727 126.497 114.661C123.48 116.121 120.493 117.641 117.393 118.902C116.617 119.221 116.26 119.677 115.994 120.551C115.546 122.011 114.421 123.181 113.577 124.473C113.273 124.937 112.627 124.792 112.103 124.739C110.697 124.587 109.291 124.435 107.908 124.139C106.038 123.736 104.275 124.002 102.512 124.625C89.2195 129.329 75.6763 133.152 61.8899 136.078C59.9975 136.481 58.3103 137.173 56.6611 138.092C55.6959 138.632 54.7383 138.943 53.7655 138.092C53.3323 137.712 52.7851 137.773 52.2607 137.841C49.9807 138.145 47.6855 138.328 45.4055 138.639C44.0299 138.822 42.6999 138.867 41.3699 138.487H41.3623Z" fill="#EAE9DA"/>
<path d="M31.2467 132.111C30.2587 129.549 30.1675 126.813 29.7115 124.153C27.8343 113.27 25.7139 102.44 23.2819 91.671C21.5947 84.2002 19.7707 76.7674 17.7947 69.3726C17.7263 69.1294 17.7795 68.8558 17.7719 68.5974C18.0151 63.9918 20.5611 60.8454 24.2471 58.459C32.9415 52.8274 42.2971 48.5562 51.9567 44.9006C67.1643 39.1474 82.8355 35.051 98.7043 31.6386C101.235 31.0914 103.659 31.5778 106.023 32.5202C109.276 34.7014 110.211 38.243 111.313 41.663C111.609 42.5826 110.834 42.4458 110.287 42.5674C104.336 43.9582 98.6815 46.1774 93.6199 49.5594C89.5083 52.3106 87.5551 56.5666 87.5247 61.499C87.4943 67.1382 89.1815 72.215 93.3311 76.2278C96.4623 79.2526 100.217 80.2406 104.549 79.815C109.975 79.2754 114.93 77.117 120.129 75.7718C121.307 75.4678 121.74 75.7414 121.983 76.8358C122.378 78.6142 122.857 80.3774 123.298 82.1482C123.366 84.3902 123.951 86.6702 122.743 88.8058C121.74 89.5506 121.261 90.6906 120.706 91.7394C118.989 94.9846 116.344 97.1582 113.076 98.6782C109.983 100.107 106.768 101.209 103.553 102.311C90.0859 106.909 76.4439 110.945 62.9387 115.429C55.3919 117.937 47.9135 120.642 40.8835 124.427C40.2451 124.769 39.5231 125.005 39.0747 125.635C37.4711 126.874 35.4723 127.528 34.0511 129.048C33.3063 129.838 32.4095 130.507 32.1359 131.655C32.0371 132.065 31.7863 132.46 31.2315 132.095L31.2467 132.111Z" fill="#2D2D2D"/>
<path d="M129.31 53.8458C131.24 55.9206 132.084 58.5882 133.208 61.0886C135.207 65.5194 136.78 70.0946 137.624 74.8978C137.715 75.407 137.746 75.9314 137.799 76.4482C137.616 77.5806 137.024 77.9682 135.906 77.6338C134.987 77.3602 134.257 76.7522 133.543 76.129C132.433 75.1638 131.514 74.0086 130.64 72.8458C127.463 68.6126 125.092 68.871 120.418 70.4518C118.153 71.2194 116.116 72.5874 113.927 73.5982C109.838 75.483 105.651 77.0714 101.076 77.2918C100.498 77.3222 99.928 77.345 99.3732 77.1626C95.8164 76.471 93.696 73.9478 92.0696 71.0446C89.6984 66.8038 88.9612 62.2438 90.3064 57.471C90.4432 56.977 90.5192 56.445 90.9448 56.0802C92.3584 54.431 93.5972 52.6222 95.6492 51.6114C99.8672 49.529 104.093 47.4618 108.63 46.1546C110.484 45.6226 111.997 46.2914 113.038 47.7582C115.029 50.5474 116.124 53.785 117.362 56.6806C116.846 55.2214 116.2 53.5342 115.69 51.809C115.409 50.8514 115.12 49.8938 115.105 48.8982C115.067 47.173 116.169 46.3522 117.758 47.0362C121.36 48.5942 124.833 50.3802 127.942 52.8122C128.39 53.1618 128.74 53.6482 129.302 53.8534L129.31 53.8458Z" fill="#2D2D2D"/>
<path d="M122.341 88.7528C122.941 88.0916 123.002 87.2784 122.994 86.45C122.979 85.006 122.949 83.562 123.306 82.1484C125.54 88.7604 124.408 94.734 119.977 100.122C116.846 103.922 112.4 105.359 108.007 106.894C97.0783 110.732 86.0583 114.319 75.0307 117.868C66.3819 120.65 57.7103 123.348 49.2819 126.768C47.3439 127.558 45.4515 128.455 43.7263 129.648C42.8979 130.218 42.2063 130.925 42.2063 132.065C42.2063 132.681 42.4343 133.068 43.0119 133.243C43.5743 133.41 43.8935 133.122 44.1215 132.643C45.0487 130.697 47.0703 130.279 48.7347 129.382C49.2515 129.109 49.4567 129.595 49.6619 129.96C50.4295 131.328 51.2199 132.681 51.9723 134.056C52.2459 134.55 52.6411 135.105 51.5923 135.272C46.2723 136.124 40.9447 136.838 35.5943 135.561C33.6335 135.09 32.0755 134.034 31.2471 132.103C32.3035 131.708 31.9463 130.484 32.6911 129.747C34.5075 127.976 36.5595 126.654 38.7787 125.522C40.3747 124.397 42.1835 123.667 43.9847 123.006C53.3631 119.563 62.7187 116.067 72.2719 113.111C82.7675 109.866 93.2251 106.499 103.629 102.972C106.259 102.083 108.813 101.012 111.45 100.13C116.534 98.4352 119.696 94.7948 121.664 89.9688C121.847 89.528 122.021 89.1024 122.341 88.7376V88.7528Z" fill="#2D2D2D"/>
<path d="M117.925 43.8671C116.846 43.4947 115.774 43.0767 114.672 42.7651C113.95 42.5599 113.768 42.0507 113.525 41.4351C112.43 38.6307 111.906 35.5679 109.839 33.1815C106.48 29.3055 102.284 27.6867 97.2227 28.6367C89.8279 30.0275 82.5547 31.9883 75.2511 33.7895C74.3239 34.0935 74.4227 33.3791 74.4683 32.9079C74.7115 30.5671 75.0383 28.2339 75.4867 25.9235C75.6311 25.1863 76.1783 24.8975 76.8623 24.8671C79.4159 24.7683 81.0499 23.4231 81.9695 21.1203C82.4331 19.9651 83.3527 19.9955 84.3255 20.1247C87.6999 20.5731 91.0667 21.0443 94.4335 21.5307C100.597 22.4123 106.753 23.3471 112.924 24.2059C115.197 24.5251 115.273 24.5327 115.759 26.8051C116.17 28.6899 117.18 30.0883 118.966 30.7799C120.304 31.2967 120.631 32.1251 120.388 33.4703C119.856 36.5103 119.734 39.6111 119.073 42.6283C118.944 43.2287 119.02 44.1255 117.925 43.8823V43.8671Z" fill="#848484"/>
<path d="M117.925 44.84C118.343 44.7716 118.533 44.5436 118.594 44.1104C119.088 40.5612 119.59 37.0044 120.129 33.4628C120.236 32.7408 119.833 32.566 119.301 32.3988C116.899 31.6464 115.501 29.9288 115.273 27.5196C115.144 26.1212 114.46 25.802 113.38 25.65C110.188 25.2092 106.989 24.8064 103.797 24.3504C97.5191 23.446 91.2415 22.5112 84.9715 21.5992C83.7023 21.4168 82.6763 21.2116 82.0531 23.0052C81.3615 24.9888 79.6135 26.258 77.3259 26.2352C76.2771 26.2276 75.9123 26.524 75.8211 27.626C75.6387 29.7996 75.2435 31.9504 74.8939 34.1088C74.8331 34.504 74.8863 34.7016 75.2815 34.77C73.8375 35.188 72.3631 35.5376 70.9571 36.0544C69.5587 36.5712 69.4599 35.9708 69.6271 34.8384C70.2199 30.9168 70.7671 26.98 71.3447 23.0584C71.6791 20.7936 72.0439 18.5288 72.3935 16.264C73.8147 15.8156 75.2055 16.2868 76.5811 16.492C83.1931 17.4876 89.8203 18.4148 96.4399 19.3648C105.393 20.6416 114.346 21.9184 123.283 23.2332C125.214 23.5144 125.51 23.864 125.244 25.7944C124.37 32.2696 123.321 38.7144 122.5 45.1972C122.424 45.7748 122.318 46.3448 121.71 46.6336C120.456 46.0408 119.202 45.448 117.948 44.8552L117.925 44.84Z" fill="#BDEB4E"/>
<path d="M125.89 112.054C122.515 114.03 118.883 115.421 115.181 117.093C114.991 114.692 115.827 112.647 115.888 110.527C115.995 107.312 117.499 105.214 119.977 103.041C126.224 97.546 127.706 90.3412 125.738 82.3612C125.282 80.5068 124.727 78.6676 124.149 76.5776C125.061 77.0488 125.685 77.4364 126.171 78.0368C128.451 84.9984 130.077 92.1348 130.959 99.3928C131.521 104.021 130.153 108.178 126.483 111.348C126.247 111.553 126.011 111.766 125.882 112.062L125.89 112.054Z" fill="#2D2D2D"/>
<path d="M108.227 109.144C109.93 108.505 111.647 107.89 113.342 107.236C114.132 106.932 114.262 107.297 114.163 107.958C113.509 112.343 112.848 116.728 112.21 121.121C112.012 122.466 111.047 122.079 110.294 121.972C107.087 121.516 103.895 120.992 100.696 120.506C95.0715 119.654 89.4399 118.811 83.8159 117.967C83.6259 117.937 83.4359 117.868 83.1699 117.45L93.4679 114.236C95.6263 113.901 97.7011 114.494 99.7911 114.851C100.924 115.041 101.562 114.828 102.14 113.719C103.135 111.804 104.686 110.443 107.011 110.329C107.771 110.291 108.372 110.101 108.227 109.144Z" fill="#BDEB4E"/>
<path d="M68.578 25.5663C68.1752 28.5987 67.7116 31.6159 67.3924 34.6559C67.2708 35.8339 66.7768 36.2975 65.6672 36.6471C60.6664 38.2203 55.696 39.9151 50.718 41.5719C49.616 39.5883 49.6312 37.3767 49.4184 35.2183C49.3576 34.5875 49.8288 34.1923 50.3912 33.9263C52.6104 32.8851 53.8796 31.1751 54.0772 28.7051C54.1608 27.6563 54.7764 27.1471 55.81 27.0331C59.4504 26.6227 63.0148 25.7639 66.64 25.3079C67.3088 25.2243 67.9928 25.0419 68.578 25.5739V25.5663Z" fill="#848484"/>
<path d="M68.578 26.5391C65.4468 26.6911 62.4144 27.4891 59.3288 27.9299C58.0976 28.1047 56.8664 28.3251 55.6276 28.4467C54.86 28.5227 54.518 28.8267 54.4876 29.6171C54.3964 32.4063 53.0208 34.3443 50.4216 35.3323C49.3424 35.7427 49.7756 36.5331 49.8592 37.1563C50.0796 38.9575 50.4216 40.7511 50.718 42.5447C49.4716 43.0691 48.2176 43.5707 46.9864 44.1179C46.0896 44.5131 45.8388 44.1787 45.702 43.2895C44.828 37.8479 43.8856 32.4139 42.9736 26.9799C43.878 26.3263 44.98 26.4479 45.9908 26.2655C52.6712 25.0191 59.3972 23.9931 66.0928 22.8227C67.0884 22.6479 68.122 22.2299 69.148 22.7847L68.5856 26.5391H68.578Z" fill="#BDEB4E"/>
<path d="M84.029 120.224C88.8702 120.908 93.719 121.6 98.5602 122.284V122.664C95.429 123.295 92.2826 123.926 89.1438 124.549C79.8718 126.38 70.5922 128.166 61.3278 130.051C59.9978 130.325 59.4582 130.104 59.215 128.721C58.6602 125.476 58.5994 125.491 61.837 124.458C64.2234 123.698 66.6022 122.915 68.9886 122.14C69.6954 122.565 70.4326 122.626 71.2534 122.459C74.681 121.737 78.1542 121.197 81.5666 120.399C82.395 120.209 83.2158 120.308 84.029 120.217V120.224Z" fill="#BDEB4E"/>
<path d="M24.9312 53.8763C23.7304 54.6819 22.5068 55.4723 21.3288 56.3083C20.6904 56.7567 20.3712 56.6123 20.0292 55.9359C18.2964 52.5007 16.5256 49.0883 14.77 45.6683C15.0436 45.0451 15.6212 44.7639 16.176 44.4751C24.4524 40.2039 32.7364 35.9403 40.9672 31.5855C41.2028 31.4639 41.446 31.3803 41.712 31.3423C41.902 32.6571 42.3276 33.9415 42.2212 35.2943C41.902 36.0467 41.1648 36.2595 40.534 36.6091C36.3844 38.9195 32.0524 40.8955 27.9028 43.2135C27.0288 43.6999 26.7172 44.2395 26.9148 45.2199C27.3024 47.1275 26.9376 48.9819 25.5772 50.3195C24.4068 51.4747 24.232 52.5159 24.9388 53.8687L24.9312 53.8763Z" fill="#BDEB4E"/>
<path d="M24.9311 53.8762C23.4871 52.303 23.4947 52.0294 24.8399 50.6766C26.4359 49.073 27.0439 47.1046 26.4587 44.9538C26.1395 43.7758 26.5955 43.4338 27.4847 42.9778C32.4095 40.447 37.3039 37.863 42.2135 35.3018C43.0039 37.901 43.1635 40.6218 43.7715 43.2514C43.9767 44.1482 43.6043 44.551 42.7987 44.8778C36.6199 47.4238 30.6843 50.4714 24.9235 53.8686L24.9311 53.8762Z" fill="#848484"/>
<path d="M99.3809 77.1553C106.183 76.7601 112.301 74.2293 118.16 71.0069C120.266 69.8517 122.5 69.2665 124.818 68.9853C126.505 68.7801 128.048 69.4033 129.211 70.6345C130.708 72.2229 132.106 73.9177 133.543 75.5669C134.136 76.2509 134.88 76.7373 135.663 77.1477C136.56 77.6189 137.388 77.6113 137.799 76.4561C138.848 81.5937 137.708 84.0409 133.482 85.8421C132.707 86.1765 132.16 86.2981 132 85.1505C131.84 84.0333 131.453 82.9465 131.156 81.8445C131.787 81.5557 132.091 82.2473 132.889 82.2245C130.062 78.4169 127.273 74.9589 122.736 73.5301C120.912 72.9525 119.24 73.8189 117.56 74.2901C113.403 75.4529 109.382 77.1477 105.05 77.5961C103.15 77.7937 101.205 78.1509 99.3885 77.1553H99.3809Z" fill="#2D2D2D"/>
<path d="M106.023 32.5129C105.506 33.0753 105.035 32.5129 104.61 32.3837C102.504 31.7529 100.422 31.7073 98.2788 32.1633C84.538 35.0665 70.9644 38.6005 57.7024 43.2289C46.1884 47.2493 35.0088 52.0069 24.6956 58.6341C21.1768 60.8913 18.7448 63.8401 18.0456 68.0505C18.0152 68.2405 17.8708 68.4153 17.7796 68.5901C17.3768 63.8097 19.2768 60.1845 23.2516 57.5625C32.9492 51.1557 43.5132 46.5501 54.3964 42.6209C68.4184 37.5593 82.8128 33.8201 97.382 30.7421C100.483 30.0885 103.409 30.6433 106.031 32.5129H106.023Z" fill="#494949"/>
<path d="M121.687 45.653C122.226 42.1494 122.774 38.6458 123.29 35.1422C123.807 31.631 124.263 28.1122 124.818 24.6086C125.023 23.3242 124.803 22.8378 123.328 22.663C118.1 22.0398 112.894 21.1886 107.68 20.4362C99.8824 19.3114 92.0772 18.2094 84.2796 17.0846C80.3048 16.507 76.3452 15.8838 72.3704 15.2834C72.2488 14.0598 72.644 13.7254 73.9664 13.9154C86.0048 15.7014 98.0584 17.4038 110.112 19.129C115.075 19.8358 120.038 20.5882 125.016 21.2266C126.467 21.409 126.847 21.8042 126.596 23.3698C125.449 30.5366 124.499 37.7414 123.458 44.931C123.199 46.7018 123.161 46.6942 121.694 45.653H121.687Z" fill="#848484"/>
<path d="M129.31 53.8459C127.797 53.4735 126.817 52.2347 125.51 51.5127C122.91 50.0763 120.387 48.5031 117.621 47.3859C116.169 46.8007 115.318 47.4391 115.478 49.0579C115.637 50.7223 116.321 52.2727 116.762 53.8687C117.051 54.9099 117.385 55.9435 117.393 57.1063C116.549 55.3735 115.698 53.6407 114.854 51.9079C114.74 51.6723 114.664 51.4215 114.558 51.1859C112.27 46.2991 111.085 45.4251 106.038 47.3859C102.345 48.8223 98.7348 50.4259 95.254 52.3259C93.8936 53.0707 92.898 54.2031 91.91 55.3583C91.6516 55.6623 91.6212 56.3083 90.9448 56.0727C91.9708 53.7395 93.6124 51.9307 95.8012 50.6919C100.179 48.2143 104.762 46.1927 109.626 44.8627C111.381 44.3839 113.16 44.3687 114.87 45.0223C119.285 46.7019 123.404 48.9591 127.22 51.7407C128.01 52.3183 128.618 53.1391 129.31 53.8535V53.8459Z" fill="#494949"/>
<path d="M125.89 112.054C125.95 110.618 127.334 110.101 128.04 109.121C129.522 107.069 130.252 104.849 130.564 102.387C130.913 99.5979 130.214 96.9607 129.728 94.2703C128.808 89.2087 127.683 84.2079 126.171 79.2907C126.057 78.9259 125.601 78.4319 126.178 78.0215C128.641 79.2147 128.861 81.6847 129.477 83.8963C130.875 88.9047 131.916 93.9967 132.669 99.1495C133.391 104.067 130.419 109.698 125.89 112.047V112.054Z" fill="#2D2D2D"/>
<path d="M41.7123 31.3501C41.3779 32.1785 40.5191 32.3305 39.8579 32.6725C31.5055 37.0273 23.1379 41.3441 14.7703 45.6685C14.0635 44.8097 13.9039 44.2093 15.1655 43.5633C23.5483 39.2921 31.9007 34.9601 40.2379 30.5977C41.2715 30.0581 41.6895 30.1645 41.7123 31.3425V31.3501Z" fill="#848484"/>
<path d="M69.1403 21.812C60.6131 23.256 52.0935 24.6924 43.5663 26.1212C43.3763 26.1516 43.1635 26.0452 42.9659 26.0072C42.6771 25.0496 42.8063 24.5328 44.0071 24.3428C51.9187 23.0584 59.8151 21.6904 67.7191 20.3452C68.8692 20.1476 69.343 20.6391 69.1403 21.8196V21.812Z" fill="#848484"/>
<path d="M61.5328 132.43C59.7392 133.456 57.9532 134.474 56.1596 135.5C55.6352 135.804 55.3236 135.645 55.0424 135.128C53.9176 133.076 52.77 131.032 51.6072 128.995C51.25 128.372 51.63 128.144 52.1012 127.961C53.3172 127.49 54.5408 127.049 55.7492 126.563C56.4636 126.282 56.6688 126.654 56.7904 127.254C57.0336 128.478 57.3984 129.686 57.5276 130.925C57.6948 132.46 58.3788 132.932 59.8304 132.468C60.3472 132.301 60.9096 132.286 61.4492 132.202L61.5404 132.43H61.5328Z" fill="#BDEB4E"/>
<path d="M108.227 109.144C108.782 109.204 108.896 109.554 108.797 110.033C108.699 110.519 108.341 110.732 107.885 110.709C104.906 110.557 103.135 112.115 102.125 114.745C101.897 115.338 101.494 115.543 100.916 115.444C98.4311 115.041 95.9459 114.638 93.4683 114.228C98.3855 112.533 103.31 110.838 108.227 109.144Z" fill="#848484"/>
<path d="M84.0287 120.225C79.4231 121.486 74.6959 122.132 70.0371 123.128C69.0035 123.348 69.3607 122.444 68.9883 122.147C71.7927 121.197 74.5439 119.974 77.4319 119.396C79.5827 118.963 81.8475 119.776 84.0287 120.225Z" fill="#848484"/>
<path d="M66.6553 132.194C71.6181 129.283 77.4093 129.557 82.7369 128.067C77.4549 129.747 72.1197 131.221 66.6553 132.194Z" fill="#9E4939"/>
<path d="M30.8137 87.1798C29.4685 87.2026 28.6781 86.5718 28.1689 85.4622C26.7933 82.4526 26.3145 79.177 25.2809 76.061C24.7033 74.313 24.0117 72.5726 24.2701 70.6118C24.4601 69.2058 25.1441 68.2406 26.3145 67.6706C29.0809 66.3178 31.8701 65.0106 34.6973 63.787C36.3541 63.065 37.9273 63.8782 38.5505 65.6262C40.0097 69.753 41.1041 73.9862 42.2441 78.2042C42.7989 80.2638 41.8717 82.1866 39.9793 83.1138C37.4029 84.3754 34.8113 85.599 32.2273 86.8454C31.7485 87.081 31.2545 87.233 30.8137 87.1798Z" fill="#494949"/>
<path d="M122.341 88.7529C120.676 94.7189 116.945 98.6405 111.062 100.753C99.4114 104.956 87.6314 108.718 75.8058 112.389C64.5882 115.877 53.5226 119.822 42.5406 123.987C41.2714 124.465 40.025 125.005 38.771 125.522C38.809 124.762 39.5006 124.709 39.9718 124.45C49.0158 119.548 58.721 116.311 68.4794 113.225C74.6354 111.279 80.7686 109.258 86.9246 107.32C94.4866 104.933 102.026 102.501 109.474 99.7653C113.327 98.3517 117.028 96.6417 119.437 93.0697C120.137 92.0361 120.707 90.9189 121.345 89.8397C121.596 89.4141 121.664 88.8061 122.341 88.7529Z" fill="#494949"/>
<path d="M30.9202 95.2204C30.9126 93.9132 31.4978 93.0468 32.4858 92.5528C35.7994 90.896 39.151 89.3076 42.4798 87.6964C43.027 87.4304 43.6578 87.324 44.1518 87.5748C45.8998 88.4564 45.9226 90.3032 46.2722 91.884C46.5534 93.1532 45.8466 94.164 44.7218 94.696C41.469 96.2312 38.2086 97.7588 34.895 99.1572C32.9114 100.001 32.0906 99.5524 31.4142 97.5156C31.1558 96.7328 31.057 95.8968 30.9126 95.2128L30.9202 95.2204Z" fill="#494949"/>
<path d="M102.223 69.2818C98.6967 69.2514 95.9607 66.4242 95.9683 62.8066C95.9683 59.341 98.8943 56.4378 102.405 56.4302C105.833 56.4226 108.797 59.4854 108.812 63.065C108.827 66.3862 105.734 69.3046 102.223 69.2818Z" fill="#EAE9DA"/>
<path d="M98.4158 65.2232C96.9718 62.7988 97.7622 59.9716 100.24 58.71C102.801 57.4028 105.332 58.4592 106.669 61.4004C106.867 63.4828 106.061 65.0636 104.245 66.1124C102.163 67.3132 100.255 67.0092 98.4158 65.2232Z" fill="#BDEB4E"/>
<path d="M98.4155 65.2232C101.6 67.1384 103.34 66.5 105.18 64.904C106.236 63.9844 106.244 62.6012 106.669 61.4004C107.475 63.84 106.555 66.0516 104.306 67.1156C102.048 68.1796 99.7911 67.45 98.4155 65.2232Z" fill="#848484"/>
</svg>
