<svg width="61" height="61" viewBox="0 0 61 61" fill="none" xmlns="http://www.w3.org/2000/svg">
<mask id="mask0_4615_67805" style="mask-type:alpha" maskUnits="userSpaceOnUse" x="0" y="0" width="61" height="61">
<rect width="61" height="61" fill="#D9D9D9"/>
</mask>
<g mask="url(#mask0_4615_67805)">
<path d="M32.251 29.4841C31.8581 29.1657 31.3236 29.541 30.9336 29.2109C31.4725 29.2109 32.0115 29.2109 32.5636 29.2109C32.5212 29.4227 32.3912 29.4592 32.251 29.4841Z" fill="#017785"/>
<path d="M30.9351 29.6257C31.0577 29.4402 31.1965 29.2723 31.4243 29.2109C31.4638 29.2533 31.5032 29.2956 31.5426 29.338C31.4565 29.5016 31.306 29.5834 31.1425 29.6506C31.0723 29.6418 31.0037 29.6345 30.9336 29.6257H30.9351Z" fill="#F86534"/>
<path d="M30.9432 29.2109C31.1272 29.5381 31.2762 29.6447 31.209 29.8273C31.2032 29.8434 31.1258 29.8477 31.0893 29.8361C30.7898 29.7382 31.0308 29.522 30.9432 29.2109Z" fill="#017785"/>
<path d="M31.2714 29.4827C31.1662 29.4827 31.0888 29.5046 31.0406 29.4769C30.9895 29.4462 30.9457 29.3717 30.9355 29.3104C30.9238 29.2388 30.9676 29.1701 31.0523 29.2402C31.1239 29.2987 31.1779 29.3775 31.2714 29.4827Z" fill="#017785"/>
<path d="M12.0823 37.5133C15.0312 35.3721 17.9421 33.1769 20.9377 31.1029C29.558 25.1335 38.463 19.6477 48.094 15.4222C48.6052 15.1988 48.8725 15.2032 49.2025 15.6983C49.9577 16.8331 50.6368 18.0045 51.2561 19.2182C51.5234 19.744 51.354 19.8989 50.9129 20.1063C45.6548 22.5834 40.5808 25.3964 35.6777 28.5147C28.7707 32.9066 22.2478 37.8112 16.1106 43.2284C15.966 43.357 15.8184 43.4826 15.6417 43.6359C14.0424 41.8745 12.5848 40.0415 11.6836 37.8244C11.7128 37.5878 11.8895 37.5396 12.0838 37.5118L12.0823 37.5133Z" fill="#F86534"/>
<path d="M53.2739 27.5593C53.4871 28.1494 53.0635 28.4605 52.4457 28.7555C41.7997 33.8295 32.233 40.5423 23.2126 48.0773C22.7875 48.4322 22.491 48.46 22.0091 48.2175C20.7252 47.5705 19.5042 46.8329 18.3299 46.0048C17.8684 45.6805 17.8348 45.5023 18.2846 45.1153C21.9944 41.9298 25.7919 38.8582 29.7603 35.997C36.752 30.9537 44.1118 26.5325 51.882 22.7949C52.3683 22.5613 52.5246 22.6504 52.6385 23.1484C52.9555 24.5491 53.1877 25.96 53.2753 27.5593H53.2739Z" fill="#F86534"/>
<path d="M25.8516 49.5774C34.3214 42.6485 43.1592 36.4688 52.945 31.6562C51.6232 43.6285 38.9251 53.1426 25.8516 49.5774Z" fill="#F86534"/>
<path d="M11.4743 37.8016C10.4943 38.5597 9.60337 39.4068 8.9578 40.4745C8.22606 41.6853 8.50502 42.3148 9.88526 42.6521C10.2051 42.7734 10.5381 42.677 10.8638 42.712C11.0055 42.7281 11.2246 42.639 11.2041 42.9238C8.47727 44.326 5.60288 45.2447 2.54008 45.509C1.84339 45.5689 1.01379 45.6332 0.632587 44.9189C0.254301 44.212 0.815157 43.619 1.26355 43.1137C3.117 41.0295 5.321 39.344 7.54397 37.6877C14.5488 32.4676 21.9291 27.8157 29.413 23.3274C36.8093 18.8917 44.2728 14.5757 52.3234 10.9915C51.2922 10.5446 50.3706 10.1459 49.449 9.74712C49.4592 9.69746 49.468 9.64634 49.4782 9.59668H58.4651C56.5371 10.898 54.6515 12.1702 52.6754 13.5022V12.3615C51.4076 12.9297 50.2129 13.4467 49.0342 13.9959C41.4889 17.5115 34.3044 21.6755 27.3229 26.1945C22.3614 29.4063 17.5196 32.786 12.9188 36.5003C12.5815 36.7719 12.282 37.0903 11.9651 37.3854C11.8614 37.5942 11.6715 37.7008 11.4758 37.8002L11.4743 37.8016Z" fill="#017785"/>
<path d="M18.362 49.2035C16.0046 50.5136 13.5114 51.425 10.8269 51.777C10.6823 51.796 10.5363 51.8164 10.3917 51.8091C9.86002 51.7843 9.25827 51.8311 8.9866 51.2556C8.73246 50.7152 9.10491 50.2843 9.41893 49.8797C11.1336 47.6655 13.3069 45.9333 15.4817 44.2186C23.2198 38.112 31.396 32.6319 39.7548 27.4192C44.2095 24.6412 48.7095 21.9435 53.4242 19.6212C53.5499 19.5584 53.6682 19.4796 53.8756 19.3569C52.9758 19.0049 52.1623 18.6865 51.3488 18.3666C51.3546 18.3301 51.3605 18.2951 51.3663 18.2585C53.9909 18.1227 56.6156 17.9869 59.452 17.8408C57.6643 19.148 56.0299 20.3442 54.3166 21.5959C54.2904 21.2322 54.2699 20.9577 54.2436 20.5969C53.1467 21.1388 52.0761 21.6368 51.0318 22.186C39.9096 28.037 29.5659 35.0448 19.9788 43.167C18.8118 44.1558 17.674 45.1884 16.7276 46.4065C16.6531 46.5029 16.5845 46.6022 16.5187 46.7059C16.193 47.223 15.7855 47.7707 16.0922 48.39C16.4209 49.0501 17.1424 48.9859 17.766 49.0399C17.9106 49.0516 18.0582 49.0355 18.2028 49.0312C18.3532 48.9961 18.3956 49.0633 18.3605 49.2006L18.362 49.2035Z" fill="#017785"/>
<path d="M56.5326 27.0885C55.7716 26.7877 55.1027 26.5233 54.4323 26.2589C54.4367 26.2254 54.441 26.1903 54.4454 26.1567C56.6348 26.0428 58.8227 25.9274 61.0121 25.8135C61.0399 25.8617 61.0661 25.9099 61.0939 25.9595C59.7327 26.9542 58.3714 27.9488 56.9401 28.9946C56.9079 28.6747 56.8875 28.4644 56.8568 28.1621C55.9805 28.5885 55.1304 28.9741 54.3067 29.4094C44.6407 34.5097 35.6261 40.5725 27.3169 47.6752C26.4318 48.4318 25.5701 49.2278 24.8646 50.1654C24.6485 50.4532 24.4571 50.773 24.3198 51.1061C24.0555 51.7502 24.257 52.1051 24.9128 52.3256C25.3554 52.4746 25.8155 52.3694 26.4318 52.4746C24.0818 53.719 21.8047 54.6654 19.2517 54.7677C18.8617 54.7838 18.4279 54.7633 18.2424 54.3441C18.0686 53.9498 18.2629 53.589 18.5024 53.2633C19.5642 51.8188 20.9123 50.6577 22.2823 49.533C27.4177 45.3193 32.8568 41.5204 38.4055 37.8748C44.1733 34.0861 50.0053 30.4026 56.1864 27.3076C56.2697 27.2653 56.3456 27.2069 56.5326 27.0885Z" fill="#017785"/>
<path d="M14.8734 31.8631C14.1359 32.4999 13.3486 33.0709 12.5292 33.5982C12.1188 33.0534 12.151 32.3932 12.3496 31.8528C12.5453 31.3212 12.76 32.0208 13.0404 32.0033C12.7016 31.7754 12.3613 31.5651 12.5935 31.0846C12.6446 30.978 12.6373 30.8202 12.5497 30.7399C12.1232 30.3514 12.1772 29.9088 12.3408 29.4239C12.4182 29.1961 12.389 28.9609 12.0283 29.0967C11.9611 29.1143 11.8954 29.1172 11.8267 29.1041C11.5375 28.9492 11.4134 28.7039 11.6675 28.4658C12.0224 28.1342 11.8997 27.8932 11.6339 27.607C11.39 27.3441 11.3345 26.9497 11.5843 26.7525C12.3014 26.1873 12.0049 25.4103 12.0195 24.7457C12.0312 24.2375 12.037 23.865 12.5 23.5831C12.7571 23.4283 12.8257 22.6484 12.6125 22.3928C12.4723 22.2263 12.2342 22.0919 12.335 21.8509C12.4679 21.5325 12.706 21.8231 12.8885 21.7969C13.0054 21.7793 13.4319 21.8786 13.185 21.4653C13.1368 21.385 13.1471 21.274 13.1675 21.179C13.2376 20.8402 13.5881 20.7379 13.7561 20.4809C13.4406 20.2896 13.407 19.9974 13.4625 19.6703C13.5093 19.3928 13.6845 19.1897 13.851 18.9809C14.0658 18.7107 14.225 18.4653 14.2585 18.0651C14.2863 17.735 14.6514 17.4239 14.5521 16.9945C14.5346 16.9186 14.6646 16.7842 14.7405 16.8076C15.1422 16.9332 15.2079 16.6075 15.3306 16.3811C15.6037 15.8772 15.4694 15.0534 16.3837 15.0607C16.2595 14.5393 16.7663 14.4268 16.9927 14.1362C17.5025 13.4819 18.1991 13.0086 18.7045 12.3353C18.9835 11.9629 19.4625 12.1601 19.8364 12.3645C20.0497 11.9643 19.9153 11.1727 20.761 11.6153C20.8092 11.6401 20.7683 11.5379 20.7756 11.4955C20.8866 10.7988 21.3101 10.3957 21.9747 10.2219C22.0156 10.1708 22.058 10.1211 22.0974 10.0685C22.2128 9.66395 22.3369 9.39083 22.8978 9.37184C23.2074 9.36015 23.5828 9.01254 23.9654 8.88255C24.1232 8.82851 24.297 8.66054 24.4328 8.73065C25.093 9.06512 25.6641 8.59774 26.2804 8.56415C26.9158 8.71897 26.9552 8.01205 27.3496 7.82072C27.446 7.68927 27.5175 7.51546 27.7352 7.58411C28.0317 8.26911 28.5984 7.93903 28.9883 7.81634C29.6134 7.62062 30.1363 7.61186 30.722 7.94049C30.9674 8.07778 31.3676 8.28518 31.6685 7.79297C31.9591 7.31829 32.5302 7.59725 32.9348 7.62647C33.1787 7.64399 33.7147 7.83971 33.6957 8.38596C33.944 8.14058 34.1909 7.8251 34.6509 8.00183C34.8671 8.08508 35.0701 7.9215 35.2702 7.83971C35.8603 7.59433 35.8544 7.59579 35.8223 8.20631C35.8092 8.46921 36.1276 8.42831 36.1845 8.41663C36.8228 8.28372 37.3793 8.7584 37.9021 8.74088C38.9304 8.70436 39.5847 9.50913 40.5122 9.61429C40.8802 9.65665 41.1168 9.92247 40.9284 10.3972C41.5054 10.2891 42.0531 10.0408 42.4007 10.682C42.4445 10.7638 42.5599 10.8076 42.6548 10.8105C43.2376 10.8324 43.334 11.0778 42.9484 11.5948C43.3121 11.4634 43.6743 11.1654 43.9328 11.5247C44.1285 11.7978 44.406 11.9936 44.5711 12.2594C44.739 12.5281 44.8559 12.7896 45.1495 12.9663C45.481 13.1649 45.1495 13.3811 45.0954 13.5885C44.5944 13.8967 44.0599 14.1304 43.5063 14.3231C43.3661 14.3786 43.1616 14.4254 43.1865 14.2209C43.2201 13.9376 43.1865 13.5593 43.6173 13.4658C43.1894 13.5987 42.7702 13.2102 42.3218 13.5052C42.1611 13.6119 41.9289 13.4687 42.0458 13.1854C42.1305 12.9794 42.2108 12.7779 42.1115 12.5515C42.0472 12.6055 42.0092 12.7764 41.9114 12.7355C41.4688 12.5515 41.0321 12.401 40.5355 12.4273C40.3895 12.4346 40.2741 12.1893 40.3793 12.014C40.6655 11.532 40.2361 11.4283 39.9981 11.4604C39.2941 11.5539 38.9041 11.0763 38.5243 10.679C38.2176 10.3577 38.0292 10.3767 37.7444 10.6089C37.2916 10.9785 36.9835 10.9901 36.6855 10.3723C36.4606 9.9064 35.8822 10.0977 35.4557 10.0495C35.2965 10.032 35.149 10.0934 34.9956 9.96045C34.372 9.42004 33.6709 9.2769 32.8851 9.57924C32.4192 9.75889 32.1797 9.64935 32.3608 9.08265C32.1227 9.31049 31.8554 9.47408 31.6261 9.68732C31.445 9.85675 31.258 9.82315 31.0346 9.69316C30.0297 9.10602 29.3082 9.14837 28.4435 9.84068C27.9557 10.2321 27.5482 10.0057 27.1582 9.70339C27.0984 9.76619 27.0954 9.80709 27.1217 9.85675C27.2298 10.0612 27.5657 10.2438 27.3905 10.4731C27.1787 10.7521 26.907 10.4965 26.6879 10.3636C26.5258 10.2657 26.3608 10.3008 26.1943 10.2935C26.0774 10.2613 25.9927 10.143 25.8554 10.1693C25.6991 10.2044 25.6349 10.3402 25.5472 10.4512C25.2595 10.7623 24.779 10.8163 24.5803 11.2735C24.4431 11.5875 23.9947 11.2092 23.7434 11.5145C23.6485 11.6313 23.3841 11.6153 23.4002 11.8738C23.3228 12.106 23.2731 12.3675 22.9314 12.3266C22.7094 12.236 22.7459 11.9731 22.6027 11.8358C22.5779 11.8037 22.5721 11.7657 22.5881 11.7248C22.5443 11.7964 22.6159 11.8314 22.6407 11.8855C22.7868 12.2156 22.5954 12.42 22.3442 12.531C22.0127 12.6771 21.9455 12.255 21.6548 12.1454C21.6753 12.5471 21.2707 12.7005 21.1948 13.108C21.132 13.4468 20.78 13.3066 20.5068 13.0057C20.6178 13.495 20.5901 13.8937 20.1359 14.0661C19.7021 14.2311 19.5341 13.9054 19.4406 13.6162C19.3939 14.4254 18.9689 15.0914 18.4109 15.6318C18.1568 15.8772 18.3963 15.9473 18.3949 16.0963C18.4022 16.1693 18.3759 16.2277 18.3189 16.273C18.1831 16.3446 18.0399 16.3548 17.8997 16.3022C17.425 16.1211 17.2936 16.4307 17.3695 16.7681C17.5127 17.4064 16.8496 17.6693 16.7809 18.2053C16.7634 18.3485 16.5443 18.3266 16.4304 18.1936C16.2873 18.0286 16.039 17.995 15.8695 17.792C16.6261 18.3266 16.5049 18.9268 16.0638 19.5505C16.0258 19.6075 15.982 19.66 15.9367 19.7126C15.871 19.7857 15.7819 19.9083 15.7147 19.885C15.0356 19.644 14.9465 20.2267 14.9947 20.5539C15.0808 21.1235 14.6471 21.645 14.9246 22.2043C14.9742 22.3051 14.8968 22.4424 14.8939 22.5607C14.8851 22.8894 14.3418 22.9244 14.4309 23.0325C14.7084 23.3626 14.3345 23.6503 14.3871 23.7715C14.7215 24.5339 13.6568 24.9531 13.9796 25.6688C13.3311 26.2881 14.1884 27.0447 13.8028 27.6961C13.7736 27.7443 13.87 27.6858 13.9036 27.6815C14.0804 27.6566 14.1665 27.7808 14.2585 27.8903C14.4061 28.0656 14.7215 28.143 14.6398 28.4541C14.5404 28.8295 14.203 28.4775 13.9781 28.6732C14.5682 29.4838 14.6062 30.3382 14.0263 31.1941C14.4367 31.2744 14.8355 31.3431 14.8749 31.8616L14.8734 31.8631Z" fill="#017785"/>
<path d="M27.702 7.59563C27.6041 7.69348 27.5077 7.78988 27.4098 7.88774C27.144 7.9374 27.0038 8.1375 26.8125 8.30546C26.4678 8.6078 26.3407 8.05424 26.0165 7.98122C25.9449 8.25434 26.1976 8.40478 26.2414 8.61802C25.7258 8.73048 25.3125 9.36437 24.6947 8.9335C24.366 8.7042 24.1601 9.02844 23.9045 9.09855C23.7935 9.12922 23.7657 9.42425 23.5686 9.16281C23.478 9.04305 23.3407 9.09124 23.2837 9.22123C23.1333 9.55716 23.1392 9.53526 22.7492 9.53818C22.5681 9.53964 22.2102 9.47391 22.3986 9.90916C22.4615 10.0538 22.2847 10.1531 22.1533 10.2217C22.0233 10.1136 21.9824 9.95444 21.9167 9.80838C21.9532 9.9705 22.032 10.1078 22.1533 10.2217C22.0686 10.3619 22.0379 10.6058 21.8553 10.5971C21.5019 10.5781 21.2171 10.4861 21.1674 11.0323C21.144 11.2952 20.7701 11.5187 21.033 11.9116C20.4765 11.5275 20.053 11.3259 20.126 12.2446C19.9361 12.23 20.1187 12.6419 19.755 12.5133C19.0978 12.2811 19.1942 12.4754 18.6523 12.8639C18.2594 13.1458 17.9819 13.5182 17.6036 13.7797C17.367 13.9432 17.0705 13.9987 17.1669 14.3902C17.1903 14.4866 17.0939 14.5917 16.9931 14.5786C16.0423 14.453 16.72 15.0547 16.6484 15.3585C16.1343 15.0182 15.8845 15.2052 15.7239 15.7602C15.5734 16.2758 15.5311 16.8541 14.9819 17.2032C14.884 17.2441 14.9629 16.8118 14.7205 16.9651C14.5525 17.0718 14.5452 17.2996 14.7964 17.4252C14.8826 17.4676 14.9658 17.5961 14.8548 17.6487C14.1216 17.9905 14.443 18.9895 13.7477 19.3809C13.5111 19.5138 13.5637 19.8936 13.6338 20.1842C13.7127 20.5172 13.9537 20.1711 14.091 20.2967C13.9858 20.5917 13.7346 20.7553 13.5228 20.9423C13.3928 21.0562 13.3563 21.1803 13.295 21.3337C13.1825 21.6156 13.7696 21.6331 13.4571 21.8463C13.1591 22.0494 12.7998 22.2699 12.5106 21.7865C12.3514 22.0231 12.5369 22.0888 12.6041 22.2013C12.6947 22.3517 13.0408 22.2889 12.9736 22.4612C12.8013 22.9111 12.8743 23.3493 12.9035 23.7947C12.6027 23.7056 12.369 23.7305 12.2244 24.0766C12.1689 24.2095 12.0389 24.3351 12.1353 24.4622C12.4157 24.8303 12.2434 25.1867 12.1543 25.5533C12.1104 25.7329 11.9439 25.9023 12.3193 26.0236C12.4829 26.0761 12.1864 26.4997 12.0286 26.5932C11.4605 26.9262 11.4985 27.2022 11.9323 27.6389C12.1659 27.8741 12.3397 28.2626 11.8768 28.5503C11.6343 28.7008 11.6489 28.7227 11.9542 29.0805C11.9147 29.0338 11.8417 29.0703 11.9323 29.0645C11.9863 29.0601 11.9848 29.1813 12.014 29.2441C12.0067 29.1974 11.9951 29.1521 11.9556 29.0805C12.0462 28.8381 12.2025 28.6949 12.4566 28.8249C12.6932 28.9461 12.5822 29.1346 12.5471 29.3288C12.4683 29.7787 12.0681 30.2826 12.7443 30.6433C12.8261 30.6871 12.8509 30.9909 12.7896 31.1209C12.645 31.4233 12.6333 31.6394 12.9634 31.8059C13.3738 32.0133 12.9999 32.228 12.9576 32.4617C12.8276 32.1974 12.8582 31.822 12.5252 31.803C12.5252 32.3975 12.5252 32.9963 12.5252 33.5951C11.8972 34.0829 11.2706 34.5708 10.5739 35.1126C10.0291 33.5922 9.72534 32.1068 9.61872 30.5966C9.01843 22.1049 12.1805 15.3381 19.0817 10.3634C21.4288 8.67206 24.0871 7.58832 26.9293 7.04207C27.7896 6.87703 28.6542 6.58346 29.5598 6.69592C29.8344 6.93253 29.8461 6.94568 29.6737 7.09904C29.3728 7.36632 29.0019 7.5226 28.6075 7.48608C28.2876 7.45687 27.9999 7.51238 27.7034 7.59417L27.702 7.59563Z" fill="#017785"/>
<path d="M41.1315 15.48C40.4918 15.8861 39.8199 16.2308 39.1174 16.5141C38.7522 16.5053 38.4689 16.7639 38.0993 16.7989C37.3968 16.8661 36.8403 16.8457 36.3934 16.1314C36.0604 15.5983 35.187 15.7356 34.7663 15.1748C34.6714 15.0492 34.4991 15.1996 34.3822 15.2829C34.2113 15.4055 34.0025 15.4406 33.8257 15.3836C33.5804 15.3033 33.3949 15.2463 33.129 15.3997C32.9187 15.5209 32.8136 15.3734 32.7186 14.887C32.3301 15.2171 31.9621 15.6509 31.4523 15.0667C31.3355 14.9323 31.1777 15.2157 31.0156 15.2478C30.7293 15.3062 30.4431 15.3486 30.1612 15.2215C30.1524 14.6782 29.8282 14.6402 29.3958 14.7191C29.1344 14.7673 28.908 14.9089 28.6334 14.9382C28.4406 14.9586 28.3632 15.4435 28.0784 15.22C27.8301 15.0243 27.5658 14.76 27.6242 14.3656C27.6549 14.3014 27.7031 14.2488 27.7454 14.1918C27.7746 14.1524 27.7907 14.1071 27.7863 14.0589C27.7819 14.0224 27.7732 14.0034 27.7732 14.0034C27.7366 14.0647 27.7556 14.1422 27.7162 14.205C27.8141 15.1149 27.2313 15.4362 26.5142 15.7459C26.187 15.8875 25.9737 16.0657 25.613 15.851C25.4173 15.7356 25.1558 15.7298 25.0215 16.0526C24.9002 16.3461 24.8024 16.7624 24.3087 16.5024C24.2488 16.4703 24.2035 16.4864 24.2035 16.5535C24.1904 17.2035 23.5098 17.3963 23.2834 17.9016C23.2542 17.9659 23.1446 18.0229 23.1651 18.0769C23.6164 19.3096 22.4859 18.816 22.074 19.0117C21.6183 19.2278 21.5059 19.3096 21.8053 19.7566C21.9294 19.9421 22.2128 20.1056 21.9733 20.3773C21.7469 20.6329 21.5395 20.4606 21.3423 20.3072C21.2225 20.2137 21.0882 20.167 20.929 20.1903C21.2766 20.7775 20.6281 20.6344 20.4733 20.814C20.6544 21.2405 21.151 21.7108 20.206 21.8262C20.1315 21.8349 20.2308 21.8744 20.2396 21.905C20.2527 21.9489 20.2702 21.9956 20.2483 22.0423C20.0789 22.3885 19.8467 22.6704 19.464 22.7945C19.7985 23.3072 19.2639 23.3758 18.9806 23.665C19.4348 23.7424 19.743 23.8695 19.6247 24.4274C19.5108 24.9605 19.2464 25.111 18.7586 25.0555C18.9674 25.2293 19.3194 25.368 18.9207 25.6937C18.8666 25.7376 18.7571 25.6908 18.7513 25.8033C18.8506 25.8033 18.9411 25.8354 19.0258 25.8851C19.0813 25.9274 19.1149 25.9844 19.1281 26.0516C19.0843 26.2225 19.112 26.3788 19.2011 26.5321C19.2727 26.6563 19.3019 26.7979 19.3399 26.9367C19.4553 27.3705 18.8243 27.5034 18.9017 27.7239C19.0332 28.1051 19.0813 28.3753 18.7045 28.5594C18.3569 28.7288 18.963 28.9333 18.6549 29.0706C18.4665 29.4401 18.0955 29.5774 17.7668 29.7687C17.4791 29.6986 17.3623 29.4971 17.409 29.2254C17.4703 28.8676 17.3754 28.6076 17.0468 28.4367C16.9329 28.3783 16.8262 28.257 16.908 28.1446C17.4426 27.4114 16.7561 26.8885 16.5648 26.2999C16.4815 26.0472 16.3589 25.8982 16.5911 25.6879C16.7532 25.5418 16.9007 25.3125 17.1344 25.3929C17.4236 25.4937 17.3871 25.7668 17.3477 26.0122C17.3579 25.4834 17.2104 24.9825 17.0526 24.4859C16.9781 24.2507 16.9139 24.0448 17.26 24.017C17.466 23.9995 17.723 24.185 17.8705 23.9542C18.0385 23.6899 17.8282 23.3977 17.8253 23.1129C17.8253 23.0326 17.6792 22.9318 17.6865 22.8004C17.7055 22.4688 18.075 22.4411 18.1846 22.2351C18.2532 22.1066 17.7216 22.0569 17.8822 21.7108C17.9582 21.5443 18.0706 21.4829 18.2605 21.4362C18.6476 21.3384 18.8827 21.1193 18.7922 20.63C18.6666 19.9494 19.2756 19.2439 19.8642 19.3272C20.0015 18.8861 19.5502 18.3515 20.0658 17.9688C20.3345 17.7702 20.5726 17.9542 20.834 18.0331C20.7741 17.8914 20.4645 17.8943 20.5682 17.7147C20.7332 17.427 20.945 17.1334 21.2707 17.018C22.1471 16.7054 22.3267 16.5316 22.7269 15.5691C22.8657 15.2361 23.187 15.3603 23.4338 15.3778C23.6734 15.3953 23.8077 15.4362 23.9333 15.1193C24.17 14.5277 24.7907 14.2897 25.4406 14.3934C25.9022 14.4664 25.9606 14.0297 25.9898 13.7858C26.0482 13.2979 26.244 13.1899 26.704 13.222C27.0794 13.2483 27.4825 13.1928 27.7761 12.8715C28.0565 12.5662 28.3165 12.6217 28.5677 12.927C28.6203 12.9912 28.6378 13.1738 28.6597 13.1168C28.8949 12.4873 29.8355 12.9182 29.9947 12.2098C30.0779 11.9966 30.2006 11.8447 30.4621 11.9002C30.6782 12.0974 30.8988 12.223 31.2259 12.2361C31.5882 12.2507 31.6057 12.4143 31.3559 12.705C32.076 12.8525 32.7508 12.0638 33.5278 12.572C33.6578 12.6568 33.7834 12.4713 33.928 12.4596C34.1807 12.4406 34.4216 12.4041 34.4552 12.7736C34.4815 13.057 34.7576 13.1285 34.9445 13.276C35.0993 12.6641 35.6398 12.3559 36.2327 12.5823C36.779 12.7911 36.4022 13.1796 36.3627 13.4951C36.687 13.3783 36.9718 13.4221 37.2318 13.6704C37.2697 13.7069 37.2478 14.3262 37.4859 13.7361C37.5356 13.6134 37.7736 13.6426 37.7882 13.739C37.8598 14.1962 38.2191 14.0691 38.4674 14.075C39.278 14.0954 39.3861 14.7673 39.6622 15.3311C39.6738 15.0769 39.4474 14.7979 39.8024 14.6723C39.944 14.6227 40.1996 14.6723 40.2069 14.7483C40.261 15.3427 41.2425 14.7147 41.1388 15.4713L41.1315 15.48Z" fill="#017785"/>
<path d="M30.0395 12.268C30.6003 12.9326 29.4655 12.5367 29.6159 12.9457C29.3165 13.0158 28.8389 13.2057 28.7337 13.3474C28.6709 13.4335 28.6373 13.5109 28.5234 13.4627C28.4109 13.4145 28.2678 13.3401 28.3876 13.2013C28.5862 12.972 28.4036 12.9238 28.2532 12.842C28.0706 12.7427 28.002 12.8741 27.91 12.991C27.5419 13.4671 27.0322 13.5168 26.5034 13.3926C26.3209 13.3503 26.1383 13.4072 26.1719 13.5153C26.3705 14.139 25.8199 14.3902 25.6227 14.7933C25.3028 14.7889 25.2941 14.1609 25.018 14.4253C24.6909 14.7378 23.9956 14.6911 24.0307 15.3819C24.0453 15.6799 24.0249 15.6551 23.667 15.5703C23.407 15.509 23.1281 15.6156 22.8827 15.4579C22.7907 15.7894 23.0565 15.9165 23.0682 16.1327C22.7469 16.3459 22.021 16.2247 22.3832 16.9871C22.4445 17.1171 22.3437 17.1434 22.2313 17.1112C22.1378 17.0849 22.0137 17.009 21.9567 17.0426C21.5404 17.2938 20.9401 17.2179 20.7196 17.7787C20.9679 17.8736 21.222 18.0109 21.092 18.4082C20.8262 18.4696 20.8321 18.0869 20.5925 18.0986C20.4392 18.1059 20.2683 17.8912 20.1383 18.1088C20.055 18.2476 19.7994 18.3425 19.9981 18.5966C20.0711 18.6901 20.0434 18.8741 20.0361 19.0158C20.0258 19.2174 20.2624 19.454 20.0156 19.6117C19.741 19.787 19.6446 19.3926 19.3978 19.343C19.2722 19.6555 19.1758 19.9725 19.018 20.2558C18.9012 20.4661 18.7887 20.6297 19.0443 20.8035C19.0925 20.8371 19.1349 20.8809 19.1787 20.9204C18.6982 20.9335 18.9187 21.7792 18.3608 21.6361C18.1432 21.5806 18.0512 21.5762 17.9913 21.7734C17.8832 22.1312 18.206 21.953 18.2994 21.9705C18.4572 22.0012 18.5989 22.0085 18.6018 22.1911C18.6032 22.267 18.5068 22.4131 18.4557 22.4131C17.5823 22.4145 17.9489 23.0031 18.003 23.4019C18.13 24.3498 18.076 24.4097 17.1252 24.1585C17.3282 24.7763 17.5078 25.3853 17.521 26.0309C17.5239 26.177 17.7225 26.3639 17.3793 26.3478C17.1383 26.3376 17.074 26.1623 17.1514 26.0061C17.2493 25.8089 17.334 25.6015 17.1105 25.5153C16.7644 25.3809 16.8827 25.8878 16.5847 25.9827C16.408 26.0382 16.8257 26.0835 16.8403 26.2003C16.9075 26.7524 17.1544 27.2096 17.4406 27.677C17.5633 27.8785 17.0682 27.9384 17.0156 28.2539C17.5312 28.3882 17.8438 28.6672 17.5458 29.2719C17.4363 29.4939 17.7196 29.5932 17.7722 29.7729C17.3136 30.1497 16.8418 30.509 16.3102 30.7806C16.1729 30.7471 15.9217 30.8157 15.9114 30.6886C15.8735 30.1672 15.3958 30.081 15.1023 29.8371C14.7517 29.5435 14.6933 29.3142 15.1563 29.1886C15.6339 29.0586 15.466 28.9111 15.2775 28.6555C15.0643 28.3663 15.0307 28.0319 15.1943 27.6901C15.3024 27.4652 15.8063 27.2578 15.2513 26.9861C14.8467 26.7875 15.8428 26.6969 15.2761 26.4691C14.8438 26.2953 15.1578 25.8936 15.222 25.7154C15.4324 25.1253 15.447 24.4958 15.6719 23.9145C15.8004 23.5801 15.8486 23.2354 15.6836 22.8586C15.5404 22.5299 15.3433 22.0845 15.9976 21.9793C16.1831 21.9486 16.2006 21.7281 16.2868 21.5835C16.519 21.192 16.557 20.729 17.0755 20.4472C17.3866 20.2777 17.3165 19.5606 17.7926 19.2948C17.854 19.2612 17.7956 19.0961 17.7181 19.0377C17.1047 18.5616 17.5998 18.3717 17.9518 18.1731C18.1461 18.0635 18.3228 17.9467 18.4689 17.7787C19.0765 17.64 19.5176 17.0397 20.2215 17.1901C20.2142 16.9535 20.131 16.7753 20.0813 16.5913C19.8389 15.6901 20.575 14.8444 21.52 14.9569C21.666 14.9744 21.8106 15.0387 21.9216 14.9043C22.0385 14.7641 21.9786 14.6297 21.8676 14.5173C21.555 14.2076 21.7829 13.9681 22.0443 13.9447C22.3525 13.9155 22.5511 13.6424 22.8447 13.6716C23.6904 13.7578 23.7327 13.8089 24.3287 13.2276C24.777 12.7909 24.9333 13.2203 25.2269 13.4204C24.7727 12.8289 25.4898 12.8026 25.6052 12.4973C25.6855 12.3761 25.8228 12.1731 25.9221 12.2665C26.4173 12.7354 26.6334 12.2914 26.9065 12.008C27.0511 11.859 27.2396 11.7875 27.4338 11.7977C27.7712 11.8152 28.0662 11.6984 28.3175 11.5114C28.6417 11.2704 28.8885 11.2179 29.2654 11.4735C29.4625 11.6078 29.5896 12.0314 30.0176 11.8298C30.1125 11.7846 30.0526 12.1117 30.0365 12.2709L30.0395 12.268Z" fill="#017785"/>
<path d="M30.1868 15.1874C30.4921 14.9318 31.0777 15.4225 31.2705 14.7594C31.3041 14.6411 31.6196 14.8573 31.7175 15.0442C31.8504 15.2984 32.1834 15.3334 32.2155 15.1611C32.3221 14.5871 32.696 14.7214 33.0495 14.736C33.1444 14.9405 32.6522 15.1187 32.9589 15.2589C33.2759 15.4035 33.3898 15.1655 33.3022 14.8441C33.292 14.8091 33.3825 14.7127 33.438 14.6995C33.5519 14.6718 33.5884 14.7594 33.6177 14.8617C33.733 15.2589 33.9959 15.3334 34.3815 15.0647C34.5568 14.942 34.6561 14.7828 34.9176 14.996C35.1819 15.2122 35.3426 15.8373 35.8918 15.3875C36.0042 15.9016 36.7535 15.7964 36.8251 16.331C36.8762 16.7063 37.1362 16.8086 37.3786 16.6625C37.8285 16.3909 38.347 16.7575 38.7778 16.442C38.8421 16.3952 39.0057 16.4843 39.124 16.5106C38.1381 17.0408 37.1537 17.571 36.1678 18.1012C35.4039 18.2575 35.3061 17.5988 35.0242 17.2555C35.0286 17.4907 34.9249 17.7696 34.551 17.59C34.2165 17.4279 33.7637 17.4542 33.5432 17.2438C32.8684 16.6026 32.3937 17.1679 31.9365 17.4629C31.4619 17.7682 31.1946 17.7404 30.9843 17.2321C30.8893 16.9999 30.7111 16.8115 30.4906 16.9415C29.829 17.3315 29.0052 17.2044 28.3699 17.6499C28.3144 17.6937 28.2515 17.7098 28.1814 17.7025C27.8835 17.3037 27.5563 17.6382 27.2408 17.6645C27.4555 17.6762 27.6206 17.7156 27.5622 18.0062C27.4322 18.646 26.5777 19.2842 25.8913 19.2331C25.8197 19.2273 25.6868 19.1893 25.6853 19.2054C25.5875 19.9795 24.1897 19.7429 24.4482 20.8003C24.4804 20.9347 24.3548 21.0486 24.1561 21.0165C23.8538 20.9668 23.5339 21.0676 23.141 20.7915C23.2783 21.4327 22.792 21.9176 23.1542 22.4653C23.2652 22.6333 23.0972 22.7385 22.9716 22.7911C22.6634 22.921 22.659 23.2511 22.5028 23.4498C21.9317 24.1727 22.3961 25.3792 21.3606 25.8392C21.1722 25.924 21.3504 25.8962 21.3635 25.9123C21.6863 26.2789 21.6659 26.7039 21.5709 27.1406C20.9736 27.6211 20.3572 28.0739 19.6766 28.4332C19.6065 28.0885 19.3991 27.7453 19.9351 27.5189C20.1673 27.421 20.0753 27.0661 19.9672 26.8134C19.6883 26.1635 19.5962 25.5997 20.0403 24.887C20.4551 24.2209 20.5967 23.3709 21.0364 22.6742C21.1255 22.5325 21.1079 22.35 21.0787 22.1776C21.0086 21.7541 21.1693 21.3801 21.4994 21.1567C21.9405 20.8573 22.2895 20.4542 22.7219 20.1635C22.7365 20.127 22.7686 20.108 22.808 20.1153C22.8036 20.0876 22.7876 20.0846 22.7671 20.1095C22.7408 20.1401 22.716 20.1708 22.6795 20.2C22.3611 20.2336 22.1449 20.0452 22.2705 19.7881C22.4838 19.3529 22.8562 19.0316 23.3338 18.8519C23.7442 18.6971 23.9648 18.9395 24.2248 19.2244C23.68 18.7175 23.8494 18.3582 24.4 18.0691C24.533 17.9989 24.622 17.8938 24.6922 17.758C24.9813 17.1913 25.3027 16.7735 26.0914 16.8655C26.7384 16.9415 27.2963 16.2448 28.0281 16.4522C28.0967 16.4712 28.0149 16.4464 28.012 16.4361C27.882 16.0243 27.8791 15.9907 28.2735 15.9644C29.0052 15.9162 29.5033 15.3276 30.1868 15.1801V15.1874Z" fill="#017785"/>
<path d="M28.2869 17.6684C28.3249 17.534 28.23 17.4025 28.5016 17.312C29.1443 17.0973 29.841 17.0841 30.453 16.7438C30.8444 16.5262 31.0883 16.7438 31.1657 17.163C31.2344 17.5355 31.5163 17.7429 31.7105 17.385C32.0085 16.8388 32.654 17.071 32.9666 16.6606C33.0484 16.554 33.1842 16.608 33.2032 16.6796C33.3902 17.3967 34.2504 16.9469 34.563 17.4697C34.6243 17.5734 34.9033 17.6158 34.8931 17.3237C34.8887 17.1747 34.842 17.0126 35.0274 16.9673C35.3984 16.8767 35.0172 17.1762 35.1866 17.3047C35.5167 17.5574 35.6686 18.035 36.1667 18.1036C35.5503 18.4527 34.934 18.8018 34.3176 19.1494C33.913 19.0238 33.5873 18.7068 33.0586 18.9551C32.8001 19.0764 32.5021 18.5535 32.172 18.3943C32.0114 18.3169 31.6579 18.4994 31.6842 18.6849C31.7266 18.9902 31.5995 19.0676 31.3687 18.9259C30.8575 18.6104 30.3916 18.8836 29.9228 19.0135C29.5679 19.1114 29.5766 19.1435 29.4203 18.6572C28.9325 18.9785 28.6243 19.5905 27.9028 19.5204C27.6443 19.4955 27.6253 19.83 27.5231 20.0067C27.2514 20.4741 26.9169 20.6976 26.3371 20.6289C25.5133 20.5311 25.4345 20.6625 25.6725 21.498C25.731 21.7039 25.7587 21.8879 25.5528 22.0106C25.3498 22.1319 25.1511 22.3027 24.8838 22.164C24.488 21.9595 24.2806 22.072 24.266 22.535C24.2514 22.9673 24.2412 23.3894 24.1506 23.8246C23.99 24.6002 24.0382 24.6104 23.1574 24.5476C23.5518 25.1859 23.3634 25.6022 22.7193 25.8884C22.5031 25.9848 22.5747 26.4215 22.2212 26.4449C22.1409 26.4916 22.1015 26.5559 22.1409 26.6523C22.1511 26.68 22.1584 26.7063 22.1672 26.7326C22.0094 26.9313 21.8006 27.0569 21.5684 27.1489C21.6122 26.8071 21.0396 26.5428 21.4398 26.1236C21.472 26.09 21.0499 25.9147 20.7344 25.738C21.6414 25.7993 21.7597 25.0866 22.0839 24.6017C22.1672 24.4775 21.9744 24.4191 21.9174 24.3256C21.7217 24.0043 21.8327 23.7122 22.1906 23.7166C22.5148 23.7195 22.3337 23.5077 22.3264 23.4551C22.2475 22.8943 22.5367 22.665 23.156 22.6387C22.2943 22.0939 23.4598 21.3563 22.7456 20.832C23.3371 20.588 23.8162 20.8801 24.2894 20.7677C24.1842 20.0944 24.1871 20.1002 25.0869 19.6708C25.4111 19.516 25.6185 19.3013 25.1891 18.8865C26.47 19.5174 26.9374 18.6236 27.5187 17.8685C27.2047 17.6333 27.2032 18.1562 26.9593 18.0204C26.8775 17.9561 27.5012 17.1689 27.7115 17.1426C27.8488 17.1265 28.0255 17.1747 28.0503 17.3397C28.0752 17.5062 28.1409 17.607 28.2884 17.6669L28.2869 17.6684Z" fill="#017785"/>
<path d="M26.0985 10.2226C26.5907 9.80053 26.8697 10.4549 27.3648 10.4782C27.1414 10.1598 26.9544 9.894 26.7397 9.58874C27.0289 9.55953 27.2714 9.29225 27.4904 9.7348C27.6496 10.0576 28.1652 9.92467 28.2309 9.79322C28.5099 9.23383 29.2168 9.33169 29.5016 8.72263C29.6623 9.07317 29.6886 9.48212 30.1311 9.17248C30.3867 8.9943 30.7928 9.24113 30.8556 9.31854C31.5946 10.2445 31.7553 9.00598 32.2227 8.97239C32.3045 8.96654 32.3746 8.81026 32.4593 8.71387C32.6185 9.01036 32.4286 9.26012 32.433 9.58144C33.1224 9.07317 33.8497 9.31124 34.5537 9.38427C34.7348 9.40325 34.9189 9.59897 35.0547 9.75525C35.135 9.84872 35.0971 10.0824 35.3118 9.91007C35.82 9.50111 36.2378 10.0298 36.7037 10.0284C36.784 10.0284 36.8497 10.0284 36.8556 10.1189C36.9403 11.337 37.4748 10.5688 37.821 10.3117C38.1818 10.043 38.2957 10.154 38.5761 10.4651C38.9456 10.8726 39.3283 11.4889 40.0571 11.2319C40.5216 11.0683 40.4164 11.9724 40.9086 11.5956C41.008 11.9841 40.1564 11.8921 40.5698 12.2952C40.97 12.6866 41.0635 12.0191 41.3424 11.9256C41.5367 12.1418 41.3307 12.6238 41.8244 12.618C42.2319 12.6136 41.7952 12.2236 42.1224 12.117C42.153 12.5376 42.784 12.8984 42.0712 13.3818C42.7416 13.1306 43.3522 13.1218 43.9948 13.4884C43.3376 13.7061 43.2236 13.9281 43.5055 14.3224C43.1608 14.6598 42.6642 14.6657 42.2699 14.8921C42.1092 15.0001 41.858 15.0191 41.8595 14.8322C41.8638 14.2655 41.433 14.1603 41.0722 14.0873C40.5157 13.9748 40.285 13.5439 40.0031 13.1686C39.7913 12.8867 39.6219 12.8049 39.3604 13.0152C39.1457 13.1876 38.9237 13.1963 38.6813 13.0868C38.4768 12.9948 38.3234 12.5917 38.024 12.9933C37.9714 13.0634 37.8225 12.8984 37.7801 12.7874C37.6326 12.3974 37.2382 12.244 36.9856 11.9549C36.8015 11.7445 36.9315 12.025 36.9301 12.0293C36.8103 12.4193 36.5167 12.485 36.2684 12.2514C35.9865 11.9885 35.5002 12.0629 35.341 11.6218C35.2855 11.467 35.2387 11.6627 35.1832 11.6817C34.8765 11.7913 34.6005 11.7168 34.3624 11.5357C34.1345 11.3633 33.949 11.0814 33.6628 11.4466C33.2991 11.0508 32.7032 11.4013 32.3307 11.0318C32.3264 10.7893 32.3351 10.541 32.0576 10.4213C31.7042 10.4753 31.4062 10.6871 31.0469 10.7397C30.7986 10.7762 30.5795 10.4519 30.5109 10.56C30.3371 10.8317 30.0786 10.839 29.8419 10.9149C29.3687 11.0654 28.8239 10.9164 28.3945 11.2684C28.32 11.3297 28.1959 11.3166 28.1302 11.2363C27.8381 10.877 27.638 11.1209 27.4364 11.3356C27.0464 11.7504 26.7821 11.5999 26.5732 11.1574C26.6141 10.747 25.8794 10.7251 26.1 10.2226H26.0985Z" fill="#017785"/>
<path d="M18.5045 17.8148C18.5513 18.5013 17.6808 18.1332 17.6136 18.659C18.1715 18.9672 18.2095 19.271 17.6574 19.6011C17.5026 19.6946 17.469 19.8158 17.4427 19.9458C17.3595 20.3372 17.5566 20.9433 16.7767 20.7622C16.8337 21.1653 16.4422 21.418 16.4189 21.7729C16.4042 22.0008 16.2567 22.1454 16.1486 22.1366C15.4958 22.0797 15.7689 22.4872 15.8259 22.7574C15.9719 23.4467 15.9807 23.4453 15.5761 24.2778C16.2158 24.8591 15.0824 25.2944 15.4461 25.8625C15.6068 26.1137 15.1701 26.086 15.208 26.2978C15.4301 26.457 15.6696 26.2481 15.8726 26.3182C16.2874 26.6235 14.4398 26.9302 16.0844 27.2384C15.5819 27.3669 15.2855 27.5991 15.2577 27.938C15.2314 28.2505 15.1847 28.7019 15.7353 28.7369C15.7704 28.7398 15.8434 28.9472 15.8156 28.9735C15.6448 29.1415 15.5279 29.4453 15.2095 29.3343C14.9641 29.2481 14.986 29.4102 14.9612 29.5475C15.4797 29.4818 15.5104 30.4487 16.2743 30.0529C15.7134 30.4458 15.9456 30.6269 16.3078 30.7788C15.7747 31.068 15.4461 31.6288 14.8707 31.864C14.5683 31.5397 14.2645 31.2199 13.6657 31.512C14.063 30.7992 14.4617 30.2121 14.1783 29.4584C14.1331 29.3372 14.1783 29.1853 14.0396 29.0845C13.8468 28.9428 13.5664 28.7077 13.6876 28.5339C13.8643 28.2841 14.2222 28.3002 14.6136 28.5821C13.9271 27.7277 13.9038 27.7218 13.5415 28.2359C13.248 27.8518 13.857 27.6415 13.7066 27.2384C13.619 27.0061 13.819 26.6644 13.4524 26.4949C13.3517 26.4482 13.3005 26.3737 13.4057 26.2744C13.746 25.9531 13.7446 25.5178 13.7913 25.1001C13.8337 24.732 14.0338 24.4808 14.4062 24.3465C14.19 24.1259 13.5138 24.0558 14.2192 23.6658C14.4266 23.5519 14.6749 23.381 14.2485 23.1649C14.0776 23.0787 13.9929 22.8012 14.0951 22.6551C14.3156 22.3426 14.3551 22.6916 14.4778 22.7953C14.5683 22.8713 14.6443 22.7544 14.6866 22.6726C14.8093 22.4317 14.8225 22.1834 14.672 21.9526C14.6413 21.9044 14.412 21.9497 14.5143 21.8328C15.0226 21.253 14.5902 20.473 14.9568 19.8786C15.097 19.6507 15.2022 19.103 15.5673 19.7603C15.6448 19.9005 15.7411 19.5938 15.9573 19.6332C16.042 19.6975 16.0435 19.6946 16.042 19.6931C16.0084 19.661 15.9705 19.6347 15.9325 19.6084C15.8565 19.5543 15.8565 19.5543 15.931 19.6113C15.9675 19.6391 16.0041 19.6683 15.9588 19.6332C16.1895 19.3455 15.9573 18.8839 16.3152 18.6342C16.467 18.5276 16.1603 18.272 16.0128 18.2705C15.6564 18.2647 15.7455 17.9433 15.6155 17.79C15.4534 17.6001 15.7747 17.4599 15.7893 17.4891C15.9719 17.8572 16.4349 17.8689 16.6365 18.1332C17.1316 17.4774 17.0615 16.5383 17.6224 15.7715C17.7903 16.0884 18.0079 16.2871 18.3585 16.2111C18.4038 16.4302 18.6082 16.3951 18.7499 16.4696C19.172 16.6916 19.1662 16.9516 18.7514 17.3255C18.5673 17.3065 18.3965 17.3211 18.2825 17.4979C18.0868 17.695 17.8239 17.4993 17.6034 17.6118C17.9115 17.6819 18.2884 17.3956 18.5045 17.8177V17.8148Z" fill="#017785"/>
<path d="M27.7031 7.59549C27.8565 7.27124 28.0873 7.17484 28.4363 7.30045C28.9315 7.47864 29.2864 7.12372 29.669 6.9134C29.7494 6.86959 29.6471 6.74836 29.5595 6.6987C31.7255 6.38322 33.874 6.60084 35.986 7.05362C39.8828 7.88906 43.3005 9.68409 46.2537 12.3744C46.7547 12.8301 46.6656 13.001 46.1004 13.188C45.7586 13.3004 45.43 13.4553 45.094 13.5911C45.0911 13.242 44.4017 12.3555 44.0512 12.2284C43.9723 12.2006 43.8467 12.0794 43.857 12.0604C43.984 11.8136 44.0454 11.6018 43.689 11.5113C43.4977 11.4631 43.2625 11.6427 43.0259 12.0078C42.836 11.6339 42.8613 11.3146 43.1018 11.0497C42.6929 11.0161 42.3029 11.0731 42.078 10.5692C41.986 10.3647 41.4675 10.2625 41.1885 10.5838C41.0439 10.7503 40.9548 10.7079 40.8467 10.5867C40.7562 10.4859 40.5502 10.3808 40.6612 10.2376C41.1286 9.63005 40.3837 9.88565 40.2859 9.68701C39.9529 9.97328 39.7791 9.68117 39.598 9.48253C39.1423 8.98594 38.5055 9.08964 37.9431 9.00055C37.3808 8.91145 36.9105 8.13882 36.2445 8.74203C36.227 8.7581 36.1423 8.72888 36.116 8.69675C35.9173 8.46452 35.2834 8.37981 35.8706 7.7912C35.098 8.4207 34.061 7.94018 33.4461 8.70551C33.1656 8.37251 33.8229 8.29071 33.5191 8.14174C33.246 8.00737 33.0021 7.54729 32.5785 7.87884C32.5303 7.91681 32.4207 7.95332 32.3915 7.92996C31.5751 7.24641 31.7664 8.26296 31.4378 8.48205C31.2727 8.4543 31.3516 8.14612 31.3107 8.17679C30.6783 8.63541 30.3964 7.73716 29.8735 7.81895C29.2966 7.90951 28.7343 8.03219 28.1734 8.21623C27.598 8.40464 27.7484 7.8949 27.706 7.59841L27.7031 7.59549Z" fill="#017785"/>
<path d="M22.7396 20.1499C22.5293 20.5385 22.2912 20.8919 21.8647 21.0891C21.3769 21.3155 21.1724 21.7303 21.2294 22.2561C21.2966 22.8827 20.8672 23.3573 20.6408 23.8496C20.4027 24.3695 20.3618 24.9859 19.9353 25.4635C19.798 25.6168 19.7119 26.2536 20.0726 26.6115C20.4304 26.9679 20.1237 27.3885 20.1559 27.777C19.446 27.5988 19.9295 28.2867 19.6753 28.4386C19.5892 28.5014 19.5015 28.5657 19.4154 28.6285C19.2503 28.7045 19.0765 28.7629 18.9451 28.8958C18.8501 28.9542 18.7552 29.0126 18.6588 29.0711C18.6661 28.7541 18.3842 28.7965 18.1914 28.7088C18.3973 28.5745 18.5945 28.4532 18.7815 28.3189C18.948 28.1991 19.0152 27.9888 18.7932 27.9347C18.1082 27.7712 18.6267 27.4732 18.7713 27.4396C19.5541 27.257 19.2211 26.7181 18.9728 26.5049C18.5492 26.1397 18.986 26.1368 19.1247 25.9747C19.208 25.9659 19.2532 25.9557 19.2927 25.9323C19.2445 25.9221 19.1977 25.9279 19.1554 25.9542C19.113 25.9805 19.0926 25.9922 19.0911 25.9864C19.0853 25.9659 19.1072 25.9586 19.1247 25.9747C18.8282 25.8827 18.5843 25.9411 18.3594 26.1076C18.2615 25.9133 18.3754 25.8009 18.4616 25.6957C18.596 25.5321 18.9889 25.7205 18.9743 25.4313C18.9553 25.0691 18.5317 25.2853 18.2878 25.1348C18.4382 24.85 18.7114 24.9347 18.8589 24.9464C19.4971 24.9932 19.3964 24.4659 19.5103 24.1387C19.5935 23.9021 19.4037 23.8919 19.2007 23.924C19.0239 23.9518 18.7712 24.0248 18.7011 23.7736C18.6223 23.4917 18.856 23.4201 19.0736 23.3413C19.2897 23.2624 19.2503 23.2522 19.17 22.9352C19.1174 22.7264 19.224 22.4898 19.4548 22.4255C20.039 22.2619 20.1675 22.0545 19.9207 21.5462C20.1486 21.5229 20.3048 21.9158 20.5502 21.6529C20.705 21.4864 20.6043 21.26 20.5268 21.1855C19.7878 20.4523 20.686 20.6422 20.946 20.4435C20.819 20.3091 20.6934 20.1762 20.5692 20.0433C20.8788 20.1061 21.2089 19.8184 21.4674 20.1339C21.577 20.2682 21.6792 20.537 21.9056 20.2931C22.1481 20.0331 21.634 20.1017 21.7011 19.871C21.7873 19.5745 21.057 19.6986 21.3608 19.3408C21.5551 19.11 21.6851 18.4542 22.2489 18.9362C22.4811 18.555 22.8491 18.6426 23.2975 18.742C22.3818 17.9606 23.2683 17.6714 23.5648 17.2799C23.7284 17.0638 24.0453 16.9878 24.0439 16.6198C24.0439 16.389 23.9738 15.9348 24.4558 16.4197C24.7464 16.7118 24.7084 16.205 24.8063 16.0823C25.0079 15.8325 25.0283 15.3681 25.5439 15.6543C25.6359 15.7054 26.7883 15.4177 26.8905 15.3885C27.4163 15.2322 27.7201 14.9562 27.5113 14.3544C27.4981 14.3194 27.6383 14.2303 27.707 14.166C27.7508 14.1981 27.7669 14.2303 27.7508 14.2639C27.7362 14.296 27.7216 14.3121 27.707 14.3121C27.6164 14.7371 28.3263 14.7152 28.0312 15.352C28.4373 15.0453 28.3379 14.3004 28.9149 14.759C29.2041 14.3062 29.6977 14.5516 30.0672 14.5019C30.371 14.461 30.1972 14.9343 30.1899 15.1884C30.2221 15.2994 30.3112 15.5024 30.1958 15.5083C29.3852 15.5521 28.8287 16.4387 27.9115 16.0998C27.9976 16.4956 28.3175 16.2546 28.5147 16.4985C28.0312 16.4927 27.6529 16.8666 27.187 16.6095C27.1096 16.5672 27.0512 16.5584 27.0205 16.6256C26.686 17.3705 26.0901 17.0404 25.5629 16.982C25.4387 16.9674 25.3745 16.9411 25.2985 17.1003C25.0648 17.591 24.891 18.1329 24.2805 18.3374C24.0702 18.4075 24.1096 18.5462 24.3287 18.834C24.5171 19.0808 24.2323 19.2488 24.2016 19.5292C23.9723 19.2751 23.9416 18.8603 23.4743 18.9771C22.9412 19.11 22.7045 19.5628 22.3788 19.9075C22.2985 19.9922 22.5643 20.1397 22.7425 20.1543L22.7396 20.1499Z" fill="#017785"/>
<path d="M22.0081 26.283C22.1118 26.1793 22.6201 26.5181 22.3353 25.9529C22.2549 25.7922 22.642 25.7718 22.8056 25.6739C23.2072 25.4344 23.3372 25.1452 23.0743 24.7362C23.0086 24.6354 22.7281 24.6866 22.8333 24.4689C22.9151 24.2995 23.0991 24.3068 23.2817 24.3463C23.8002 24.4587 24.1259 24.5829 23.9302 23.7182C23.844 23.3341 23.9813 22.6666 24.0602 22.1437C24.0923 21.929 24.6984 21.802 25.0651 21.6252C25.1965 21.8662 24.862 21.856 24.973 22.078C25.1264 21.8458 25.9166 22.1379 25.3922 21.3317C25.03 20.7737 25.4755 20.1486 26.1283 20.3764C26.9784 20.6729 27.2238 20.1822 27.5363 19.652C27.5918 19.5585 27.5334 19.3467 27.6911 19.3716C28.5704 19.5074 28.9209 18.707 29.5315 18.3711C29.587 18.3404 29.6658 18.3492 29.7199 18.3419C29.8805 18.4777 29.7973 18.5785 29.6877 18.6413C29.5125 18.7421 29.5066 18.8823 29.6264 18.9918C29.7681 19.1204 29.8075 18.8823 29.8951 18.8677C30.4428 18.7713 31.0022 18.1739 31.6011 18.9305C31.2053 18.4441 31.883 18.3273 31.8099 17.8701C32.1619 18.2732 32.6366 18.3623 32.9185 18.7406C32.9755 18.8166 33.1259 18.9801 33.2135 18.8458C33.7817 17.987 33.9015 18.8516 34.1863 19.0853C34.2228 19.116 34.2724 19.1306 34.3148 19.1525C33.5217 19.6958 32.7009 20.1895 31.8348 20.6087C31.3133 20.6028 30.9365 20.2172 30.4648 20.0814C30.3158 20.0391 30.2135 19.8842 30.0091 20.0303C29.3781 20.4831 29.3693 20.4699 28.7544 20.1807C28.6434 20.4553 29.1809 20.4758 28.9881 20.7679C28.8318 21.0045 28.5952 21.1243 28.325 21.1827C28.087 21.2338 27.8533 21.32 27.6137 21.3346C27.3216 21.3536 27.1361 21.412 27.0427 21.7479C26.9419 22.1101 26.6658 22.0502 26.4117 21.8531C26.3255 21.7859 26.3708 21.653 26.2686 21.5989C26.6702 21.7771 25.5383 21.9042 26.2554 22.1218C26.473 22.1875 26.3723 23.2304 26.1269 23.264C25.2111 23.3881 25.3367 24.0279 25.363 24.6384C24.2968 25.3365 23.2306 26.0332 22.1644 26.7314L22.1352 26.7051C22.0271 26.5838 21.9146 26.4641 22.0066 26.283H22.0081Z" fill="#017785"/>
<path d="M32.3753 10.9531C32.5725 11.3606 32.739 11.0846 32.9113 10.9283C33.015 10.8348 33.0983 10.699 33.2779 10.7589C33.5379 10.8451 33.4298 11.0116 33.3729 11.1664C33.3349 11.2701 33.3247 11.3636 33.4707 11.3723C33.6036 11.3796 33.7176 11.3183 33.7584 11.1941C33.8943 10.7706 33.9732 10.8319 34.2141 11.1649C34.6173 11.7214 35.0131 11.6878 35.4498 11.1299C35.6864 11.2861 35.1825 11.8368 35.7813 11.7827C36.1509 11.7491 36.2458 12.2165 36.5584 12.237C36.8811 12.2574 36.7657 12.0559 36.7029 11.8601C36.6606 11.7258 36.6022 11.4862 36.8505 11.4439C37.0827 11.4045 37.1207 11.5578 37.1017 11.7652C37.0783 12.015 37.331 12.069 37.477 12.1581C37.7633 12.3319 37.9736 12.5276 37.9284 13.014C38.165 12.4604 38.1489 12.4838 38.5812 12.8709C38.6981 12.976 38.9201 13.0943 39.2063 12.9468C39.6708 12.7073 39.0457 12.5072 39.2823 12.2793C39.497 12.5875 39.7088 13.0271 40.2273 12.3334C40.1382 13.0549 40.3412 13.4858 40.7429 13.8144C40.9912 14.0174 41.4834 13.6859 41.6075 14.1912C42.3013 13.9721 41.996 14.4307 41.9683 14.7126C41.9434 14.9624 42.1479 14.866 42.2691 14.8952C41.9507 15.2034 41.5418 15.3392 41.1358 15.4794C41.0744 15.3801 41.0116 15.2822 40.9503 15.1829C40.4566 15.7715 40.3397 15.4049 40.2302 14.9186C40.2214 14.8791 39.922 14.7126 39.7818 14.8397C39.7117 14.9025 39.7847 15.1084 39.7555 15.2414C39.7292 15.367 40.2638 15.3509 39.8417 15.5086C39.5364 15.6226 39.4985 15.0427 39.1435 15.1011C39.107 14.4366 38.7434 14.1445 38.07 14.2467C37.9649 14.2628 37.867 14.3241 37.7794 14.3592C37.6114 14.1708 37.8948 13.9473 37.645 13.7735C37.4405 13.9166 37.4011 14.2277 37.1134 14.33C36.9381 14.1576 37.3923 13.8845 37.033 13.7005C36.7906 13.5763 36.5846 13.5223 36.3699 13.6829C36.256 13.7676 36.1465 13.8144 36.0515 13.7165C35.869 13.5296 36.1056 13.4901 36.1903 13.4098C36.3714 13.2375 36.4211 12.9234 36.3378 12.8139C36.1158 12.5174 35.755 12.8548 35.4542 12.7365C35.2906 12.6722 35.2234 12.7701 35.1898 12.9614C35.1562 13.1527 35.2701 13.5705 34.7954 13.3952C34.2448 13.1922 34.1338 13.0271 34.2799 12.5247C33.814 12.7818 33.3714 12.8037 32.9449 12.5393C32.8514 12.4809 32.7682 12.44 32.7025 12.5525C32.2351 13.3674 31.5136 12.4356 31.0214 12.9614C30.9483 12.6722 31.0038 12.6386 31.1265 12.6664C31.2726 12.7 31.4566 12.7277 31.4376 12.5145C31.4215 12.3304 31.2477 12.3173 31.0988 12.3918C30.6401 12.6226 30.5277 12.3465 30.4766 11.9755C30.5087 11.9113 30.5598 11.8441 30.5496 11.7754C30.4138 10.8918 30.5087 10.8027 31.4099 10.9794C31.5413 11.0919 31.664 11.0539 31.7823 10.9517C31.8349 10.9225 31.8904 10.9006 31.9474 10.886C32.0671 10.8684 32.1854 10.8728 32.3023 10.9035C32.3271 10.921 32.3505 10.9371 32.3753 10.9546V10.9531Z" fill="#017785"/>
<path d="M25.3697 24.6382C24.8819 23.7867 25.0396 23.4566 25.9277 23.1207C26.1292 23.0447 26.1876 22.589 26.3103 22.3144C26.1146 22.0939 25.8722 22.2575 25.6195 22.1436C25.9715 21.8602 26.249 21.536 26.3936 21.0452C26.582 21.3169 26.2884 21.5228 26.4578 21.7098C26.544 21.8047 26.6287 21.8865 26.7602 21.8777C26.9281 21.8661 26.9223 21.7565 26.9121 21.6207C26.8887 21.2599 27.0727 21.257 27.4043 21.1957C27.9184 21.1007 28.5275 21.1314 28.9627 20.6129C28.7553 20.5121 28.4398 20.5457 28.4647 20.201C28.4734 20.0754 28.4486 19.9352 28.583 19.8987C28.8167 19.8344 29.0518 19.9527 29.1657 20.1192C29.4564 20.5428 29.6273 20.2959 29.785 20.0389C29.9822 19.7161 30.213 19.6986 30.5094 19.8855C30.9359 20.1557 31.4851 20.201 31.84 20.6041C29.6828 21.9478 27.5255 23.293 25.3683 24.6367L25.3697 24.6382Z" fill="#017785"/>
<path d="M18.9414 28.898C18.9721 28.5884 19.197 28.6191 19.4117 28.6308C19.289 28.7783 19.1663 28.9272 18.9414 28.898Z" fill="#017785"/>
<path d="M18.3609 49.204C18.3083 49.147 18.2557 49.09 18.2031 49.0345C18.3433 48.9148 18.5478 48.833 18.6515 48.9732C18.7158 49.0608 18.5055 49.1748 18.3609 49.204Z" fill="#017785"/>
<path d="M18.5056 17.8149C18.2383 17.7872 17.917 17.3578 17.733 17.9332C17.6833 18.0866 17.5884 17.9697 17.5227 17.9201C17.3766 17.8062 17.4029 17.6703 17.4832 17.533C17.5533 17.4133 17.6117 17.2351 17.7899 17.4016C17.9506 17.552 18.082 17.5476 18.2135 17.3782C18.3303 17.2409 18.4895 17.2322 18.6517 17.2322C18.9 17.2132 18.9642 17.0584 18.9277 16.8422C18.8956 16.6538 18.8006 16.5851 18.5859 16.5954C18.3435 16.607 17.9915 16.5968 18.3581 16.2098C18.5859 15.8724 18.6473 15.3188 19.325 15.7555C19.601 15.9337 19.7486 15.4503 19.7821 15.1845C19.8216 14.8763 19.7778 14.5666 20.2481 14.7361C20.3839 14.7843 20.4876 14.7507 20.5095 14.5944C20.5913 13.9985 21.0908 13.6655 21.3858 13.2054C21.5626 12.9293 21.7933 12.7497 22.1745 12.9031C22.6872 13.1105 22.9779 12.8373 22.8858 12.2692C23.2042 12.2955 23.1327 11.9318 23.324 11.831C23.5708 11.663 23.695 11.8047 23.7914 12.0136C23.7812 12.0749 23.7432 12.129 23.7315 12.1918C23.7315 12.1552 23.7505 12.1173 23.787 12.072C24.2033 11.4206 24.4822 12.0618 24.8182 12.1713C25.0066 12.4386 25.3118 12.4313 25.5864 12.497C25.6113 12.5189 25.6361 12.5394 25.6595 12.5613C25.7705 12.7891 25.6668 12.8549 25.4491 12.868C25.2812 12.8782 25.1804 13.0082 25.1877 13.163C25.1965 13.3675 25.4477 13.2258 25.5426 13.3923C25.2753 13.423 25.008 13.6494 24.8269 13.2492C24.7612 13.1046 24.7262 13.1119 24.6078 13.2594C24.1273 13.8539 23.4116 14.0934 22.7281 14.4045C22.6083 14.1562 22.9209 14.0131 22.9559 13.6655C22.5704 14.0204 22.1585 14.07 21.64 14.2906C22.1497 14.3636 22.379 14.5287 22.1935 14.9113C22.0402 15.2268 21.8357 15.3977 21.4633 15.1421C21.2412 14.9902 20.7213 15.2619 20.5928 15.5525C20.5752 15.5934 20.5752 15.6635 20.5475 15.6752C19.5543 16.0696 20.4511 16.6143 20.4715 17.0744C20.4759 17.1723 20.5708 17.3665 20.4452 17.3271C19.6814 17.0861 19.2184 17.9435 18.5042 17.8178L18.5056 17.8149Z" fill="#017785"/>
<path d="M22.8838 12.2681C23.0094 12.4755 23.4023 12.512 23.2767 12.8801C22.8633 12.7121 22.691 13.6162 22.2192 13.1284C21.9213 12.8202 21.6058 12.9882 21.559 13.2292C21.4349 13.8631 20.4768 14.0179 20.7221 14.9147C20.7966 15.1849 20.2431 14.8285 19.9261 14.7934C20.2518 15.382 19.8122 15.7779 19.5055 16.0773C19.2031 16.3723 19.1958 15.6595 18.7752 15.7428C18.7285 15.8874 18.8219 16.3197 18.3589 16.2087C18.059 15.9448 18.0985 15.7199 18.4773 15.5339C18.5795 15.4843 18.559 15.382 18.5824 15.29C18.7562 14.605 19.3215 14.0836 19.3477 13.2087C19.4836 13.4103 19.5551 13.4804 19.5814 13.5636C19.6647 13.8353 19.7874 14.1113 20.1116 13.9215C20.319 13.7988 20.5702 13.5855 20.3249 13.2394C20.1759 13.0291 20.319 12.8275 20.4709 12.6595C20.7031 12.6975 20.6637 12.9108 20.7338 13.051C20.8507 13.2861 21.1296 13.1766 21.1004 13.0758C20.9427 12.5179 21.781 12.3777 21.4948 11.7861C21.9271 11.8855 21.9402 12.4419 22.3215 12.3645C22.5172 12.3251 22.6369 12.0782 22.5946 11.83C22.7888 11.9117 22.8867 12.0578 22.8867 12.2681H22.8838Z" fill="#017785"/>
<path d="M24.7833 12.2677C24.4444 12.2107 24.1727 11.6718 23.7609 12.1217C23.6791 11.9274 23.533 11.8295 23.3227 11.8295C23.1445 11.4454 23.0335 11.1197 23.663 11.4367C23.8193 10.9079 24.6693 11.4323 24.7584 10.7064C24.776 10.5662 25.2492 10.48 25.5121 10.3704C25.607 10.2711 25.6348 10.1032 25.8042 10.0783C25.9079 10.0462 26.013 10.0126 26.1167 9.98047C26.1094 10.0623 26.1036 10.1426 26.0963 10.2244C26.0627 10.6684 26.7857 10.6085 26.6805 11.1007C26.5739 11.1708 26.4191 11.0087 26.3314 11.1737C26.1299 11.2366 26.0072 11.3695 25.9692 11.5769C25.8699 12.018 25.5661 12.1976 25.1411 12.2239C25.0242 12.2546 24.9045 12.2809 24.7818 12.2692L24.7833 12.2677Z" fill="#017785"/>
<path d="M26.2424 8.61718C26.0365 8.61718 25.9503 8.47404 25.8744 8.31776C25.7794 8.12351 25.6246 7.91757 25.889 7.74814C26.1417 7.58602 26.295 7.73353 26.3856 7.9643C26.5696 8.43168 26.8062 8.36158 26.9158 7.96284C27.056 7.45457 27.2955 8.19507 27.4109 7.88836C27.3013 8.27248 26.9377 8.48865 26.7785 8.86109C26.7157 9.01007 26.4396 8.68436 26.2424 8.61864V8.61718Z" fill="#017785"/>
<path d="M22.7214 11.3003C22.8485 11.3164 22.8938 11.4171 22.8514 11.5018C22.7901 11.6231 22.6806 11.7209 22.5915 11.8276C22.5476 11.7487 22.4673 11.6684 22.4688 11.5895C22.4688 11.439 22.5506 11.3193 22.7214 11.2988V11.3003Z" fill="#017785"/>
<path d="M25.8038 10.0779C25.7483 10.2167 25.6505 10.3145 25.5117 10.37C25.5254 10.0896 25.6227 9.99225 25.8038 10.0779Z" fill="#017785"/>
<path d="M22.1861 10.2737C21.8429 10.1174 21.8268 9.8618 21.707 9.67777C21.7698 9.65002 21.8648 9.57991 21.8911 9.60036C22.0941 9.75372 22.0955 10.0035 22.1861 10.2751V10.2737Z" fill="#017785"/>
<path d="M26.3908 11.0988C26.4886 10.9367 26.585 11.0871 26.6829 11.0988C27.0218 11.7108 27.2949 11.2975 27.511 11.0126C27.7608 10.6826 27.9448 10.5088 28.1449 11.0258C28.1829 11.1222 28.272 11.2449 28.3348 11.1572C28.7452 10.5789 29.3747 10.9236 29.8801 10.7614C29.753 10.4825 30.7725 10.8914 30.1532 10.3087C30.1444 10.2999 30.2204 10.1626 30.2452 10.167C30.403 10.1904 30.5636 10.1845 30.6921 10.332C30.9171 10.5905 31.421 10.5161 31.6021 10.2166C31.6985 10.0589 31.7335 10.0706 32.0855 10.37C32.0855 10.3992 32.0855 10.4284 32.0884 10.4576C32.0461 10.6256 32.0505 10.8067 31.9395 10.9542C31.8095 11.0521 31.6401 11.0316 31.5013 11.1003C31.3363 11.0769 31.1668 11.017 31.0091 11.0389C30.7126 11.0828 30.3066 11.0915 30.7009 11.572C30.9112 11.8291 30.8616 12.0102 30.4804 11.9752C30.254 11.9518 30.1941 12.1782 30.0422 12.2673C29.9034 11.5282 29.5602 12.2059 29.3163 12.1621C29.0519 11.8919 29.6026 11.8904 29.4609 11.6217C29.3032 11.5764 28.8767 12.0029 28.9278 11.4085C28.9278 11.3953 28.8182 11.353 28.8095 11.3632C28.1405 12.1928 26.6785 11.7283 26.3148 12.964C26.0242 12.853 26.2988 12.0014 25.662 12.5594C25.5247 12.3359 24.9025 12.7624 25.0777 12.1212C25.3845 12.0058 25.8022 12.0292 25.808 11.537C25.9132 11.4245 26.0622 11.3427 26.1951 11.3851C26.6157 11.5165 26.2973 11.1704 26.3923 11.0988H26.3908Z" fill="#017785"/>
<path d="M27.7043 14.3113C27.7043 14.2631 27.7043 14.2134 27.7043 14.1652C27.6181 14.0265 27.5305 13.8862 27.4297 13.7227C27.8299 13.8327 27.9214 14.0289 27.7043 14.3113Z" fill="#017785"/>
<path d="M23.3137 20.1158C23.0523 20.1318 22.896 20.1421 22.7383 20.1508C22.7587 20.0851 22.7587 19.9989 22.8011 19.958C22.9501 19.8149 23.0859 19.8689 23.3137 20.1158Z" fill="#017785"/>
<path d="M22.5814 23.9082C22.6135 23.971 22.6647 24.0265 22.6661 24.0849C22.672 24.2105 22.5697 24.2295 22.4806 24.2032C22.4339 24.1886 22.4076 24.1141 22.3711 24.0674C22.4208 24.0309 22.469 23.9929 22.5814 23.9082Z" fill="#017785"/>
<path d="M22.0092 26.2837C22.0516 26.4239 22.0954 26.5656 22.1377 26.7058C21.9888 26.7131 21.8383 26.6839 21.8047 26.5247C21.777 26.3962 21.9011 26.3319 22.0092 26.2822V26.2837Z" fill="#017785"/>
<path d="M28.5393 17.8058C28.5305 18.0103 28.4692 18.0263 28.3947 17.9986C28.3085 17.965 28.1946 17.9358 28.2413 17.8058C28.2545 17.7693 28.2194 17.6261 28.3538 17.6992C28.4385 17.7459 28.5218 17.7956 28.5393 17.8058Z" fill="#017785"/>
<path d="M32.0862 10.3691C32.5462 10.3823 32.6631 10.5663 32.3783 10.9534C32.1986 10.8 32.0029 10.654 32.0862 10.3691Z" fill="#017785"/>
<path d="M38.3211 11.1865C38.3079 11.1398 38.2612 11.0609 38.2831 11.0303C38.3313 10.9616 38.4131 10.9163 38.4817 10.8623C38.5007 10.9149 38.5445 10.9748 38.5314 11.0186C38.508 11.1048 38.4715 11.2012 38.3211 11.1865Z" fill="#017785"/>
<path d="M39.7506 12.0512C39.7126 12.0161 39.6688 11.9752 39.625 11.9343C39.6893 11.8832 39.7506 11.8248 39.8222 11.7839C39.8397 11.7737 39.9157 11.8131 39.9186 11.8365C39.9317 11.9431 39.8645 12.003 39.7521 12.0512H39.7506Z" fill="#017785"/>
<path d="M15.918 20.12C15.9297 19.8775 15.9384 19.7242 15.9457 19.5723C16.0275 19.6102 16.1473 19.6263 16.1853 19.692C16.3065 19.8965 16.121 19.9681 15.918 20.12Z" fill="#017785"/>
<path d="M18.653 17.2305C18.5479 17.4014 18.3755 17.3722 18.2148 17.3766C18.2733 17.0655 18.4106 16.991 18.653 17.2305Z" fill="#017785"/>
<path d="M19.3214 25.5967C19.4411 25.8114 19.558 25.9633 19.6091 26.1356C19.6398 26.2379 19.501 26.2875 19.4075 26.2525C19.26 26.197 19.114 26.0991 19.1257 25.9253C19.1315 25.826 19.2352 25.734 19.3199 25.5967H19.3214Z" fill="#017785"/>
<path d="M20.1064 22.6963C20.0158 22.965 19.9793 23.1505 19.7982 23.2469C19.7777 23.2571 19.6989 23.2163 19.6974 23.1943C19.677 22.9548 19.8055 22.8146 20.1064 22.6963Z" fill="#017785"/>
<path d="M30.6801 19.4946C30.5822 19.1996 30.7677 19.0609 30.8568 18.833C31.073 19.1485 31.0116 19.3354 30.6801 19.4946Z" fill="#017785"/>
<path d="M32.918 19.085C32.5499 19.1375 32.2972 19.1887 32.0898 18.752C32.4097 18.8805 32.6098 18.9608 32.918 19.085Z" fill="#017785"/>
<path d="M32.0829 10.3691C32.1647 10.5707 32.3969 10.6992 32.375 10.9534C32.229 11.0439 32.0829 11.0439 31.9369 10.9534C31.8083 10.7138 31.8741 10.524 32.0829 10.3691Z" fill="#017785"/>
<path d="M31.5 11.0992C31.6052 10.9283 31.7775 10.9575 31.9382 10.9531C31.7921 11.0028 31.7527 11.3694 31.5 11.0992Z" fill="#017785"/>
<path d="M25.0773 12.1211C25.0729 12.5315 25.5417 12.3124 25.6615 12.5593C25.3299 12.5826 24.9371 12.7842 24.7852 12.2672C24.848 12.1503 24.9575 12.124 25.0773 12.1211Z" fill="#017785"/>
<path d="M24.0059 12.3389C23.9592 12.4864 23.8891 12.4557 23.8278 12.4309C23.7387 12.3929 23.6452 12.3447 23.6729 12.2264C23.6802 12.1957 23.7007 12.0526 23.8044 12.1797C23.8628 12.2498 23.9504 12.2965 24.0059 12.3389Z" fill="#017785"/>
<path d="M26.3889 11.0988C26.8329 12.0978 25.8996 11.258 25.8047 11.5369C25.885 11.239 25.8865 10.8359 26.3889 11.0988Z" fill="#017785"/>
<path d="M24.8599 11.9431C24.7913 11.8029 24.7299 11.7254 24.7168 11.6407C24.7022 11.537 24.7708 11.4552 24.8818 11.4815C24.93 11.4932 24.9972 11.5838 24.9914 11.632C24.9812 11.7181 24.9242 11.7985 24.8585 11.9431H24.8599Z" fill="#017785"/>
<path d="M25.4994 10.623C25.5315 10.6859 25.5826 10.7414 25.5841 10.7998C25.5899 10.9254 25.4877 10.9444 25.3986 10.9181C25.3519 10.9035 25.3256 10.829 25.2891 10.7822C25.3387 10.7457 25.3869 10.7078 25.4994 10.623Z" fill="#017785"/>
<path d="M30.1424 11.3328C30.1234 11.4964 30.0387 11.5329 29.9365 11.5183C29.8065 11.4993 29.8371 11.3869 29.8328 11.2992C29.8284 11.1941 29.8401 11.0875 29.9803 11.159C30.0548 11.197 30.1015 11.2876 30.1409 11.3328H30.1424Z" fill="#017785"/>
</g>
</svg>
